<svg xmlns="http://www.w3.org/2000/svg" xmlns:xlink="http://www.w3.org/1999/xlink" viewBox="0 0 553 470" xmlns:v="https://vecta.io/nano"><style><![CDATA[.K{fill:#f89f80}.L{fill:#f47c70}.M{fill:#fff}.N{fill:#ced4e7}.O{fill:#373739}.P{fill:#f1625e}.Q{fill:#171919}.R{fill:#3668b2}.S{fill:#434343}.T{fill:#fff0e8}]]></style><clipPath id="A"><path d="M144.58 257.92l-1.47 4.76.05-136c0-.83-.05-.7-.05-99.187H432.1l.038 230.43-287.55.01z"/></clipPath><g class="N"><g opacity=".3"><g opacity=".8"><path d="M295.2 147.44c-22.655-3.345-44.127-12.57-62.655-26.553C204.88 100 146.967 64.454 91.715 82.16c-76.202 24.42-76.542 95.067-56.693 133.44s160.6 150.75 343.08 132.87c163.3-16 195.1-199.16 108.02-232.3-75.533-28.745-101.3 44.497-190.92 31.266z" opacity=".5"/><ellipse cx="530.28" cy="120.33" opacity=".5" rx="7.081" ry="7.621"/><path d="M68.022 70.13c2.173-.4 4.37.802 5.136 2.875 1.304 3.536-2.112 7.496-6.7 5.72-3.967-2.938-2.24-7.895 1.574-8.596z"/><circle cx="510.95" cy="52.216" r="9.223"/><circle cx="87.009" cy="65.373" opacity=".8" r="9.318"/><path d="M464.63 340.44c2.06-.797 4.444-.025 5.58 1.87 1.94 3.232-.68 7.758-5.53 6.87-4.444-2.15-3.67-7.34-.052-8.74z"/><circle cx="482.4" cy="332.24" r="9.318"/><circle cx="493.58" cy="38.101" r="5.674"/></g><path d="M514.36 140.9c-.008-50.7-42.212-106.23-94.74-109.6l-2.796-.154c-75.302-3.5-81.04 88.334-149.17 98.692s-120.16-41.935-201.68-7.817c-73.218 30.642-93.05 202.83 122.08 209.73 172.12 5.525 326.33-39.633 326.3-190.86z" opacity=".8"/></g><ellipse cx="291.69" cy="433.44" rx="196.14" ry="10.118"/><path d="M424.54 405.12h-27.18v28.268h31.784v-23.665c-.001-2.543-2.06-4.603-4.603-4.603zm-172.58-60.57h94.35v60.572h-94.35z"/></g><g class="M"><path d="M418.45 433.4h-260.3v-10.494c0-9.817 7.958-17.774 17.774-17.774h224.74c9.817 0 17.774 7.958 17.774 17.774V433.4z"/><path d="M240.4 344.55h94.35v60.572H240.4z"/></g><g class="N"><path d="m240.4 363.15 94.35-7.56.01-11.04h-94.24z"/><path d="M502.2 94.42v237.54a12.61 12.61 0 0 1-12.606 12.606H86.754a12.61 12.61 0 0 1-12.606-12.606V94.42a12.61 12.61 0 0 1 12.606-12.606h402.85a12.61 12.61 0 0 1 12.605 12.606z"/></g><path d="M502.2 94.42V314.4h-38.972V81.8h26.366A12.61 12.61 0 0 1 502.2 94.416z" fill="#585859"/><path d="M486.18 94.42v237.54a12.61 12.61 0 0 1-12.606 12.606H86.754a12.61 12.61 0 0 1-12.606-12.606V94.42a12.61 12.61 0 0 1 12.606-12.606h386.82a10.33 10.33 0 0 1 .559.013 9.16 9.16 0 0 1 .409.025h.016l.292.028.487.057.317.05.15.025.308.06c5.745 1.175 10.067 6.257 10.067 12.348z" class="M"/><path d="M476.1 82.072l-.308-.06-.15-.025-.317-.05-.487-.057-.292-.028h-.016l-.4-.025-.56-.013H86.75A12.61 12.61 0 0 0 74.145 94.42V314.4h412.04V94.42c0-6.1-4.322-11.173-10.067-12.35zm-6.277 210.35a3.43 3.43 0 0 1-3.429 3.429h-372.5a3.43 3.43 0 0 1-3.429-3.429v-190.83a3.43 3.43 0 0 1 3.429-3.429h372.5a3.43 3.43 0 0 1 3.429 3.429z" class="O"/><path d="M469.84 101.6v190.83a3.43 3.43 0 0 1-3.429 3.429H93.92a3.43 3.43 0 0 1-3.429-3.429V101.6a3.43 3.43 0 0 1 3.429-3.429h372.5a3.43 3.43 0 0 1 3.43 3.43z" class="N"/><path d="M469.84 101.6v18H90.5v-18a3.43 3.43 0 0 1 3.429-3.429h372.5a3.43 3.43 0 0 1 3.43 3.43z" class="M"/><circle cx="437.54" cy="108.59" r="2.913" class="P"/><circle cx="446.98" cy="108.59" fill="#438bca" r="2.913"/><path d="M422.68 111.67H126.33c-1.495 0-2.718-1.223-2.718-2.718v-.728c0-1.495 1.223-2.718 2.718-2.718h296.35c1.495 0 2.718 1.223 2.718 2.718v.728a2.73 2.73 0 0 1-2.718 2.718z" fill="#d0dded"/><path d="M104.18 108.6v2.853c0 .403-.436.655-.785.453l-4.94-2.852c-.35-.2-.35-.705 0-.906l4.94-2.852c.35-.2.785.05.785.453zm4.34 0v2.853c0 .403.436.655.785.453l4.94-2.852c.35-.2.35-.705 0-.906l-4.94-2.852c-.35-.2-.785.05-.785.453z" fill="#010101"/><g class="O"><path d="M453.82 111.02l-.13-.13a.73.73 0 0 1 0-1.033l3.912-3.912a.73.73 0 0 1 1.033 0l.13.13a.73.73 0 0 1 0 1.033l-3.912 3.912a.73.73 0 0 1-1.033 0z"/><path d="M458.64 111.02l.13-.13a.73.73 0 0 0 0-1.033l-3.912-3.912a.73.73 0 0 0-1.033 0l-.13.13a.73.73 0 0 0 0 1.033l3.912 3.912a.73.73 0 0 0 1.033 0z"/></g><path d="M418.77 288.17H140.54a7.17 7.17 0 0 1-7.169-7.169V131.1a7.17 7.17 0 0 1 7.169-7.169h278.23a7.17 7.17 0 0 1 7.169 7.169V281a7.17 7.17 0 0 1-7.169 7.169z" class="M"/><g class="N"><use xlink:href="#B"/><use xlink:href="#C"/><use xlink:href="#B" y="15.08"/><use xlink:href="#B" x="197.1"/><use xlink:href="#C" x="197.1"/><use xlink:href="#B" x="197.1" y="15.08"/></g><path d="M133.37 262.66h292.57v23.987a1.52 1.52 0 0 1-1.52 1.517H134.9a1.52 1.52 0 0 1-1.52-1.517z" class="O"/><g class="M"><path d="M397.2 272.12v-2.162h2.705v-1.924h-3.668c-.53 0-.962.43-.962.962v3.124zm0 3.85h-1.924v3.3c0 .53.43.962.962.962h3.668v-1.924H397.2v-2.327zm8.34-3.85h1.924v-3.124c0-.53-.43-.962-.962-.962h-3.527v1.924h2.565zm0 3.85v2.327h-2.565v1.924h3.527c.53 0 .962-.43.962-.962v-3.3zm-255.14-1.43v-6.08l10.53 6.08-10.53 6.08z"/><use xlink:href="#D"/><use xlink:href="#D" x="6.82"/></g><path d="M133.37 257.87h292.57v4.796H133.37z" class="N"/><path d="M133.37 257.87H283.5v4.795H133.37z" class="P"/><path d="M379.16 239.2h3.3v7.23h4.42V249h-7.72zm8.62 0h3.3v9.8h-3.3zm15.36 0L399 249h-3.245l-4.14-9.8h3.553l2.336 5.72 2.4-5.72zm8.46 7.3v2.5h-8.14v-9.8h7.958v2.5h-4.713v1.147h4.14v2.378h-4.14v1.287z" class="O"/><circle cx="369.7" cy="244.03" r="4.026" class="P"/><path d="M169.1 246.75c0 2.235-2.12 3.68-5.16 3.68s-5.16-1.446-5.16-3.68c0-1.15.575-2.054 1.544-2.645-.707-.558-1.134-1.315-1.134-2.268 0-2.087 1.955-3.434 4.75-3.434s4.75 1.347 4.75 3.434c0 .953-.427 1.7-1.134 2.268.97.6 1.546 1.495 1.546 2.645zm-3.895-.13c0-.74-.526-1.2-1.265-1.2s-1.265.46-1.265 1.2.526 1.2 1.265 1.2 1.265-.46 1.265-1.2zM163.02 242c0 .624.394.986.92.986s.92-.362.92-.986-.394-.986-.92-.986-.92.362-.92.986zm6.8 2.42c0-3.813 2.17-6.014 5.2-6.014s5.2 2.202 5.2 6.014-2.17 6.014-5.2 6.014-5.2-2.202-5.2-6.014zm6.523 0c0-2.218-.558-2.9-1.314-2.9s-1.315.7-1.315 2.9.558 2.908 1.315 2.908 1.314-.7 1.314-2.908z" class="O"/><g class="P"><circle cx="148.51" cy="241.19" r="3.536"/><path d="M155.12 250.14H141.9s1.502-4.2 6.5-4.2l.1.003.1-.003a6.84 6.84 0 0 1 6.51 4.2z"/></g><g clip-path="url(#A)"><path d="M357.65 125.33c-28.236 1.35-52.444-.096-78.36-11.388 3.52-18.113 11.1-49.627 21.255-62.454 16.83.117 38.272 2.733 53.257 10.396 2.34 14.803 1.506 48.644 3.847 63.446z" class="Q"/><path d="M361.02 484.13c-.246 2.98-7.33 12.192-11.05 11.847s-16.364-10.222-17.545-16.205c-.335-1.7-.123-5.02.362-8.93l.27-2.052c1.3-9.676 3.83-21.602 3.83-21.602l16.992 1.402s3.876 13.915 5.928 24.78c.85 4.518 1.397 8.512 1.212 10.76z" class="K"/><path d="M361.02 484.13c-.246 2.98-7.33 12.192-11.05 11.847s-16.364-10.222-17.545-16.205c-.335-1.7-.123-5.02.362-8.93l.27-2.052c3.874 3.33 12.624 10.726 13.65 10.573 1.318-.216 4.644-3.9 5.112-5.776s-1.55-25.295-1.55-25.295l3.612.298s3.876 13.915 5.928 24.78c.85 4.518 1.397 8.512 1.212 10.76z" class="L"/><path d="M348.4 297.2l-1.456 16.922-2.605 29.034s11.426 27.3 11.36 37.916c-.034 5.523-1.824 67.504-1.824 67.504l-16.997-1.402s-10.03-79.566-13.522-89.107c-1.575-4.294-4.04-22.922-6.267-42.098l-2.406-21.55z" class="K"/><path d="M348.4 297.2l-1.456 16.922-2.605 29.034s11.426 27.3 11.36 37.916c-.034 5.523-1.824 67.504-1.824 67.504l-3.62-.3-1.27-67.1c-.873-11.415-11.106-39.807-11.106-39.807l3.86-44.7z" class="L"/><path d="M317.67 483.14l-7.648 2.914-3.902-11.983s-2.753 14.603-5.004 15.964-25.444 7.057-34.6 6.935c-9.35-.13-9.542-2.816-9.542-2.816.495-2.046 6.282-8.16 12.32-11.677 1.22-.714 2.727-2.102 4.353-3.874 6.372-6.93 14.588-19.646 14.588-19.646l16.994-3.726c8.96 7.202 12.44 27.9 12.44 27.9z" class="K"/><path d="M317.67 483.14l-7.648 2.914-3.902-11.983s-2.753 14.603-5.004 15.964-25.444 7.057-34.6 6.935c-9.35-.13-9.542-2.816-9.542-2.816.495-2.046 6.282-8.16 12.32-11.677 1.22-.714 2.727-2.102 4.353-3.874 2.822 2.173 6.53 4.956 7.455 5.4 1.538.734 11.486-10.6 13.327-12.37 1.838-1.793 4.267-14.96 4.267-14.96l6.533-1.432c8.96 7.2 12.44 27.908 12.44 27.908z" class="L"/><path d="M317.67 483.14l-7.65 2.9-3.9-11.98s-2.753 14.603-5.004 15.964-25.444 7.057-34.6 6.935c-9.35-.13-9.542-2.816-9.542-2.816.495-2.046 6.282-8.16 12.32-11.677 0 0 4.96 8.08 11.196 6.52 6.25-1.56 19.556-16.464 20.57-22.487 1.025-6.026 4.17-11.28 4.17-11.28 8.96 7.203 12.443 27.9 12.443 27.9z" class="M"/><path d="M287.58 362.34c2.393 4.33 4.826 8.96 6.327 12.44 2.764 6.42 11.323 80.45 11.323 80.45l-17 3.725s-24.6-88.187-28.86-96.614h28.2z" class="K"/><path d="M287.58 362.34c2.393 4.33 4.826 8.96 6.327 12.44 2.764 6.42 11.323 80.45 11.323 80.45l-6.536 1.433-.595-11.94s-4.488-61.793-8.47-66.757c-1.925-2.406-5.796-9.237-9.268-15.626h7.22z" class="L"/><path d="M273.14 224.73l69.84-2.266-1.158-25.43 8.057-17.784v-.013l3.462-7.647-2.512-51.35-5.018-4.83-4-1.596-2.9-.25-1.357-.112-4.658-.398-16.302-.96c-.673.648-4.695.36-9.44-.224l-4.633-.648-5.044-.8-1.644-.274-1.034-.175-5.467-.996-16.214 115.76z" class="R"/><path d="M342.98 222.46l-1.15-25.43 8.05-17.8-5.25-16.42-9.33 31.1-.08 28.78z" fill="#224290"/><path d="M301.57 125.12c4.907 7.697 15.057-3.475 15.057-3.475s1.358 8.805 10.798 9.4c7.024.448 12.205-11.208 14.397-17.224l-2.9-.25-1.357-.112-4.658-.398-16.302-.96c-.673.648-4.695.36-9.44-.224l-4.633-.648c-1.87 3-4.335 8.606-.973 13.9z" class="M"/><path d="M317.4 108.63c.162-4.122-.7-10.262-.7-10.262l14.185-3.076s.112 3.9.398 8.07c.275 3.76.698 7.72 1.32 9.18.1.25.21.423.323.5l-16.302-.96c.512-.498.736-1.818.786-3.462z" class="K"/><path d="M331.28 103.36c-3.673 2.254-8.792 5.268-10.46 5.604-.934.187-2.18 0-3.413-.336.162-4.122-.7-10.262-.7-10.262L330.88 95.3c.001 0 .113 3.9.4 8.07z" class="L"/><path d="M337.6 113.45c-3.338 2.827-11.084 8.53-18.88 8.182-7.596-.35-10.5-6.513-11.532-9.764 4.757.585 8.78.872 9.452.224l16.302.96z" class="K"/><path d="M254.06 346.7c1.183 8.083 20.86 93.155 20.86 93.155h34.8l-4.882-67.226c-.187-4.235-9.652-31.172-9.652-31.172l13.75-72.17 3.263 69.84c0 5.355 10.175 100.73 10.175 100.73h41.322s-1.333-48.832-2.653-55.93-10.3-44.797-10.3-44.797l4.957-82.768c.373-4.82-9.74-29.8-12.267-35.942h-69.48c-4.22 23.873-20.935 119.2-19.9 126.28z" class="S"/><g fill="#262827"><path d="M299.9 385.55c.86 7.572.498 37.598.212 54.3h9.614l-4.882-67.226c-.187-4.235-9.652-31.172-9.652-31.172l13.75-72.17-18.482-12.167 9.44 18.755-12.6 70.825c.001 0 11.384 28.195 12.592 38.856zm43.08-46.43s5.48 37.548 7.846 45.245c1.78 5.804 2.615 39.305 2.902 55.482h9.976s-1.333-48.832-2.653-55.93-10.3-44.797-10.3-44.797l4.957-82.768c.373-4.82-9.74-29.8-12.267-35.942 0 0 5.616 36.104 4.994 43.078-.635 6.96-5.455 75.632-5.455 75.632z"/></g><path d="M309.37 255.3c.747 2 13.887-4.654 13.887-4.654l3 2.74-5.217 3.3-4.4 7.85a90.22 90.22 0 0 0 2.388 3.07c.016.032.028.036.035.052.107.114.2.24.323.37.02.02.035.05.055.07.04.04.087.095.126.134a6.53 6.53 0 0 0 .48.567c.677.804 1.42 1.604 2.1 2.255l.248.24c.444.398.857.733 1.248.982.417.284.8.46 1.118.466l4.664-5.23s9.676.477 10.988-.187c.524-.27 1.857-2.452 3.3-4.967l1.47-2.712s.008-.024.04-.08c.157-.315 1.594-6.147 1.763-6.458l-12.554-8.145-1.765 2.395-2.13-.384c-2.658-.455-5.545-.738-7.805-.456-.96.125-1.828.32-2.47.67-4.608 2.383-11.614 6.095-10.9 8.096z" class="K"/><g fill="#cf4b57"><path d="M319.04 267.62l.523.63c.038-.046.072-.1.106-.15l2.312-3.247c.916-1.228 1.816-2.277 2.58-3l.523-.477.434-.336.378-.297-.483.1-.57.16-.717.298c-1.05.48-2.374 1.435-3.375 2.78a10.84 10.84 0 0 0-1.711 3.519zm3.12 3.44l.245.238.636-.942 2.312-3.25c.916-1.224 1.816-2.273 2.58-2.986l.528-.48.435-.33.378-.3-.488.115-.57.155-.717.3c-1.046.475-2.37 1.43-3.375 2.776-.992 1.348-1.513 2.736-1.77 3.75l-.193.957z"/></g><path d="M345.82 115.4s10.345 2.764 13.6 6.238 25.45 78.642 25.747 82.5-37.085 51.285-37.085 51.285l-15.18-11.63 24.153-45.278-14.065-42.3z" class="R"/><path d="M201.5 114.34c-.975 1.162 11.442 20.054 13.53 21.25l3.095 1.248 2.04 4.093 8.307-4.7 2.5-1.405c-.34-.67-.62-1.17-.682-1.3-.005-.015-.014-.02-.014-.02s.076-.073.204-.22a6.04 6.04 0 0 0 .49-.55.82.82 0 0 0 .112-.117c.2-.235.43-.505.664-.8a.62.62 0 0 0 .093-.128c.154-.196.317-.412.486-.638.133-.18.27-.373.4-.57.857-1.25 1.7-2.763 2.054-4.27l.005-.01c.103-.412.17-.83.18-1.252l.005-.01a4.54 4.54 0 0 0-.09-1.218l-.396-1.882a24.75 24.75 0 0 1-.291-1.89c-.154-1.264-.184-2.526.04-3.792.085-.497.2-.983.3-1.48l.2-.973c.06-.333.108-.66.154-1 .023-.164.03-.323.045-.492s.01-.334.005-.513a5.4 5.4 0 0 0-.22-1.5c-.15-.482-.365-.934-.66-1.33a3.32 3.32 0 0 0-.337-.366c-.08-.066-.167-.138-.265-.2a.48.48 0 0 0-.13-.042c-.08-.017-.154-.018-.234-.01-.075.023-.15.047-.22.085a1.69 1.69 0 0 0-.39.311l-.005.01c-.025.024-.04.054-.066.078a16.68 16.68 0 0 0-4.032 10.266c-.433-.517-14.865-18.327-16.144-17.665a3.06 3.06 0 0 0-1.084.891c-.42.535-.554 1.03-.554 1.03s8.418 13.948 8.3 14.698c-.096.54-5.36-4.627-8.872-7.668-1.416-1.235-2.555-2.1-2.943-2.112-.393-.017-.803.283-1.18.74a8.75 8.75 0 0 0-.956 1.461c-.48.843-.78 1.63-.78 1.63s-.166.1-.42.296a20.39 20.39 0 0 0-1.333 1.1c-.328.282-.643.594-.908.908z" class="K"/><g fill="#234191"><path d="M204.95 110.4l.826.995c1.674 1.932 3.413 3.48 4.728 4.53l2.194 1.604-1.57-2.204-4.043-5.06-1.176-1.322c-.352.413-.685.946-.96 1.457zm-2.53 3.03c2.604 3.127 5.228 5.18 5.394 5.308-.1-.193-1.55-3.194-4.064-6.407l-1.33 1.1z"/></g><path d="M232.5 108.68l.258.803c.6 2.16-.104 4.438-.223 6.68-.16 3.087.793 6.23.06 9.23-.62 2.545-2.355 4.628-3.863 6.756-.462.663-.93 1.387-.92 2.184a2.81 2.81 0 0 0 .167.88c.138.337.306.664.48.98.005.015.01.03.03.04l2.5-1.405-.682-1.3c-.005-.015-.014-.02-.014-.02s.076-.073.204-.22l.5-.55a.82.82 0 0 0 .112-.117l.664-.8a.62.62 0 0 0 .093-.128l.486-.638.4-.57c.857-1.25 1.7-2.763 2.054-4.27l.005-.01a7.38 7.38 0 0 0 .18-1.252l.005-.01c.02-.418-.018-.828-.1-1.223l-.386-1.877-.3-1.9c-.154-1.264-.184-2.526.04-3.792l.3-1.48.2-.973.154-1 .035-.498.015-.508a5.4 5.4 0 0 0-.22-1.5c-.135-.486-.35-.94-.66-1.33a3.32 3.32 0 0 0-.337-.366l-.265-.2c-.04-.02-.08-.04-.123-.052a.5.5 0 0 0-.24 0c-.08.008-.15.047-.22.085a1.72 1.72 0 0 0-.392.313z" fill="#fcbf91"/><path d="M220.14 132.15c-1.42-3.662-.13-8.192 3.004-10.558.728-.55 1.574-1 2.486-1.047-2.828-.013-5.713 1.416-6.976 3.946s-.224 5.407 1.486 7.66z" class="L"/><path d="M289.36 108.97s-8.396-.764-11.636 0-26.897 48.934-26.897 48.934l-18.7-24.865-15.064 8.952s21.307 47.053 31.665 47.94 28.985-27.1 28.985-27.1l3.576 8.052z" class="R"/><path d="M287.32 121.14s-11.057 22.037-11.057 26.18 5.04 23.556 5.04 23.556-8.904-18.78-8.155-24.868 14.172-24.868 14.172-24.868z" fill="#224290"/><path d="M332.1 43.172c-.538-.098-21.097.953-25.568 7.17s-13.327 30.334-10.117 43.14 11.6 12.492 14.63 12.12 17.55-3.825 21.415-7.746 14.332-25.706 13.802-31.913S332.1 43.172 332.1 43.172z" fill="#fcbf91"/><path d="M333.33 41.53c-.538-.098-21.097.953-25.568 7.17s-13.328 30.334-10.117 43.142 11.6 12.492 14.63 12.12 17.55-3.824 21.414-7.746S348.022 70.5 347.49 64.303 333.33 41.53 333.33 41.53z" class="K"/><path d="M312.44 82.596c.638.002 1.314-.097 1.887.183a6.12 6.12 0 0 1-4.233 1.857c-.122.003-.247.001-.36-.045-.138-.056-.242-.173-.336-.288a7.2 7.2 0 0 1-1.323-2.483c-.055-.183-.103-.374-.08-.564.077-.63.428-.355.722-.093a5.65 5.65 0 0 0 3.723 1.433z" class="L"/><path d="M310.1 84.26c-.236-.446-.533-.86-.78-1.3a9.52 9.52 0 0 1-.764-1.706c2.358-.6 3.063-2.57 3.794-4.83a6.9 6.9 0 0 0 .252-3.171 6.93 6.93 0 0 0-.458-1.62c-.1-.264-.238-.52-.38-.768-.14-.243-.312-.413-.517-.6.066.175.1.358.143.533l.4 1.365a8.61 8.61 0 0 1 .158 1.432 8.38 8.38 0 0 1-.411 2.842 6.95 6.95 0 0 1-1.385 2.448c-.718.806-1.718 1.5-2.778 1.732a69.12 69.12 0 0 0 .813 2.14 6.5 6.5 0 0 0 .755 1.234c.287.376.615.818 1.08.97.146.048.305.07.453.03-.06-.08-.112-.168-.155-.26l-.053-.12a4.32 4.32 0 0 0-.167-.35z" fill="#f15c69"/><path d="M335.8 85.694c.782-.227 5.235-4.4 7.316-1.068s1.966 8.275-.9 10.573c-2.623 2.097-6.146 4.245-9.745 2.66z" class="K"/><path d="M342.43 88.3c.04.668-.175 1.318-.485 1.915-1.318 2.54-4.203 4.144-6.956 5.62.96-1.175 1.487-2.6 1.592-4.06l.107-1.523c.338-2.018 5.5-5.902 5.742-1.954z" class="L"/><path d="M333.64 96.378l.152-.06.433-.178a5.7 5.7 0 0 0 1.395-.935c.515-.47 1.024-1.13 1.357-1.96.315-.83.458-1.837.195-2.878a2.41 2.41 0 0 0-.114-.384l-.033-.094-.004-.012v.003-.002h-.001l.062-.083.108-.138.22-.27a12.41 12.41 0 0 1 .924-.979l.944-.812c.313-.24.612-.466.898-.62s.583-.24.847-.23a1.19 1.19 0 0 1 .645.235c.15.118.222.247.245.338s.014.143.02.143c-.005-.001.02-.047.018-.145s-.042-.25-.184-.4-.378-.32-.718-.39c-.34-.063-.73-.007-1.092.132s-.706.335-1.068.55-.728.473-1.092.763-.722.618-1.06.98l-.25.28-.122.144-.163.206-.114.145c.013.057.037.116.055.174l.083.25a2.16 2.16 0 0 1 .096.334c.23.903.158 1.793-.05 2.566a5.64 5.64 0 0 1-.999 1.925c-.402.5-.822.852-1.13 1.078-.153.115-.287.188-.37.247l-.13.087z" fill="#cf4b57"/><g class="S"><path d="M302.34 62.348s4.04-2.167 6.242-1.582 2.536 2.75 1.586 3-7.828-1.43-7.828-1.43zm31.06 8.736s-4.408-5.395-7.772-6.633-5 .578-3.83 1.607 11.602 5.026 11.602 5.026z"/></g><path d="M333.43 73.26c-.535.83-1.858 1.296-2.764 1.527-.322-.57-.778-.964-1.336-1.08-1.423-.293-2.957 1.323-3.427 3.608s.303 4.374 1.726 4.667 2.957-1.322 3.427-3.607a6.38 6.38 0 0 0 .096-2.02c1.283-.732 2.278-3.097 2.278-3.097z" class="Q"/><path d="M328.26 78.252s1.468.897 3.194.777 3.054-1.213 3.054-1.213-1.468-.898-3.193-.777-3.055 1.213-3.055 1.213z" class="T"/><path d="M305.65 67.933c.083.805.877 1.635 1.453 2.138.447-.297.925-.416 1.375-.293 1.148.313 1.67 2.06 1.167 3.904s-1.84 3.083-3 2.77-1.67-2.06-1.167-3.904c.156-.57.392-1.083.677-1.5-.664-1.008-.516-3.104-.516-3.104z" class="Q"/><path d="M307.58 73.495s-1.405.112-2.62-.615-1.78-2.017-1.78-2.017 1.405-.112 2.62.615 1.78 2.017 1.78 2.017z" class="T"/><g class="L"><ellipse cx="326.87" cy="85.606" rx="5.205" ry="1.971" transform="matrix(-.9995 -.0328 .0328 -.9995 650.75 181.89)"/><ellipse cx="298.87" cy="77.992" rx="4.497" ry="1.493" transform="matrix(-.8226 -.5686 .5686 -.8226 500.37 312.09)"/></g><path d="m302.94 88.813s10.438-3.505 19.054 2.53c0 0-5.273 7.086-10.194 6.304-5.973-.95-8.86-8.834-8.86-8.834z" fill="#f15c69"/><path d="M303.47 89.116s7-.95 17.94 2.294c0 0-3.426 5.776-9.893 4.627s-8.046-6.92-8.046-6.92z" class="T"/><path d="M335.56 85.873s4.333-3.05 6.9-1.276c0 0 2.1 3.08 2.068 5.627l5.2-13.536c.013-.01.013-.01.013-.02l1.436-3.836c1.632-4.517 2.818-8.737 2.608-10.946-.017-.132-.035-.243-.054-.342-.028-.143-.057-.276-.097-.398-1.706-4.885-14.002-22.435-22.248-24.3-1.92-.432-4.33-.625-6.96-.63l-.947-.002c-.433.001-.866.002-1.3.025l-.913.033a81.85 81.85 0 0 0-11.675 1.352l-1.3.265-.615.134a33.57 33.57 0 0 0-2.273.58c-.177.046-.344.104-.5.15-1.328.396-2.367.827-3.02 1.255-1.364.897-2.844 3.2-4.185 5.816-2.45 4.76-4.435 10.52-4.435 10.52a24.6 24.6 0 0 1 13.829.423l7.67 2.505s15.044 4.674 19.45 7.62l5.3 2.768z" class="Q"/><path d="M355.36 82.673c-.001.01-6.4-6.726-8.54-16.126-.793-2.96-.3-6.38-2.337-8.756-1.517-1.758-4.046-2.416-6.44-2.717-2.382-.3-4.868-.398-7.03-1.4-3.762-1.746-5.68-5.832-9.254-7.886-4.3-2.47-9.75-1.443-14.66-.5-3.044.575-6.386 1.017-9.4.543 1.342-2.605 2.82-4.92 4.185-5.816.652-.428 1.7-.86 3.02-1.255l.5-.15a33.57 33.57 0 0 1 2.273-.58l.615-.134 1.3-.265c3.517-.684 7.703-1.183 11.675-1.352.304-.018.6-.025.913-.033.434-.023.867-.024 1.3-.025.316-.007.632-.002.947.002 2.63.006 5.04.2 6.96.63 8.246 1.863 20.543 19.413 22.248 24.3.04.122.07.255.097.398a4.17 4.17 0 0 1 .054.342c.2 2.2 2.053 19.5 1.558 20.8z" class="S"/><path d="M353.75 61.542c-2.176-.936-4.094-2.385-5.443-4.234-1.448-1.973-2.382-4.425-4.53-5.743-2.43-1.484-5.7-1.062-8.3-2.26-3.683-1.687-5.05-6.064-8.355-8.334-3.135-2.154-7.327-2.027-11.188-2.202-1.645-.08-4.287-.316-6.317-1.147 6.892-1.33 16.348-2.002 21.796-.777 8.246 1.863 20.543 19.413 22.248 24.3a3.27 3.27 0 0 1 .097.398z" fill="#5a5a5a"/><g fill="#e0e0e0"><path d="M190.02 85.3h61.646c5.684 0 10.292-4.608 10.292-10.292V44.332c0-5.684-4.608-10.292-10.292-10.292H190.02c-5.684 0-10.292 4.608-10.292 10.292V75c0 5.684 4.608 10.292 10.292 10.292z"/><path d="M218.8 82.486l9.62 24.374 13.68-4.06 14.37 17.58-5.78-29.72-12.14 1.856.2-11.06z"/></g><path d="M222.64 61.2c0 8.93 7.235 16.165 16.165 16.165S254.97 70.13 254.97 61.2s-7.236-16.165-16.165-16.165c-.274 0-.56.012-.835.025l1.98 15.43-17-2.5c-.198 1.034-.3 2.105-.3 3.2z" fill="#6a8bb1"/><path d="M219.9 54.903l17 2.5-1.98-15.43c-7.46.374-13.574 5.804-15.02 12.94z" fill="#d94663"/><g fill="#c2adb9"><path d="M191.86 43.677h20.567v2.515H191.86zm0 7.365h20.567v2.515H191.86zm0 7.366h20.567v2.515H191.86zm0 7.365h20.567v2.515H191.86zm0 7.365h20.567v2.515H191.86z"/></g></g><defs><path id="B" d="m218.05 207.97h-64.147c-.984 0-1.782-.798-1.782-1.782s.798-1.782 1.782-1.782h64.147c.984 0 1.782.798 1.782 1.782s-.798 1.782-1.782 1.782z"/><path id="C" d="M218.05 192.9h-64.147c-.984 0-1.782-.798-1.782-1.782s.798-1.782 1.782-1.782h64.147c.984 0 1.782.798 1.782 1.782a1.78 1.78 0 0 1-1.782 1.782z"/><path id="D" d="M179.58 280.14h-1.383a.94.94 0 0 1-.939-.939v-9.184a.94.94 0 0 1 .939-.939h1.383a.94.94 0 0 1 .939.939v9.184c0 .516-.423.94-.94.94z"/></defs></svg>