<svg xmlns="http://www.w3.org/2000/svg" xmlns:xlink="http://www.w3.org/1999/xlink" width="1920" height="1080" viewBox="-221.5 -429 1920 1080" xmlns:v="https://vecta.io/nano"><path d="M-221.5-429h1920V651h-1920z" fill="#224192"/><defs><path id="A" d="M-222.82-429h1920V651h-1920z"/></defs><clipPath id="B"><use xlink:href="#A"/></clipPath><g opacity=".6" clip-path="url(#B)"><linearGradient id="C" gradientUnits="userSpaceOnUse" x1="1075.508" y1="-58.491" x2="1850.144" y2="778.696"><stop offset="0" stop-color="#fff"/><stop offset=".096" stop-color="#aba5a3"/><stop offset=".227" stop-color="#625a57"/><stop offset=".353" stop-color="#342e2c"/><stop offset=".471" stop-color="#120b08"/><stop offset=".577"/><stop offset=".738"/></linearGradient><path d="M1672.83-440.84c-67.945-7.932-136.77 7.925-194.873 54.424-33.824 27.063-67.473 63.02-89.937 105.236-24.437 45.947-33.867 98.41-31.6 153.33 4.17 101.443 33.286 198.987 22.91 301.46-8.135 80.233-40.004 156.192-89.706 207.9-49.26 51.25-109.886 79.164-173.1 87.483-50.855 6.695-101.965 9.926-152.636 18.927-87.415 15.515-207.165 47.748-236.046 163.08H1740.04V-425.54c-22.025-7.39-44.46-12.64-67.2-15.3z" opacity=".3" fill="url(#C)"/><linearGradient id="D" gradientUnits="userSpaceOnUse" x1="-734.993" y1="-587.295" x2="32.834" y2="334.095"><stop offset=".262"/><stop offset=".898" stop-color="#fff"/></linearGradient><path d="M423.046-429H-710.622V673.3C-159.56 526.91 194.808 51.738 423.046-429z" opacity=".1" fill="url(#D)"/></g></svg>