<svg xmlns="http://www.w3.org/2000/svg" width="67.568" height="73.649" opacity=".5" fill="none" stroke="#0371b8" stroke-linejoin="round" stroke-miterlimit="10" xmlns:v="https://vecta.io/nano"><path d="M42.317 20.08h7.586v31.274h-7.586z"/><path d="M49.903 23.832H46.1m3.803 7.246H46.1m3.803 7.246H46.1m3.803 7.246H46.1m3.803-19.34h-1.897m1.897 2.425h-1.897m1.897 4.845h-1.897m1.897 2.413h-1.897m1.897 4.835h-1.897m1.897 2.424h-1.897M35.284 31.078H33m2.274 7.246H33m2.274 7.246H33m2.274-19.34h-1.138m1.138 2.425h-1.138m1.138 4.845h-1.138m1.138 2.413h-1.138m1.138 4.835h-1.138m1.138 7.365h-1.138m1.138-4.94h-1.138" stroke-linecap="round"/><path d="M18.517 51.355L35.284 20.08v31.274z"/><path d="M26.137 46.794l4.586-8.554v8.554z"/></svg>