<svg xmlns="http://www.w3.org/2000/svg" width="67.568" height="73.649" opacity=".5" fill="none" stroke="#0371b8" stroke-linejoin="round" xmlns:v="https://vecta.io/nano"><circle cx="18.618" cy="28.836" r="2.433"/><circle cx="44.664" cy="47.509" r="2.434"/><circle cx="35.5" cy="37.313" r="5.189"/><g stroke-miterlimit="10"><path d="M45.978 37.313l-4.5 2.48 1.422 4.93-4.93-1.422-2.48 4.5-2.48-4.5-4.93 1.422 1.422-4.93-4.5-2.48 4.5-2.48-1.422-4.93 4.93 1.422 2.48-4.5 2.48 4.5 4.93-1.422-1.422 4.93z"/><path d="M42.23 47.5a2.44 2.44 0 0 1 2.434-2.434c.726 0 1.376.32 1.822.824a13.88 13.88 0 0 0 2.96-8.586A13.95 13.95 0 0 0 35.5 23.367a13.95 13.95 0 0 0-13.946 13.946A13.95 13.95 0 0 0 35.5 51.259a13.86 13.86 0 0 0 7.37-2.11 2.42 2.42 0 0 1-.64-1.64z"/><path d="M35.5 18.44c-6.508 0-12.246 3.294-15.64 8.306a2.43 2.43 0 0 1 1.191 2.089 2.44 2.44 0 0 1-2.433 2.434 2.43 2.43 0 0 1-.933-.186 18.84 18.84 0 0 0-1.058 6.23c0 10.423 8.45 18.873 18.873 18.873s18.873-8.45 18.873-18.873S45.923 18.44 35.5 18.44z"/></g></svg>