<svg xmlns="http://www.w3.org/2000/svg" width="67.568" height="73.649" opacity=".5" fill="none" stroke="#0371b8" stroke-linejoin="round" stroke-miterlimit="10" xmlns:v="https://vecta.io/nano"><path d="M17.323 47.336l-.016.07c.02-.02.03-.044.016-.07zm5.96 6.467zm-6.58-4.077l-.001-.001.001.001z"/><path d="M15.717 48.395c.14.182.172.338.2.47a.76.76 0 0 0 .07.179.44.44 0 0 0 .059.075l.108.1c.143.2.357.36.534.514.24-.06.202.228.427.203l-.06.12c.077-.008.143.002.123.08l-.03.022c.115-.013.123.08.18.073l-.03.022.066.05-.048.024c.152.02.237.102.274.2l.106-.108c.027.28.313.126.302.4l-.03.023c.464-.087.077.48.53.4-.057.01-.047.064-.075.087.114.057.22.134.435-.07.057.066-.018.116-.093.203.094-.1.185-.073.238-.03l-.058.012.167.1.15-.197c.02.123-.198.226-.087.256l.146-.142c.07.13-.095.404-.108.607.167.236.45.374.704.532.252.153.47.327.518.65l-.096.12c-.157.16.34-.116.203.04l.116-.024c-.018.04-.024.096-.082.107.032.048.06.024.137.01l-.06.14c.072.24.397.2.516.412-.017.403.534.623.853.75.538.096.22 1.07.8 1.14-.014.032.064.012.083-.006l.25.322s1.262 1.518 1.624-.837l.043-.025c-.062-.245-.138-.367-.422-.316.205-.22-.1-.157-.064-.26l.02-.013c-.262.055-.047-.337-.288-.295.02-.012.084-.066.108-.047-.092-.045-.23-.097-.105-.22-.187-.138-.342-.43-.646-.35l.042-.025c-.195.066-.093-.06-.226-.065.013-.02.018-.032.025-.038-.198.058-.2-.177-.307-.178l.082-.082-.14-.116.027.067c-.25.2.055-.237-.185-.194-.053-.118-.655.265-.625.065-.15.056.214-.125.07-.114.12-.115.105-.04.187-.147-.118-.013.027-.224-.13-.23l.092-.1c-.27.054-.057-.316-.287-.234-.178-.037.215-.335-.074-.277l.088-.164c-.024-.068-.2.1-.176-.001.084-.072.002-.128.108-.168.013-.24-.4-.08-.343-.444-.2.1-.177-.06-.32.025.062-.07-.143-.172.1-.223.02-.004.03.012.003.036l.103-.077c.087-.257-.253-.072-.312-.187-.005.056.037.083-.05.12l-.067-.095.094-.057-.073-.166-.08.1c-.01-.107.134-.285-.067-.222-.105.042-.074.18-.165.146-.012-.143-.03-.358-.098-.487-.1.113-.12.082-.17.075l.1-.093c-.234.016.168-.237-.04-.245l.074-.053-.223.16c-.278.08.145-.238-.212-.103.057.027-.188.218-.197.126l.103-.073c-.047-.01-.094.016-.093-.022.065-.03.14-.117.085-.144l.14-.08-.243.078c.038-.155-.178-.137-.074-.284 0 0-.063-.193-.233-.1.113-.055.077-.16.2-.236-.13.058-.3.032-.24-.108l.02-.003c-.032-.252-.4-.122-.383-.38-.105.108-.1-.02-.237.128-.272-.015.056-.52-.433-.175-.083-.044.035-.17.028-.224l.037-.005c-.144-.1-.18-.12-.25-.222-.083-.007-.298.167-.32.04.106-.045.062-.066.035-.096.03.008.066-.012.087-.1a.2.2 0 0 1-.074.025c.006-.006.01-.012.02-.02-.073-.026-.092.005-.083.04a.182.182 0 0 0-.045.053c.062-.146-.135-.143.004-.272-.168-.13-.395-.1-.576-.204.06-.08.155-.1.222-.077l-.12-.088c.107-.1.114.012.164.03.06-.286-.403-.12-.382-.395l-.106.05.005-.02a.243.243 0 0 1-.16.063c.067-.104.198-.198.128-.256.03-.136-.186-.097-.296-.1.02.048-.037.086-.08.103-.034-.027.032-.132-.028-.116l.1-.122c-.094.123-.195.045-.252.083.066-.105.12-.03.2-.1l-.196-.155c-.15.028-.096.123-.226.197-.078-.03-.214-.003-.206-.135l-.083.122c-.183-.024-.235-.104-.188-.273l-.922.03a.72.72 0 0 0-.45.23.6.6 0 0 0-.083.38c.01.1.037.194.037.194.148.7.66.567 1.114.847zm25.345-24.802l-.014.067c.017-.022.026-.046.014-.067zm6.034 5.26zm-6.402-2.908l-.001-.001.001.001z"/><path d="M39.582 24.808c.273.316.178.604.582.8.143.15.353.24.53.344.215-.107.204.17.4.1l-.047.124c.07-.023.133-.026.12.05l-.025.026c.106-.034.12.052.172.034l-.025.026.065.034-.043.032c.143-.01.227.053.268.148l.092-.12c.04.257.3.067.305.336l-.026.026c.432-.152.1.437.5.294-.053.016-.043.066-.07.092.105.04.203.098.404-.12.054.055-.017.1-.087.202.087-.097.174-.1.226-.054l-.055.018.16.087.14-.205c.022.116-.184.237-.078.254l.136-.15c.07.117-.082.397-.1.593.332.417 1.096.403 1.22.992l-.086.13c-.14.173.32-.16.196.008l.1-.04c-.015.04-.018.095-.072.113.033.04.058.014.13-.01l-.05.14c.082.217.4.132.515.316.005.384.54.512.85.586.517.015.257.98.807.967-.012.032.06.003.078-.016l.246.27s.308.316.65.355.735-.2.872-1.347l.04-.03c-.068-.227-.146-.336-.416-.252.188-.235-.103-.137-.072-.24l.02-.015c-.248.084-.06-.316-.288-.246.02-.014.077-.073.1-.058-.1-.03-.224-.063-.1-.197-.186-.107-.35-.364-.635-.246l.04-.03c-.183.1-.092-.045-.22-.03.012-.02.015-.033.022-.04-.186.083-.2-.14-.302-.126l.074-.1-.14-.1.03.06c-.228.224.04-.232-.187-.158-.057-.104-.6.345-.593.15-.14.075.197-.15.06-.118.108-.126.098-.052.17-.166-.113.005.013-.215-.136-.198l.083-.1c-.255.1-.07-.3-.286-.18-.17-.01.188-.348-.085-.25l.076-.167c-.026-.06-.175.132-.168.025.076-.08-.004-.122.094-.174.003-.228-.4-.02-.344-.368-.175.132-.164-.03-.295.07.058-.073-.138-.144.08-.22.018-.006.03.008.004.034l.095-.086c.076-.254-.24-.037-.298-.14-.004.053.036.074-.044.12l-.065-.082.088-.065-.072-.15-.073.113c-.01-.1.12-.286-.068-.203-.1.052-.067.18-.154.158-.014-.135-.034-.336-.102-.45-.092.12-.113.1-.16.1l.084-.1c-.22.042.155-.244-.04-.23l.07-.06-.2.176c-.263.108.134-.243-.203-.075.054.02-.174.228-.185.14l.097-.08c-.046-.006-.1.024-.1-.012.062-.035.132-.126.076-.148l.133-.1-.233.1c.03-.155-.177-.117-.084-.27 0 0-.014-.043-.067-.085-.045-.035-.096-.044-.176.015.104-.07.063-.165.175-.254-.122.074-.293.074-.238-.07l.018-.006c-.05-.238-.383-.06-.398-.3-.092.12-.108-.002-.216.16-.26.028.005-.5-.43-.1-.083-.028.017-.17.004-.22l.035-.01c-.148-.062-.186-.086-.264-.17-.08.008-.266.213-.3.096.096-.063.05-.074.022-.098.03.002.06-.023.07-.112a.277.277 0 0 1-.068.037c.005-.007.008-.013.016-.022-.074-.01-.087.022-.074.053a.189.189 0 0 0-.037.06c.04-.15-.147-.1-.03-.26-.175-.1-.404-.027-.573-.072.048-.086.132-.13.2-.128l-.1-.045c.1-.107.1-.02.146-.02.04-.26-.357-.004-.348-.264l-.095.065.004-.02c-.037.045-.115.085-.145.084.06-.108.18-.216.113-.26.026-.13-.174-.066-.28-.066.02.044-.032.087-.074.1-.033-.02.025-.13-.03-.1l.1-.13c-.085.13-.185.066-.238.1.058-.1.113-.044.178-.1l-.2-.13c-.143.044-.084.13-.205.22-.08-.02-.205.025-.213-.105l-.067.132c-.18.004-.233-.058-.223-.233a1.91 1.91 0 0 0-.485.162c-.137.064-.2.165-.258.25-.126.187-.192.325-.202.462-.023.054-.02.116-.06.15a.265.265 0 0 1-.065.037l-.004.002c-.067.116.1-.158.074-.13l-.003.005-.015.03-.044.08-.017.032-.002.006-.008.023c-.027.052 0 .104-.006.1.052.424.484.226.914.424zM17.536 44.814l.063.04c-.01-.026-.03-.044-.063-.04zm9.994-4.154zm-7.658 5.453l-.002.001.002-.001z"/><path d="M17.75 46.748c.527-.135.758.086 1.28-.23.28-.078.555-.25.84-.406.06-.262.335-.148.4-.38l.103.092c.024-.078.064-.142.138-.1l.01.035c.035-.118.14-.1.157-.158l.01.035.082-.05.004.054a.41.41 0 0 1 .351-.208l-.066-.137c.3.058.288-.27.588-.17l.01.035c.143-.483.55.08.714-.388-.02.058.044.067.054.102.122-.093.26-.17.158-.448.102-.034.115.056.168.158-.047-.122.022-.205.098-.242l-.02.06.2-.127-.13-.213c.145.02.136.27.23.17l-.073-.2c.18-.025.386.226.6.305.7-.18 1.24-.927 1.987-.888l.087.128c.1.2.04-.383.144-.204l.03-.127c.036.027.095.047.08.1.07-.023.056-.057.077-.14l.127.094c.305-.024.416-.372.7-.45.45.103.96-.425 1.245-.726.17-.265.5-.27.833-.278.292-.003.567.015.748-.27.03.022.043-.06.033-.085l.497-.18s.154-.06.353-.184.438-.314.57-.534.144-.447-.046-.615c-.188-.176-.566-.293-1.13-.507l-.015-.047c-.26.008-.403.044-.467.342-.146-.263-.2.058-.308-.006l-.004-.025c-.06.277-.396-.04-.473.218-.003-.025-.033-.102.002-.122-.1.085-.234.22-.317.066l-.45.26c-.13.083-.235.187-.252.35l-.01-.048c-.006.2-.107.08-.166.214-.016-.018-.03-.025-.032-.034-.017.213-.28.163-.326.273l-.057-.102-.188.118.086-.013c.114.3-.24-.1-.294.145-.152.027.008.728-.202.654-.005.167-.043-.248-.096-.096-.074-.15.003-.117-.08-.225-.066.118-.234-.078-.3.08l-.06-.115c-.06.3-.37-.015-.383.24-.12.175-.265-.3-.333.012l-.136-.13c-.084.008.033.222-.08.18-.04-.104-.136-.033-.13-.15-.25-.076-.273.406-.63.23.03.22-.143.152-.123.318-.042-.084-.255.086-.2-.16.006-.02.028-.026.04.01l-.03-.125c-.23-.167-.206.225-.36.245.057.023.108-.01.103.087l-.137.035-.012-.1-.217.017.075.114c-.12-.027-.235-.224-.274-.007-.01.117.155.132.07.2-.16-.035-.4-.1-.58-.064.068.134.022.145-.012.2l-.05-.12c-.1.235-.165-.243-.288-.043l-.017-.1.05.27c-.066.3-.18-.22-.23.175.06-.047.134.255.03.235l-.023-.125c-.038.043-.035.098-.076.085.004-.074-.05-.176-.1-.13l-.01-.164-.05.265c-.15-.087-.25.13-.354-.018 0 0-.25.003-.23.202.001-.13-.136-.126-.152-.27-.008.148-.136.317-.255.208l.007-.02c-.303-.042-.352.354-.642.276.066.136-.083.107.018.274-.16.268-.57-.2-.426.393-.092.073-.177-.077-.244-.082l.013-.04c-.178.127-.232.157-.38.206-.047.083.044.346-.1.334-.005-.117-.045-.078-.1-.06.02-.028.014-.068-.07-.113a.198.198 0 0 1-.004.08c-.004-.008-.01-.013-.012-.024-.06.066-.035.092.007.093a.153.153 0 0 0 .037.06c-.13-.1-.22.096-.296-.076-.218.13-.323.375-.502.518a.202.202 0 0 1 .008-.238l-.132.086c-.047-.132.055-.106.1-.148-.25-.15-.277.34-.555.225l-.003.12-.02-.013a.23.23 0 0 1-.02.175c-.073-.102-.098-.263-.198-.216-.124-.078-.2.145-.3.25.065-.004.072.066.064.115-.05.025-.125-.076-.145-.01l-.07-.15c.08.134-.07.212-.06.28-.078-.1.037-.13.014-.22l-.302.16c-.058.163.086.13.094.286-.082.072-.12.22-.274.188l.1.112c-.12.2-.224.228-.415.17-.165.445-.14.762-.07.97s.18.336.304.398a.83.83 0 0 0 .293.123c.08.016.134.012.134.012.482.067.48-.404.992-.75zM38.73 25.65l-.075.02c.026.01.052.01.075-.02zm-5.27 11.365zm2.63-10.508l.001-.002-.001.002z"/><path d="M37.252 24.345c-.34.586-.664.637-.83 1.286-.15.276-.23.598-.333.874.135.223-.18.344-.105.606l-.144.007c.026.087.028.174-.06.2l-.03-.02c.04.128-.057.198-.036.262l-.03-.02-.037.1-.038-.04a.59.59 0 0 1-.16.464l.142.055c-.3.215-.06.455-.36.63l-.032-.02c.2.496-.488.4-.296.905-.024-.062-.08-.014-.1-.032-.03.174-.085.35.186.473-.054.112-.126.055-.237.023.12.052.125.173.093.264l-.028-.06-.07.272.247.05c-.124.106-.3-.086-.3.067l.187.08c-.118.17-.448.156-.664.276-.405.713-.274 1.72-.9 2.26l-.153-.032c-.2-.078.215.326.015.267l.057.122c-.046.006-.106.035-.134-.025-.04.07-.008.086.03.167l-.162.02c-.226.235-.097.6-.292.864-.427.232-.536 1.027-.6 1.495.026.7-1.104.965-1.018 1.808-.037.008.01.084.035.093l-.223.473-.118.265c-.06.137-.103.26-.127.4s-.058.34.07.56a.72.72 0 0 0 .394.295c.212.075.537.093.955-.06l.026.046c.367-.288.505-.538.383-.863.294.08.14-.26.258-.295l.02.016c-.143-.272.323-.316.188-.53.02.015.095.05.086.083 0-.1.022-.3.18-.24.085-.3.35-.665.2-.97l.037.034c-.118-.188.04-.148.013-.308.024.004.038 0 .046.006-.1-.197.14-.348.116-.477l.107.046.1-.242-.065.075c-.27-.172.266-.085.165-.345.115-.14-.435-.614-.215-.708-.096-.144.184.176.138.008.15.07.067.1.2.13-.015-.15.246-.115.213-.307l.12.05c-.124-.3.324-.283.178-.506-.007-.24.4.027.272-.28l.195-.007c.065-.074-.168-.15-.048-.2.098.05.135-.084.205.015.255-.143-.026-.54.368-.708-.17-.15.01-.242-.116-.353.1.03.14-.282.256-.04.01.02-.004.044-.037.028l.108.07c.292-.067.008-.35.113-.496-.06.03-.077.1-.14.022l.08-.143.085.074.154-.198-.135-.022c.1-.082.334-.03.214-.228-.072-.097-.2.032-.197-.1.146-.1.366-.273.483-.442-.145-.042-.118-.1-.123-.153l.12.046c-.08-.268.293.042.246-.2l.075.053-.226-.16c-.16-.278.287.014.052-.32-.014.085-.278-.08-.184-.15l.104.075c-.001-.063-.04-.102-.002-.126.048.058.16.1.174.005l.12.115-.146-.238c.173-.057.098-.302.28-.275 0 0 .187-.202.036-.337.088.097.2-.014.3.082-.096-.118-.113-.346.052-.357l.008.02c.257-.204.03-.542.307-.702-.14-.055-.006-.144-.194-.197-.05-.332.57-.27.084-.626.028-.126.2-.068.247-.1l.014.04c.064-.228.084-.282.183-.438-.008-.1-.245-.248-.1-.365.074.098.086.028.114-.027-.003.043.028.072.13.033a.19.19 0 0 1-.044-.074c.008.003.015.003.025.01.01-.1-.028-.1-.062-.073-.014-.01-.035-.016-.07-.016.175-.033.122-.27.297-.2.094-.298.006-.577.04-.835.1.014.155.102.16.184l.04-.177c.127.058.032.126.035.188.294-.104-.03-.5.26-.633l-.08-.1.023-.006a.217.217 0 0 1-.107-.146c.125.017.256.114.297.001.146-.04.055-.27.045-.4-.046.053-.1.006-.126-.038.02-.057.146-.038.117-.102l.152.062c-.15-.042-.1-.2-.14-.258.125.02.057.127.135.178l.127-.333c-.06-.167-.15-.045-.255-.16.016-.1-.033-.278.103-.32l-.147-.036c.005-.237.077-.357.272-.394a1.72 1.72 0 0 1-.022-.6l.075-.403a.54.54 0 0 0-.198-.466c-.15-.1-.374-.088-.554-.028s-.307.152-.307.152a1.77 1.77 0 0 0-.558.576 1 1 0 0 0-.092.206.5.5 0 0 0-.017.077l-.003.033-.02.066-.04.152-.013.1-.025.233c-.02.16-.046.333-.1.52zM29.244 54.83l.1.026c-.01-.026-.042-.04-.1-.026zM46.6 39.06c-.001-.01 0-.017-.002-.026-.003.016-.001.023.002.026zM33.545 55.1a.172.172 0 0 0-.02.03l.02-.03z"/><path d="M28.723 56.985c1.304-.35 1.758-.2 3.014-.9.316-.124.626-.287.927-.462l.875-.53c.168-.338.75-.427.965-.78l.187.033c.076-.12.18-.232.32-.245l.013.035c.107-.183.314-.25.367-.342l.014.035.182-.138-.004.065c.222-.26.485-.464.756-.594l-.107-.1c.618-.222.607-.622 1.185-.795l.016.034c.32-.752 1.065-.476 1.396-1.236-.04.094.08.036.097.07.237-.245.5-.492.313-.724.2-.153.212-.056.3.012-.084-.1.044-.277.185-.405l-.035.095.4-.388-.24-.116c.267-.137.25.18.425-.05l-.136-.15c.33-.235.714-.165 1.107-.326 1.28-1.07 2.085-2.707 3.315-3.66l.162.044c.193.116.004-.538.202-.455l.03-.202c.062-.015.16-.074.146.028.107-.126.08-.152.098-.287l.218-.058c.476-.464.583-1.07 1-1.617.705-.554 1.247-2.007 1.518-2.884.14-.633.544-1.193.92-1.805s.708-1.28.665-1.972c.04-.035-.003-.16-.028-.164l.246-1.174.096-.823c.034-.466.042-1.04-.026-1.48-.145-.9-.545-1.217-1.654.76l-.045-.032c-.183.594-.256.96-.078 1.406-.307.017-.108.48-.235.6l-.02-.018c.158.405-.338.68-.228 1.06-.02-.02-.097-.048-.08-.124-.028.25-.06.598-.236.56-.127.58-.514 1.312-.433 1.78l-.033-.044c.077.28-.092.274-.12.54-.027.002-.045.013-.052.006.06.304-.302.65-.328.863l-.108-.044-.217.444.113-.15c.245.213-.356.227-.36.64-.206.267.22.933-.105 1.15.037.222-.127-.255-.162.02-.144-.082-.026-.154-.172-.17-.062.25-.36.24-.43.554l-.114-.062c-.026.457-.558.506-.53.846-.15.4-.47-.013-.518.474l-.237.022c-.133.122.1.233-.1.336-.08-.078-.224.142-.234-.015-.4.238-.387.863-.997 1.118.076.238-.217.376-.16.556-.08-.05-.416.43-.34.046.007-.032.044-.067.068-.04l-.067-.115c-.402.084-.316.537-.576.753.098-.042.18-.145.184-.02l-.227.212-.032-.12-.368.283.14.05c-.207.114-.42.007-.47.318-.01.156.278-.02.136.175l-1 .58c.127.087.046.152-.012.246l-.095-.1c-.185.404-.3-.117-.507.254l-.032-.092.096.275c-.117.435-.326-.077-.418.457.112-.122.243.17.05.256l-.04-.13c-.07.092-.064.156-.138.184.008-.095-.1-.163-.202-.04l-.016-.2-.1.376c-.27.046-.46.415-.646.34 0 0-.45.255-.426.476.007-.157-.244-.02-.267-.18-.02.187-.26.516-.472.497l.013-.03c-.55.223-.665.758-1.193.902.106.1-.164.198.001.317-.33.47-1.02.215-.856.82-.187.16-.315.043-.44.08l.033-.056a5.01 5.01 0 0 1-.766.511c-.116.133-.004.385-.302.474.032-.143-.066-.066-.165-.01.055-.05.055-.096-.1-.1a.225.225 0 0 1-.038.104c-.005-.007-.014-.01-.017-.022-.146.125-.102.14-.018.1.004.017.02.032.06.046-.236-.025-.48.26-.587.103-.48.3-.77.636-1.173.898-.087-.067-.02-.192.1-.282l-.3.17c-.052-.13.143-.153.225-.22-.444-.038-.67.518-1.178.505l-.053.136-.033-.008c.022.054-.05.164-.1.205-.104-.092-.1-.265-.306-.182-.2-.052-.466.23-.68.36.13-.018.1.058.07.115-.1.038-.2-.06-.28.017L28 55.22c.1.135-.24.248-.264.325-.097-.097.143-.153.144-.25-.44.148-.217.082-.663.213-.2.182.084.138.006.308-.205.087-.388.252-.658.22l.112.12c-.38.208-.634.24-.94.158-1.416.886-1.543 1.3-1.268 1.52.27.212.926.203.926.203 1.33.055 1.908-.498 3.338-1.055zM5.598 48.17l.095.022c-.013-.025-.04-.038-.095-.022zm18.196-8.502c.004-.007.01-.012.013-.02-.01.01-.013.014-.013.02zM9.26 48.634l-.004.002-.01.023.015-.025z"/><path d="M5.455 50.276c1.046-.363 1.434-.238 2.396-.838.5-.22.965-.536 1.404-.802.117-.308.595-.312.764-.606l.155.06c.058-.1.14-.2.26-.176l.01.035c.088-.152.26-.172.302-.248l.01.035.15-.093-.004.06a1.26 1.26 0 0 1 .634-.377l-.08-.127c.53-.067.565-.428 1.062-.45l.01.036c.343-.612.942-.163 1.302-.77-.045.076.064.055.075.1.225-.162.474-.315.342-.582.178-.087.186.01.262.1-.06-.115.068-.242.202-.32l-.04.077.374-.242-.2-.18c.24-.045.2.24.363.083l-.096-.18c.307-.113.617.074.964.064 1.2-.514 2.2-1.604 3.444-1.752l.1.12c.108.194.167-.43.3-.258l.087-.147c.05.022.142.03.098.103.12-.04.108-.076.167-.172l.177.08c.494-.086.804-.466 1.333-.614.707.036 1.77-.642 2.38-1.034.816-.664 2.205-.237 3.028-.955.042.018.098-.08.088-.103l.884-.3s4.26-1.513.403-2.038l.005-.053c-.518.068-.827.157-1.07.5-.156-.262-.402.118-.548.07l.002-.027c-.2.326-.665.045-.874.345.003-.026-.02-.106.043-.135-.2.113-.447.28-.523.122-.472.227-1.18.407-1.397.787l.005-.054c-.114.244-.22.113-.387.278-.02-.017-.037-.023-.038-.033-.13.248-.556.24-.686.374l-.05-.105-.377.17.153-.03c.06.32-.36-.078-.57.222-.276.06-.307.824-.632.78-.08.2.032-.27-.123-.1-.063-.154.055-.132-.04-.238-.164.146-.37-.042-.567.152l-.053-.118c-.228.34-.652.053-.78.348-.283.227-.36-.273-.603.098l-.197-.107c-.155.034-.02.24-.2.23-.034-.106-.236.004-.184-.132-.43-.001-.623.542-1.206.494-.01.24-.293.237-.298.417-.053-.08-.467.208-.298-.1.015-.026.056-.042.07-.008l-.025-.13c-.368-.1-.414.35-.686.443.095 0 .2-.06.162.052l-.245.102.001-.12-.38.12.108.094c-.202.026-.366-.145-.473.12-.04.138.243.077.08.206-.27.036-.673.1-.98.203.096.12.015.154-.05.223l-.07-.1c-.225.318-.243-.196-.482.088l-.015-.094.044.282c-.157.37-.27-.163-.415.305.1-.08.187.225.013.25l-.02-.13c-.07.066-.073.126-.14.13.018-.085-.057-.175-.168-.095l.01-.18-.123.322c-.237-.03-.438.26-.6.14 0 0-.416.113-.416.33.022-.145-.206-.082-.2-.238-.037.17-.276.414-.456.34l.015-.025c-.492.08-.642.536-1.108.56.083.127-.165.156-.03.304-.333.37-.926.02-.807.624-.17.122-.28-.013-.4.008l.03-.05a3.65 3.65 0 0 1-.677.394c-.1.117.007.373-.25.43.022-.135-.06-.07-.145-.026.046-.043.044-.088-.1-.096 0 .038-.014.07-.03.096-.005-.007-.012-.01-.015-.023-.123.107-.083.125-.01.105.004.017.02.033.054.05-.2-.05-.402.218-.506.06-.4.255-.614.58-.935.82-.082-.068-.038-.185.048-.27l-.234.153c-.06-.127.108-.142.172-.204-.394-.06-.513.502-.95.475l-.026.134-.03-.007c.025.052-.02.162-.064.202-.1-.1-.112-.257-.282-.174-.184-.048-.364.228-.52.36.105-.02.1.054.074.1-.087.04-.183-.052-.23.024l-.07-.15c.092.13-.166.25-.175.322-.094-.093.098-.15.086-.246l-.518.22c-.146.186.087.133.045.302-.156.094-.3.252-.515.224l.107.118c-.287.22-.497.245-.752.17-.534.44-.863.734-1.014.97s-.113.4-.006.5c.118.112.325.17.505.202s.326.027.326.027c1.204.066 1.648-.53 2.77-1.102zM3.763 46.12l.087-.03c-.025-.013-.055-.01-.087.03zm7.702-16.122c-.002-.007-.002-.014-.005-.02-.001.013.001.018.005.02zM6.854 44.63l-.002.003.005.023-.003-.026z"/><path d="M4.975 47.794c.542-.808.914-.898 1.28-1.84.243-.412.417-.894.595-1.324-.096-.295.27-.546.22-.86l.157-.035c-.017-.108-.01-.22.1-.272l.03.02c-.026-.162.1-.272.077-.352l.03.02.057-.153.035.048a1.11 1.11 0 0 1 .243-.641l-.144-.05c.347-.333.137-.617.492-.896l.03.02c-.14-.635.594-.614.48-1.253.014.08.082.008.113.03.065-.237.156-.48-.1-.612.08-.158.146-.1.26-.06-.118-.055-.1-.217-.048-.345l.018.08.13-.375-.255-.036c.154-.158.293.082.326-.125l-.184-.086c.163-.244.512-.262.77-.45.597-1.02.654-2.395 1.432-3.232l.16.02c.212.074-.176-.4.03-.363l-.04-.158c.05-.016.12-.066.14.012.056-.103.024-.12-.002-.226l.178-.057c.3-.376.207-.845.457-1.264.5-.415.715-1.52.84-2.156.068-.947 1.307-1.504 1.35-2.48.04-.013.01-.112-.013-.123l.388-.73s.457-.9.554-1.536-.184-1.08-1.707-.115l-.034-.04c-.312.36-.463.608-.38 1-.292-.086-.194.325-.327.38l-.018-.02c.088.352-.423.437-.352.77-.017-.02-.1-.06-.067-.118-.05.194-.104.466-.268.404-.16.444-.5 1.004-.38 1.394l-.035-.04c.1.234-.067.213-.06.426-.025 0-.04.007-.05.001.1.247-.2.506-.2.676l-.1-.04-.13.348.08-.116c.27.176-.298.172-.22.502-.14.212.393.738.143.9.085.175-.176-.2-.148.017-.154-.063-.06-.122-.2-.133-.004.2-.278.202-.27.454l-.122-.045c.094.365-.384.434-.26.705-.028.32-.434.025-.334.417l-.2.04c-.082.1.156.177.016.277-.097-.054-.158.135-.218.012-.297.235-.062.725-.513 1.006.155.177-.055.327.06.46-.1-.03-.202.4-.28.086-.006-.026.013-.06.045-.042l-.103-.08c-.325.127-.073.472-.213.682.07-.048.1-.143.152-.046l-.114.2-.077-.1-.2.28.14.015c-.134.123-.36.077-.273.33.057.124.232-.067.2.112-.18.166-.453.4-.616.657.147.04.107.1.1.195l-.12-.048c.028.358-.307-.02-.3.318l-.07-.064.2.2c.112.36-.307.02-.124.448.033-.12.283.072.167.182l-.097-.088c-.012.086.023.134-.024.172-.04-.074-.153-.102-.186.017l-.106-.14.1.307c-.198.102-.167.43-.357.42 0 0-.242.307-.105.47-.075-.12-.207.05-.3-.065.08.148.055.458-.126.5l-.005-.027c-.32.326-.135.752-.465 1.022.143.05-.02.197.176.236-.003.443-.67.483-.198.873-.05.177-.22.132-.288.203v-.053a2.729 2.729 0 0 1-.27.636c-.004.14.234.28.073.452-.065-.114-.1-.023-.127.052.01-.056-.02-.1-.135-.023.023.03.03.06.036.088-.008-.003-.016-.002-.026-.01-.03.143.013.137.056.085.014.01.035.015.07.01-.192.067-.176.368-.352.297-.154.396-.12.754-.222 1.1-.104-.01-.142-.124-.127-.23l-.085.237c-.122-.068-.004-.164.007-.245-.336.156-.1.645-.437.853l.062.116-.027.01c.052.027.083.134.075.188-.13-.016-.244-.14-.32.015-.17.06-.135.367-.168.552.065-.073.1-.013.125.044-.04.077-.17.06-.157.142l-.146-.075c.15.048.033.277.075.34-.13-.02-.024-.168-.092-.233l-.118.228-.133.268c.022.224.153.042.24.2-.048.16-.02.355-.196.47l.156.018c-.046.322-.155.476-.386.57l-.078.786a1.23 1.23 0 0 1-.095.277c-.035.067-.048.1-.034.12.02.022.044.054.052.118a.59.59 0 0 0 .054.142.5.5 0 0 0 .173.187c.04.075.06.15.174.153s.256-.05.37-.1c.058-.03.133-.084.18-.118l.12-.092.095-.08c.533-.437.663-.766.792-1.155l.152-.594.03-.134.001-.014v-.002l-.13-.078-.165-.1.293.173v.008l.001-.003.004-.01.007-.02.03-.086.147-.366zM18.06 22.64l.1.014c-.015-.025-.044-.036-.1-.014zm18.256-10.3c.003-.007.01-.013.01-.02-.01.01-.01.016-.01.02zM21.87 22.828l-.004.002-.01.024.015-.026z"/><path d="M18.054 24.77c1.03-.463 1.43-.36 2.4-1.032.495-.253.973-.605 1.422-.906.1-.32.6-.36.776-.672l.163.05c.056-.106.14-.205.262-.2l.013.035c.084-.16.266-.196.308-.275l.013.035.155-.106-.002.06a1.48 1.48 0 0 1 .658-.443l-.093-.12c.54-.1.55-.477 1.06-.536l.013.035c.32-.64.955-.23 1.303-.86-.043.08.067.052.08.087.225-.177.477-.346.335-.607.182-.098.192-.002.272.085-.065-.113.065-.248.2-.335l-.04.08.38-.266-.2-.17c.248-.06.2.23.376.063l-.102-.176c.315-.132.638.04.997.008 1.227-.595 2.252-1.773 3.527-2.084l.122.107c.128.184.147-.463.287-.305l.08-.162c.055.015.15.01.1.1.123-.06.108-.093.162-.2l.193.05c.52-.168.786-.637 1.312-.858.735-.073 1.744-.9 2.324-1.392.76-.785 2.245-.574 3.003-1.413.046.01.1-.094.078-.116l.874-.433s4.204-2.157.164-2.1l-.002-.054c-.526.148-.834.283-1.042.673-.193-.237-.4.18-.557.153v-.027c-.177.357-.68.147-.86.478-.001-.027-.034-.102.027-.14-.183.14-.427.348-.525.202-.46.298-1.168.587-1.345.998l-.002-.054c-.087.26-.214.146-.365.336-.02-.014-.04-.017-.043-.027-.103.266-.544.325-.662.478l-.066-.1-.368.228.154-.054c.1.308-.383-.022-.56.308-.277.103-.2.866-.554.872-.058.2-.002-.274-.14-.07-.085-.143.04-.14-.072-.23-.15.17-.4.013-.566.24l-.07-.1c-.187.378-.645.17-.737.48-.258.27-.4-.22-.6.184l-.208-.083c-.15.053.004.245-.2.256-.043-.102-.235.032-.195-.1-.428.044-.583.612-1.178.614.004.244-.286.262-.282.445-.057-.075-.466.247-.307-.077.014-.027.055-.046.07-.013l-.03-.13c-.375-.064-.407.383-.682.496.096-.006.192-.073.167.042l-.247.12L29 16l-.386.146.113.088c-.207.04-.378-.124-.482.152-.038.142.25.063.088.203-.276.052-.7.13-1.007.264.1.115.018.155-.05.228l-.073-.108c-.227.336-.255-.183-.497.12L26.7 17l.05.283c-.156.384-.284-.148-.425.335.113-.1.2.216.02.253l-.023-.13c-.07.07-.074.132-.143.142.017-.087-.063-.174-.176-.085L26 17.6l-.12.333c-.247-.014-.45.295-.612.184 0 0-.432.145-.426.364.02-.15-.22-.067-.227-.224-.034.175-.276.44-.467.382l.014-.027c-.515.122-.654.603-1.14.672.093.12-.157.168-.01.305-.314.396-.943.085-.792.683-.17.135-.3.008-.4.038l.028-.053c-.324.247-.418.3-.68.447-.098.125.02.375-.24.45.02-.138-.064-.066-.15-.016.046-.047.043-.092-.107-.1a.212.212 0 0 1-.027.1c-.005-.007-.013-.01-.017-.022-.123.116-.08.13-.007.106.005.017.02.032.057.046-.22-.037-.4.248-.52.095-.408.285-.62.63-.944.896-.088-.062-.046-.184.04-.276l-.238.174c-.066-.123.107-.152.172-.22-.413-.027-.516.548-.974.562l-.02.138-.03-.004c.03.05-.013.165-.057.2-.1-.08-.13-.248-.304-.146-.195-.028-.37.266-.524.42.1-.034.108.043.085.103-.087.05-.195-.03-.24.052l-.084-.14c.107.12-.156.27-.16.345-.106-.082.1-.164.07-.257l-.527.294c-.137.206.105.12.077.296-.156.112-.272.3-.513.305l.126.1c-.275.257-.478.335-.76.3-.483.546-.743.913-.84 1.175s-.022.4.115.494.353.095.532.088.316-.04.316-.04c1.157-.154 1.493-.788 2.578-1.48zm12.358 9.8l.087-.054c-.027-.01-.057.002-.087.054zm8.652-18.802c-.002-.008-.001-.016-.004-.023-.001.014.001.02.004.023zM33.5 32.407v.004l.006.025-.005-.03z"/><path d="M31.8 36.155c.452-.98.82-1.14 1.134-2.217.22-.485.384-1.033.556-1.527-.105-.315.27-.63.217-.974l.16-.054c-.018-.118-.01-.244.094-.3l.03.02c-.025-.177.096-.3.083-.398l.03.02.06-.175.035.05a1.41 1.41 0 0 1 .261-.734l-.146-.044c.365-.398.156-.7.532-1.038l.03.02c-.12-.7.633-.73.544-1.437.01.088.084.003.115.024.077-.27.184-.55-.084-.68.1-.183.154-.1.27-.086-.118-.054-.093-.237-.033-.384l.015.087.153-.43-.26-.023c.167-.2.297.072.342-.163l-.186-.084c.18-.286.54-.332.814-.56.325-.588.526-1.268.753-1.926.218-.65.466-1.273.9-1.75l.162.018c.2.077-.146-.453.06-.404l-.028-.175c.053-.02.13-.077.143.01.067-.116.036-.135.02-.252l.188-.067c.33-.425.294-.948.593-1.423.555-.472.9-1.73 1.072-2.458.145-1.067 1.463-1.8 1.524-2.95.043-.02.01-.13-.013-.14l.4-.904.226-.654c.106-.38.226-.852.228-1.24.008-.387-.075-.675-.335-.685-.266-.013-.686.262-1.4.928l-.038-.037c-.27.446-.415.732-.307 1.15-.297-.055-.184.38-.318.458l-.02-.02c.1.38-.42.524-.348.882-.017-.02-.1-.058-.068-.124-.05.217-.108.52-.276.466-.17.5-.552 1.135-.445 1.562l-.034-.042c.086.256-.083.24-.1.476-.026.001-.043.01-.05.003.077.272-.242.57-.247.76l-.1-.04-.162.392.092-.13c.262.2-.32.2-.273.566-.164.24.333.82.058 1.018.07.195-.16-.22-.153.02-.152-.068-.048-.136-.192-.146-.024.223-.306.23-.322.514l-.12-.05c.06.4-.44.494-.337.798-.06.36-.45.04-.384.478l-.22.05c-.094.128.143.196-.01.314-.095-.058-.176.158-.225.02-.33.277-.128.826-.615 1.17.147.193-.078.376.033.52-.1-.027-.233.467-.294.116-.005-.03.017-.07.05-.05l-.1-.085c-.343.17-.105.536-.26.782.074-.06.113-.167.16-.06l-.13.235-.074-.096-.226.333.143.007c-.145.148-.38.115-.302.395.052.135.24-.092.2.113-.194.2-.485.496-.663.783.15.035.105.115.093.2l-.122-.045c.012.4-.314-.003-.334.378l-.07-.067.206.2c.097.398-.317.042-.15.512.04-.136.287.06.163.194l-.095-.093c-.016.098.018.15-.033.195-.037-.08-.152-.104-.192.032l-.102-.15.097.338c-.2.13-.192.495-.387.497 0 0-.264.364-.13.537-.072-.13-.216.07-.315-.05.076.16.036.515-.152.577l-.004-.03c-.344.394-.17.863-.52 1.2.146.043-.027.226.173.25-.017.5-.702.617-.227 1-.056.206-.23.173-.3.26l-.008-.06c-.114.383-.154.5-.284.756-.005.158.24.288.074.503-.068-.122-.1-.015-.13.076.01-.065-.02-.1-.14-.008.024.03.032.064.038.095-.008-.002-.016 0-.026-.007-.028.167.014.154.058.1.014.01.036.013.073.003-.197.102-.176.442-.358.388-.153.473-.104.876-.193 1.283-.107.006-.15-.115-.14-.24l-.078.284c-.13-.055-.01-.185-.002-.28-.344.237-.058.75-.402 1.053l.072.12-.026.016c.055.02.095.134.1.197-.134.01-.26-.106-.326.086-.167.107-.108.446-.12.665.06-.098.1-.04.132.02-.032.096-.167.107-.146.2l-.157-.05c.158.017.064.306.115.365-.134.012-.044-.184-.12-.24l-.188.58c.042.245.16.016.26.162-.035.2.007.402-.157.576l.16-.017c-.01.375-.096.57-.315.75.14 1.45.493 1.697.794 1.595s.566-.553.566-.553c.63-.87.404-1.503.726-2.692zM42.27 20.35l.018.096c.018-.022.02-.053-.018-.096zm13.735 13.717c.008.001.015.004.022.003-.012-.006-.018-.006-.022-.003zM43.08 23.842l-.003-.003-.025-.003.028.006z"/><path d="M40.336 21.156c.725.73.745 1.116 1.596 1.722.352.348.778.654 1.144.96.317.005.462.45.792.5l-.01.164c.113.02.224.07.246.184l-.03.022c.17.032.246.184.33.2l-.03.022.136.1-.057.016c.246.102.433.276.56.466l.093-.12c.224.457.57.357.736.808l-.03.022c.67.108.42.804 1.087.943-.083-.017-.034.076-.064.098.214.156.425.34.64.134.13.14.042.176-.022.273.092-.092.247-.012.356.1l-.084-.014.33.275.118-.232c.107.212-.175.25.02.364l.144-.144c.2.253.097.598.2.92.812.965 2.123 1.584 2.677 2.68l-.075.143c-.146.17.463.005.345.18l.168.028c-.002.055.023.143-.06.13.08.097.1.074.222.093l-.006.194c.267.435.755.555 1.08.97.234.65 1.25 1.325 1.84 1.707.9.452 1.073 1.877 2.05 2.3.001.045.1.053.128.034l.627.655s.775.78 1.418 1.092 1.123.164.56-1.638l.05-.02c-.273-.422-.474-.656-.888-.714.17-.253-.268-.3-.282-.45l.025-.01c-.375-.045-.304-.568-.654-.623.025-.01.087-.063.138-.02-.176-.12-.428-.274-.315-.4-.386-.323-.823-.873-1.246-.907l.05-.018c-.262.001-.186-.15-.398-.23.01-.024.007-.043.015-.048-.273-.012-.43-.395-.6-.455l.076-.088-.297-.267.086.124c-.264.186-.067-.355-.416-.418-.16-.222-.858.068-.94-.243-.2.007.256-.084.035-.148.115-.12.14-.005.2-.134-.193-.087-.102-.35-.35-.447l.086-.097c-.4-.063-.3-.548-.6-.544-.303-.162.126-.424-.292-.494l.035-.217c-.08-.125-.227.073-.278-.1.087-.07-.078-.208.064-.212-.128-.383-.7-.366-.812-.915-.227.073-.303-.2-.474-.135.06-.074-.326-.36.01-.305.028.005.055.037.026.06l.114-.065c-.017-.365-.44-.27-.603-.5.025.087.108.157-.005.166l-.162-.194.114-.037-.216-.315-.06.13c-.08-.18.038-.383-.242-.402-.14.005-.007.25-.173.14-.106-.24-.263-.6-.455-.854-.087.125-.142.06-.225.02l.086-.098c-.362-.114.12-.287-.215-.425l.085-.042-.255.126c-.393-.035.08-.304-.403-.297.108.08-.16.244-.234.1l.118-.058c-.082-.045-.14-.03-.164-.1.086-.01.15-.107.042-.186l.174-.047-.34-.017c-.04-.23-.373-.33-.303-.5 0 0-.23-.356-.434-.287.144-.026.015-.22.16-.273-.172.02-.475-.126-.463-.32l.03.005c-.227-.438-.712-.424-.887-.848-.092.12-.193-.094-.3.082-.443-.172-.294-.836-.822-.518-.164-.114-.07-.262-.123-.354l.056.01a3.31 3.31 0 0 1-.57-.492c-.14-.055-.347.127-.476-.093.133-.023.05-.08-.02-.144.055.03.097.013.06-.125a.181.181 0 0 1-.1.004c.005-.007.006-.015.016-.022-.14-.08-.144-.036-.102.024-.014.01-.025.03-.03.067-.02-.216-.334-.304-.22-.454-.374-.3-.753-.367-1.1-.57.032-.102.157-.106.266-.06l-.23-.157c.095-.103.17.045.253.08-.095-.388-.654-.28-.804-.685l-.132.03-.005-.03c-.038.045-.154.048-.2.026.04-.127.187-.2.04-.327-.036-.187-.357-.233-.547-.3.066.084-.004.113-.066.116-.074-.06-.034-.186-.123-.194l.1-.13c-.074.14-.294-.035-.364-.008.04-.126.178.017.256-.037l-.437-.353c-.232-.04-.076.14-.243.185-.154-.093-.358-.123-.443-.33l-.05.15c-.322-.14-.46-.285-.522-.546-1.307-.412-1.688-.25-1.742.07s.243.747.243.747c.52.94 1.2.97 2.155 1.657zm19.36 18.388h0zm.58-.546l.001-.001-.001.001zm-1.876 1.87l-.002-.002.002.002z"/><path d="M58.276 38.64c-.194.24-.33.414-.434.623a.92.92 0 0 0 .006.812c.074.356.336.616.552.8.124-.03.18.016.244.073s.127.112.22.06l-.03.128c.068-.033.127-.048.128.03l-.02.03c.103-.05.106.012.15-.018l-.018.032.054.01-.03.043c.117-.057.17-.032.237.04l.05-.143c.106.216.243-.06.357.167l-.01.035c.144-.172.2-.093.294-.017.083.078.196.157.315-.047-.028.05.02.076.022.113.12-.05.25-.108.177-.397.076-.015.087.073.13.18-.036-.126.014-.192.067-.226l-.01.058.147-.115-.14-.205c.104.027.16.26.206.162l-.104-.175c.1-.023.355.187.563.196.25-.176.323-.5.338-.726.02-.247.026-.435.225-.612h.154c.226.01-.32-.14-.114-.14l-.1-.05c.04-.01.084-.04.133-.014.01-.044-.026-.046-.094-.076l.137-.05c.1-.192-.183-.3-.176-.5.1-.146.054-.336-.084-.5a1.17 1.17 0 0 0-.519-.315c-.27-.017-.362-.245-.594-.447-.212-.2-.53-.327-.708-.1-.018-.03-.04.047-.034.072a1.93 1.93 0 0 0-.334.057s-.103.026-.192.095a.471.471 0 0 0-.215.312c-.025.14.018.304.172.505.148.206.422.435.728.795l.02.044c.103.083.12.1.062-.137.097.286.04.014.07.1l.006.024c-.023-.112-.003-.067.007-.018.002.006.007.038.005.02l-.004-.03-.006-.05a.33.33 0 0 0 .002.02c-.007-.05.003-.126 0-.116.007-.1.027-.1.013-.093h0c.001-.003-.01.02-.022.03h-.002c-.007.007-.02.018-.016.02-.004.006-.018.017.015-.007l-.08.063.032-.018c.27-.168-.166.106.016.014-.036.01.63-.206.504-.1.15-.023-.238.054-.12.048-.16.046-.103.018-.23.06.08.002-.158.073-.043.068l-.127.026c.236-.006-.16.068.063.064.107.03-.382.03-.13.053l-.176.005c-.03.006.214.016.13.024-.1-.008-.087.006-.192-.008-.173-.015.235.082-.054.036.206.062.08.033.23.1-.1-.028-.02.014-.206-.068-.015-.007-.013-.006.02.007l-.1-.04c.047.02.1.035.14.064-.013-.006-.05-.028.038.02l-.024-.012a.55.55 0 0 1 .064.039l-.01-.006.067.048c.013.01-.024-.02.003.002.037.033.07.06.1.1l.006.007.013.02v-.012c-.003-.01-.004-.012-.005-.022l.001.007-.003-.017a.38.38 0 0 1-.01-.09c.002.013-.003-.093.002-.117l.002-.02.024-.162-.001.008a.884.884 0 0 1 .026-.107c.004-.005-.005.03-.016.046-.02.04-.045.077-.02-.008-.054.14-.035.062-.107.24-.13.145.1-.392-.197.13-.03.018.053-.132.065-.16l.018-.026c-.043.04-.033.014-.074.077l-.077.1c-.046.05-.086.087-.067.06l.065-.064-.01.01-.007.006-.036.03.03-.027-.03.022c-.03.024-.062.037-.062.037-.01.003-.01.006-.063.013l.045-.007-.002.001.002-.001.004.002-.023-.006.025.007h-.002l-.088-.104c-.018-.027-.065-.138-.003-.055l-.074-.126c-.02-.12.04-.12.1.02.002-.307.16-.55.248-.743s.1-.36.12-.5a.54.54 0 0 0-.36-.394c-.342-.15-.658-.034-.866.174-.216.207-.35.492-.5.813zm2.868 2.616l-.052.032a.161.161 0 0 0 .052-.032zm2.256 2.476zm-3.746-.972h0z"/><path d="M59.308 41.687c.016.177-.028.308-.046.426-.018.127-.01.23.114.342.05.13.18.224.278.304.214-.074.093.13.282.075l-.086.094c.064-.02.114-.024.073.035l-.03.02c.095-.03.073.032.12.016l-.03.02.037.02-.045.026c.114-.017.154.025.15.092l.115-.098c-.063.2.202.018.1.22l-.03.023c.378-.174-.08.323.284.16-.045.02-.053.057-.08.08.07.012.126.04.344-.16.023.032-.047.087-.127.17.095-.1.158-.1.185-.085l-.046.024.092.033.166-.18c-.02.082-.2.215-.136.206l.147-.14c.014.073-.182.313-.246.463.122.25.678.067.6.486l-.098.118c-.15.166.274-.196.14-.04l.1-.056c-.022.034-.04.077-.083.104.013.023.038-.003.097-.04l-.075.12c0 .148.244.007.283.117-.1.294.25.258.45.233.36-.125-.066.684.327.522-.016.028.043-.015.06-.035l.104.14a.34.34 0 0 0 .359.073c.208-.088.6-.33.974-1.247l.036-.033c.005-.155-.025-.218-.238-.08.192-.23-.04-.076.01-.164l.018-.017c-.197.134.037-.224-.142-.106.017-.016.073-.077.086-.073-.056.001-.14.015-.028-.118-.103-.03-.15-.18-.38-.01l.035-.033c-.15.117-.052-.01-.145.036l.026-.036c-.152.114-.102-.052-.178-.013l.076-.088-.074-.03.004.037c-.22.23.1-.187-.087-.07-.01-.064-.522.422-.457.27-.12.093.18-.164.075-.105.1-.124.083-.065.166-.17-.08.033.07-.166-.04-.114l.086-.097c-.204.134.033-.2-.15-.062-.118.037.232-.3.013-.167l.102-.145c0-.04-.16.143-.125.06.077-.08.033-.1.118-.154.07-.17-.27.084-.13-.188-.163.14-.106.02-.228.125.064-.07-.053-.073.124-.184.015-.01.018-.001-.008.024l.093-.087c.132-.206-.157.032-.165-.03-.02.04.002.046-.07.1l-.02-.044.082-.07-.004-.092-.087.1c.025-.072.176-.24.017-.132-.086.062-.105.148-.16.152.033-.095.085-.238.075-.305-.104.108-.1.093-.143.103l.092-.1c-.17.082.2-.213.05-.155l.07-.06-.2.177c-.223.138.177-.205-.12-.007.032.002-.2.203-.18.144l.097-.08c-.03.006-.072.038-.06.013.056-.04.137-.12.106-.123l.125-.095-.198.124c.077-.115-.084-.04.038-.17 0 0 .018-.1-.138.006.1-.07.108-.128.22-.213-.113.077-.233.1-.137-.001l.015-.008c.063-.153-.24.03-.145-.138-.115.097-.074.018-.218.145-.195.06.23-.34-.258 0-.046-.007.1-.115.104-.146l.03-.013c-.073-.018-.088-.03-.103-.073-.06.016-.288.17-.256.098.098-.05.072-.053.064-.065.02-.002.054-.022.106-.078a.43.43 0 0 1-.066.031l.022-.015c-.046.001-.072.023-.078.04-.014.01-.032.02-.055.04.105-.1-.048-.055.1-.157-.07-.033-.268.02-.358.002a.605.605 0 0 1 .205-.084l-.05-.017c.124-.064.08-.018.1-.022.183-.14-.246.02-.074-.1l-.105.035.016-.01a.626.626 0 0 1-.152.043c.1-.052.26-.105.244-.122.107-.053-.065-.014-.136-.017a.34.34 0 0 1-.124.04c-.007-.01.106-.05.055-.04l.16-.043c-.15.044-.165.023-.23.033.118-.03.105-.01.194-.03l-.032-.033c-.124-.003-.153.027-.296.036-.034-.018-.15-.035-.054-.07l-.144.02c-.113-.046-.1-.1.06-.12l-.674-.296a1.67 1.67 0 0 0-.496-.111c-.137.002-.244.042-.316.084s-.1.084-.1.084a.33.33 0 0 0-.084.468c.046.073.104.14.166.216l.186.263zm2.982-1.4l-.037.05c.02-.02.036-.038.037-.05zm2.347 2.035zm-3.45-.258h0z"/><path d="M60.77 41.4c.1.217-.078.448.153.522.053.085.173.113.262.15.184-.13.1.08.252-.02l-.07.104c.056-.034.1-.052.066.01l-.025.026c.083-.052.066.01.107-.017l-.026.026.034.01-.04.035c.1-.044.138-.018.137.043l.1-.114c-.05.182.182-.03.105.17l-.025.025c.336-.235-.066.304.258.085-.04.028-.047.062-.072.1.062-.003.114.012.3-.212.022.024-.04.088-.113.177.085-.1.142-.12.166-.1l-.042.03.084.014.15-.195c-.017.078-.188.233-.12.212l.132-.155c.014.065-.163.32-.22.467.108.206.616-.044.537.357l-.092.123c-.14.174.254-.22.127-.055l.083-.064c-.02.035-.038.076-.08.107.01.02.035-.008.1-.05l-.072.12c-.005.136.22-.024.253.073-.1.285.216.2.4.166.337-.153-.1.643.266.453-.017.027.04-.018.056-.037l.085.116s.1.125.32.035c.197-.1.585-.343.988-1.234l.036-.033c.013-.148-.014-.207-.22-.062.2-.232-.033-.07.016-.157l.017-.017c-.2.14.044-.215-.13-.092.017-.017.07-.08.083-.075-.053.005-.133.024-.022-.1-.096-.022-.135-.16-.356.018l.034-.035c-.145.124-.05-.004-.137.047l.025-.036c-.145.12-.094-.04-.166.003l.073-.1-.07-.022.003.035c-.2.24.1-.186-.08-.058-.01-.06-.495.45-.43.3-.113.1.17-.174.07-.107.106-.128.08-.07.157-.178-.076.04.067-.165-.035-.104l.083-.1c-.192.148.033-.194-.138-.044-.1.047.22-.318.013-.16l.096-.148c0-.037-.15.154-.117.072.072-.084.03-.1.1-.16.065-.17-.25.1-.124-.165-.15.153-.1.03-.213.145.06-.073-.05-.063.114-.2.014-.01.017-.003-.007.024l.086-.094c.12-.213-.148.05-.157-.008-.017.04.003.043-.062.103l-.02-.04.076-.076-.006-.087-.08.107c.02-.07.16-.25.012-.128-.08.07-.094.154-.145.166.028-.095.07-.237.058-.3-.094.117-.1.103-.13.117l.083-.1c-.158.102.17-.23.037-.155l.063-.065-.188.196c-.204.163.156-.22-.114.01.03-.003-.18.223-.162.163l.087-.1c-.028.01-.066.047-.056.02.05-.045.123-.135.093-.132l.113-.1-.18.148c.065-.12-.083-.027.024-.168 0 0 .008-.108-.13.027.1-.08.092-.14.193-.238-.102.1-.214.14-.133.02l.014-.01c.044-.16-.23.067-.157-.1-.1.114-.07.03-.192.178-.18.094.174-.37-.248.05-.044.002.068-.127.077-.16l.027-.018c-.075-.004-.1-.01-.113-.05-.055.028-.248.225-.23.15.085-.07.06-.067.05-.077.02-.006.048-.033.086-.1a.423.423 0 0 1-.058.045l.02-.02c-.044.01-.065.04-.067.057a.603.603 0 0 0-.045.052c.08-.12-.057-.04.074-.178-.08-.017-.254.085-.347.093a.556.556 0 0 1 .175-.137l-.053-.004c.1-.097.074-.04.102-.05.13-.2-.233.084-.117-.097l-.1.067.01-.015a.59.59 0 0 1-.13.091c.085-.087.208-.188.185-.202.073-.094-.08-.002-.148.02-.007.024-.06.064-.097.087-.012-.007.077-.1.03-.065l.126-.106c-.116.102-.15.082-.204.12.1-.08.092-.052.165-.108l-.058-.037c-.114.055-.12.097-.243.174-.04.001-.145.048-.08-.03l-.116.088c-.122.025-.123-.017-.006-.107-.303.062-.546.074-.745.114a1.94 1.94 0 0 0-.482.157c-.242.13-.283.32-.283.32-.04.108-.05.178-.005.262.04.078.107.137.17.16.137.062.308.062.435.125zm1.593-2.3l-.017.06c.014-.024.023-.047.017-.06z"/><path d="M65.708 41.142zm-3.858-.002h-.001l-.01.01z"/><path d="M61.264 40.6c.14.165.045.437.284.443.075.07.2.067.3.087.15-.167.112.062.252-.07l-.045.118c.048-.045.1-.07.07-.003l-.02.03c.072-.067.07-.003.107-.036l-.02.03.037.003-.03.042c.093-.06.14-.042.154.02l.074-.132c-.005.194.186-.058.157.158l-.02.03c.297-.287.006.32.296.053-.036.033-.035.07-.055.1.066-.01.124-.001.28-.255.03.023-.022.095-.078.196.068-.1.123-.14.152-.132l-.038.036.094.006.114-.218c.001.084-.147.26-.08.233l.106-.174c.032.067-.1.347-.13.506.16.2.662-.094.658.33l-.075.134c-.12.2.233-.242.127-.065l.078-.07c-.016.037-.026.082-.065.116.015.02.036-.01.088-.056l-.055.13c.02.142.236-.036.3.066-.06.3.27.213.466.167.35-.163-.01.68.364.483-.015.03.04-.018.056-.04l.114.128s.145.142.376.06.568-.378.883-1.313l.034-.035c-.006-.158-.043-.22-.25-.07.176-.243-.048-.076-.008-.168l.017-.018c-.2.145.013-.232-.16-.105.016-.018.067-.083.08-.078-.058.003-.147.02-.045-.12-.112-.026-.185-.18-.402.007l.032-.037c-.14.13-.057-.006-.147.047l.022-.04c-.142.128-.115-.046-.188-.001l.065-.096-.083-.026.01.038c-.2.256.064-.2-.103-.064-.024-.065-.468.483-.426.322-.106.108.156-.187.058-.115.093-.138.074-.076.14-.2-.077.043.04-.178-.063-.113l.07-.1c-.185.16-.007-.2-.17-.046-.115.052.175-.345-.023-.172l.074-.16c-.01-.04-.136.168-.117.078.062-.1.013-.097.087-.174.03-.187-.262.122-.187-.177-.134.17-.107.035-.207.162.048-.08-.076-.067.08-.208.013-.01.018-.004-.002.026l.074-.104c.08-.233-.158.056-.185-.005-.01.045.016.047-.043.113l-.034-.042.066-.085-.03-.1-.062.118c.004-.078.113-.276-.023-.14-.072.08-.064.17-.12.185.005-.103.013-.26-.02-.327-.073.13-.085.117-.116.133l.066-.112c-.153.118.128-.256-.005-.17l.053-.074-.157.222c-.186.187.112-.247-.13.017.034-.005-.138.25-.137.185l.072-.103c-.03.013-.062.055-.058.026.044-.052.1-.153.065-.148l.097-.125-.163.17c.036-.135-.104-.023-.026-.182 0 0-.027-.117-.143.04.076-.094.06-.157.144-.27-.1.105-.2.168-.15.03l.013-.012c-.006-.176-.243.1-.224-.107-.073.132-.07.038-.16.2-.172.12.06-.42-.268.078-.05.008.03-.144.028-.18l.024-.022c-.1.004-.1-.002-.15-.04-.053.036-.196.273-.205.2.07-.087.042-.08.025-.1.02-.01.042-.042.06-.118-.02.028-.035.043-.048.056l.013-.024c-.046.018-.06.05-.054.07a.238.238 0 0 0-.03.062c.044-.14-.08-.036.01-.2-.102-.01-.257.127-.36.152a.41.41 0 0 1 .138-.175l-.065.003c.07-.12.067-.054.096-.07.057-.228-.228.128-.2-.1l-.07.088.005-.018a.44.44 0 0 1-.103.122c.052-.1.14-.242.105-.255.033-.116-.103.01-.17.046.008.028-.032.083-.06.116-.018-.006.033-.116-.005-.078l.08-.143c-.07.138-.126.12-.165.175.052-.1.078-.076.127-.153l-.1-.036c-.097.087-.072.138-.16.253-.047.01-.134.092-.12-.014l-.062.132c-.114.065-.14.03-.105-.12-1.025.777-.905 1.35-.905 1.35.01.378.3.06.568.08z"/></svg>