<svg xmlns="http://www.w3.org/2000/svg" width="67.568" height="73.649" opacity=".5" fill="none" stroke="#0371b8" stroke-linejoin="round" xmlns:v="https://vecta.io/nano"><circle cx="21.564" cy="23.1" r="1.629"/><circle cx="27.598" cy="17.371" r="1.629"/><circle cx="46.63" cy="24.73" r="1.629"/><g stroke-miterlimit="10"><path d="M29.366 32.47l-8.638-.073c-.777-.007-1.4-.64-1.394-1.418l.003-.356c.007-.777.64-1.4 1.418-1.394l8.638.073c.777.007 1.4.64 1.394 1.418l-.003.356a1.41 1.41 0 0 1-1.418 1.394z"/><path d="M28.873 42.28v-9.813H21.25v9.813l-3.992 14.5a3.69 3.69 0 0 0 3.688 3.688h8.232a3.69 3.69 0 0 0 3.688-3.688l-3.992-14.5z"/><path d="M19.448 48.82s2.27-1.456 5.612.292 5.398-1.072 5.398-1.072" stroke-linecap="round"/><path d="M48.95 32.47l-8.638-.073c-.777-.007-1.4-.64-1.394-1.418l.003-.356c.007-.777.642-1.4 1.418-1.394l8.638.073c.777.007 1.4.64 1.394 1.418l-.003.356c-.007.776-.64 1.4-1.418 1.394z"/><path d="M40.83 56.76c0 2.105 1.707 3.812 3.812 3.812s3.812-1.707 3.812-3.812V32.467H40.83V56.76z"/><path d="M40.83 48.3c.976-.118 2.326-.013 3.92.82 1.53.8 2.788.644 3.705.24" stroke-linecap="round"/></g></svg>