<svg xmlns="http://www.w3.org/2000/svg" width="67.568" height="73.649" opacity=".5" fill="none" stroke="#0371b8" stroke-linejoin="round" stroke-miterlimit="10" xmlns:v="https://vecta.io/nano"><path d="M56.282 31.353a.42.42 0 0 0-.198-.38c-7.895-5.198-15.845-10.55-24.105-15.15-.324-.18-.6.2-.417.463-3.75 5.8-6.733 12.244-10.02 18.32l-9.866 18.416c-.2.38.354.708.574.336.01-.016.018-.032.028-.047-.036.15.07.324.262.27 3.62-1.046 7.072-3.225 10.447-4.888L56.5 32.18c.442-.218.185-.8-.22-.827zM34.15 42.186L23.426 47.47c-3.625 1.786-7.796 3.3-11.055 5.703-.01.008-.018.02-.027.03l2.128-3.708.574.287c.02.03.044.056.083.073l.755.33c.297.13.557-.308.257-.44-.02-.01-.04-.017-.06-.026h-.001c-.465-.203-.935-.394-1.406-.583l.67-1.213.443.144c.005.07.05.143.14.154l.695.086c.204.025.2-.27.045-.334-.375-.143-.758-.263-1.142-.38l.906-1.66c.852.346 1.708.755 2.587 1.02.258.078.444-.332.188-.445-.83-.367-1.73-.618-2.595-.904l.846-1.568c.52.2 1.048.447 1.592.56.174.036.304-.213.127-.302-.488-.247-1.033-.393-1.563-.548l1.165-2.166c.972.388 1.943.787 2.93 1.132.308.108.43-.37.133-.484-.946-.365-1.912-.68-2.874-1.003l.816-1.513c.263.1.524.225.8.326.13.05.26.098.394.134.02.005.06.013.104.02.116.048.238.1.347.07.143-.023.147-.2.076-.3-.138-.172-.42-.2-.616-.27-.3-.096-.612-.213-.916-.327l.928-1.72c.87.405 1.75.804 2.644 1.146.218.083.377-.287.16-.38-.872-.374-1.773-.7-2.67-1.012l.818-1.518c.198.088.4.17.606.242l.84.265c.292.088.418-.37.126-.456l-.8-.22a7.33 7.33 0 0 0-.619-.129l.295-.547.648-1.173 2.34 1.08c.246.108.462-.25.214-.366-.785-.36-1.58-.698-2.372-1.042l.817-1.457c.006.023.02.044.047.056.5.253 1.012.527 1.536.75.22.094.413-.23.2-.326-.537-.232-1.097-.413-1.647-.613-.02-.007-.037-.001-.054.004l.813-1.436c.847.305 1.67.65 2.468 1.075.275.146.52-.27.244-.418a12.54 12.54 0 0 0-2.513-1.01l.826-1.453c.53.238 1.06.48 1.6.667.2.072.306-.228.14-.334-.01-.01-.024-.015-.037-.02l-.026-.01c-.498-.223-1.013-.405-1.528-.586l.983-1.74c.923.303 1.75.733 2.57 1.272.263.173.494-.24.244-.418-.785-.558-1.696-.938-2.63-1.182l.744-1.343c.34.094.65.224.947.386.012.013.023.026.04.037l.753.458c.2.115.374-.143.23-.3-.458-.495-1.123-.786-1.8-.905l.956-1.76c.845.437 1.698.893 2.58 1.234.247.095.402-.296.178-.423-.813-.457-1.697-.817-2.56-1.185l.695-1.325c.722.24 1.4.533 2.08.88.26.13.48-.236.23-.393-.63-.397-1.388-.676-2.132-.833l.752-1.504c.882.557 1.793 1.153 2.735 1.593.28.13.514-.25.246-.42-.882-.565-1.88-1.02-2.83-1.472l1.118-2.375c7.6 5.2 15.574 9.983 23.35 14.945L34.15 42.186zM47.5 31c-4.038-2.555-8.543-4.94-13.034-6.585-.157-.057-.28.043-.326.174-.013.017-.028.027-.04.047l-5.023 9.004c-1.714 2.9-3.944 5.757-5.284 8.85-.085.196.1.423.292.33.07.052.155.077.254.04 7.72-2.847 16.363-5.784 22.907-10.903.094-.073.132-.168.132-.264.293-.066.45-.486.122-.693zM29.57 34.5c1.804-3.043 3.557-6.128 5.16-9.282 3.867 2.17 7.897 4.192 11.853 6.2C39.755 35.864 32.248 38.53 24.9 41.92c1.827-2.232 3.232-5 4.68-7.43zm18.492-5.103c-1.307-.806-2.712-1.524-4.08-2.22-.175-.1-.323.16-.154.264l4.017 2.33c.247.126.457-.228.218-.375zm1.8-.43c-1.08-.815-2.383-1.375-3.65-1.833-.23-.083-.318.273-.1.36 1.26.5 2.36 1.18 3.52 1.863.258.15.454-.22.228-.4zm-22.04 13.706c-1.45.324-2.93 1.092-4.293 1.685-.176.077-.05.375.132.312 1.402-.484 3.015-.92 4.302-1.662.184-.106.058-.38-.14-.335zm1.17.548l-3.88 1.594c-.158.067-.045.337.118.28l3.887-1.42c.274-.112.162-.56-.125-.453z"/></svg>