<svg xmlns="http://www.w3.org/2000/svg" width="67.568" height="73.649" opacity=".5" fill="none" stroke="#0371b8" stroke-linejoin="round" xmlns:v="https://vecta.io/nano"><path d="M39.826 55.536L28.403 55.4l.02-1.748c.01-.78.65-1.405 1.43-1.396l8.597.102c.78.01 1.405.65 1.396 1.43l-.02 1.748z" stroke-miterlimit="10"/><circle cx="34.161" cy="33.007" r="11.412"/><g stroke-miterlimit="10"><path d="M36.944 44.074L31.378 21.94l-.712-2.696c-7.606 1.913-12.22 9.63-10.308 17.235s9.63 12.22 17.235 10.308l-.68-2.704" stroke-linecap="round"/><path d="M25.07 26.1a11.36 11.36 0 0 0 13.836-3.479 11.36 11.36 0 0 0-7.53-.692 11.32 11.32 0 0 0-6.306 4.17zm4.345 17.272a11.36 11.36 0 0 0 13.836-3.479 11.36 11.36 0 0 0-13.836 3.478z"/></g><ellipse transform="matrix(.9698 -.2439 .2439 .9698 -7.0187 9.3286)" cx="34.161" cy="33.007" rx="5.706" ry="11.412"/><path d="M23.094 35.8l22.134-5.567M34.113 47.218l-.017 5.055m-7.1 3.257l14.593.05" stroke-miterlimit="10" stroke-linecap="round"/></svg>