<svg xmlns="http://www.w3.org/2000/svg" viewBox="0 0 67.568 73.649" fill="none" opacity=".5" stroke="#0371b8" stroke-linejoin="round" stroke-miterlimit="10" stroke-width=".75" xmlns:v="https://vecta.io/nano"><path d="M48.4 24.537l.332-1.94a.33.33 0 0 0-.196-.384.31.31 0 0 0-.131-.318c-3.065-2.277-6.66-3.7-10.48-3.976-1.773-.133-3.564-.036-5.306.322-1.07.22-2.4.254-2.625 1.45-.02.108.104.164.186.113 2.534-1.555 6.547-1.42 9.365-.952 3 .496 5.744 1.696 8.2 3.47-2.72 1.652-5.785 1.417-8.844.96-3.264-.487-6.24-1.3-8.96-3.222.02-.26-.4-.403-.476-.128a31.2 31.2 0 0 0-.33 1.154c-.94-1.775-4.245-2.054-5.924-1.7-2.683.582-4.676 2.778-5.294 5.414-1.55 6.604 5.268 11.097 11.144 9.617.828 2.326 2.284 4.278 4.627 5.405-.74 1.46-1.67 2.763-3.004 3.746-.045.033-.093.062-.14.094-2.64-.576-7.36.237-6.708 3.954-.452 2.03-.832 4.1-.985 6.165-.086 1.16-.088 2.222.83 3.046 1.07.96 2.887 1.36 4.222 1.758 2.023.603 4.1.987 6.217 1.144 2.835.2 7.148.525 9.623-1.166 2.62-1.8 1.957-7.14 1.587-9.813a.36.36 0 0 0-.129-.232c.018-2.343-3.217-3.538-5.337-3.9-.07-.012-.13 0-.184.02a5.63 5.63 0 0 1-.654-4.106c1.904-.387 3.694-1.394 5.03-2.805.02.043.047.085.087.122 4.326 4.076 12.15-.165 13.227-5.35 1.1-5.23-3.9-10.366-8.96-7.982zm-.308 2.03c.047.095.13.168.256.174 1.414.06 2.72.362 3.935 1.118 1.88 1.17 2.058 3.548 1.162 5.44-1.458 3.078-5 3.7-7.84 2.274 1.438-2.634 2.012-5.9 2.486-9.006zm-19.6 5.758c-.02-.008-.04-.02-.066-.023-3.26-.498-7.176-1.52-7.273-5.553-.098-4.075 4.678-6 7.413-3.004-.47 2.756-.6 5.815-.074 8.58zM18.5 26.17c.143-2.362 1.513-4.654 3.713-5.633 1.935-.86 5.682-.838 6.7 1.464a31.59 31.59 0 0 0-.179.838c-2.53-2.665-7.04-1.284-8.134 2.228-.57 1.832-.074 3.827 1.15 5.283 1.66 1.978 4.15 2.36 6.596 2.476.104.005.18-.04.232-.106.073.33.152.66.246.98-4.9 1.242-10.66-1.972-10.324-7.53zm26.234 23.964c.314 2.95.36 7.075-2.454 8.26-2.6 1.1-6.528.784-9.212.484-2.566-.287-6.253-.73-8.4-2.278-1.93-1.398-1.1-5.34-.56-8.075 1.376 2.974 6.644 3.753 9.333 4.023 3.113.314 9.416.924 11.28-2.413zm-1.48-3.627c2.546 1.946.153 4.52-2.034 5.018-2.458.56-5.163.566-7.658.33-2.314-.22-4.747-.717-6.807-1.835-2.077-1.128-3.044-3.405-.922-5.08 1.164-.92 2.612-.907 4.026-.83a10.39 10.39 0 0 1-1.287.61c-.37.145-.6.17-.798.526a.31.31 0 0 0 .014.3c-1.546 2.57 5.44 3.505 6.756 3.727 1.933.327 8.286 1.765 8.262-1.7-.001-.184-.133-.265-.275-.264.1-.168.064-.384-.165-.466-.846-.3-1.553-.797-2.106-1.417 1.047.184 2.15.418 2.994 1.064zm-1.093 1.318c-.45 3.16-14.242.223-13.994-2.027 4.045 2.7 9.35 3.214 13.994 2.027zm-.714-.576c-4.542.883-8.64.134-12.864-1.704a.38.38 0 0 0 .02-.115c.608-.17 1.42-.566 1.544-.635.646-.362 1.24-.796 1.78-1.3 1.03-.96 1.794-2.126 2.22-3.46.358.15.73.286 1.126.397 1.052.295 2.14.35 3.202.2-.776 2.603.593 5.414 2.97 6.6zm-6-7.55c-3.572-.996-5.764-4.522-6.423-7.994-.72-3.793.272-7.373.83-11.08 2.57 2.35 6.228 3.018 9.573 3.492 2.822.4 5.927.598 8.408-.96-.652 3.62-1.064 7.57-2.435 10.96-1.574 3.892-5.652 6.78-9.953 5.58zm20.993-6.78c-1.314 4.377-8.02 7.808-11.82 4.36-.035-.032-.07-.048-.107-.064.053-.065.1-.125.16-.192a10.7 10.7 0 0 0 .654-.971c3.25 2.147 7.693.753 9.045-2.975.563-1.552.88-3.412-.248-4.747-1.38-1.635-3.707-2.315-5.76-2.326-.084 0-.147.034-.2.08l.145-.956c5.024-1.565 9.72 2.484 8.13 7.8zM38 36.388c.02-.035.036-.078.043-.13.415-3.08 1.075-6.4 1.104-9.5 0-.02-.013-.033-.02-.05.4.027.5-.585.112-.6-.896-.054-1.748-.256-2.605-.514-.232-.07-.406.15-.343.323-.345.377-.62.792-1.03 1.124-.445.362-.942.595-1.462.826-.1.048-.13.18-.085.268-.1.053-.182.192-.084.305l.595.65c.187.2.37.453.6.6.168.108.365.017.412-.135.364-.036.72-.148 1.034-.33l-1.37 6.828c-.062.203.018.417.248.458l2.6.456c.35.06.472-.38.26-.572zm-3.004-7.296l-1.024-.904c1.038-.2 2.336-1 2.786-2 .676.28 1.4.43 2.12.497-.008.01-.02.014-.026.027-1.055 2.852-1.324 6.43-1.43 9.45-.001.028.007.05.012.075l-1.82-.318c.654-2.18 1.34-4.7 1-6.957.018-.016.04-.028.057-.045.233-.222-.136-.6-.385-.406-.398.312-.8.528-1.3.58zm3.364 25.442c-.002-.114-.095-.214-.2-.262-.903-.45-2.295-.42-3.294-.56l-4.202-.472c-.167-.004-.238.154-.176.262-.008.02-.02.036-.024.06a26.35 26.35 0 0 1-.96 3.637c-.07.208.02.487.276.5l7.445.988c.185.033.35-.105.385-.28.253-1.234.763-2.623.742-3.882zm-8.033 2.5c.352-1.084.638-2.18.854-3.3 1.568.372 3.2.547 4.8.786.3.046.93.02 1.194.178.504.3.34.592.332 1.032-.014.7-.283 1.52-.465 2.25l-6.704-.945zm14.958-31.587c-.516.46-1.157.684-1.84.47-.205-.064-.35.23-.14.313.78.308 1.7.158 2.292-.454.18-.185-.117-.502-.3-.33z"/><path d="M32.35 34.46c-.22-.253-.475-.463-.668-.74a3.37 3.37 0 0 1-.455-.945c-.043-.138-.275-.082-.248.062.135.703.5 1.517 1.152 1.893.154.1.333-.137.22-.27zm5.635 11.476c-.275-.255-.522-.563-.7-.9-.156-.316-.212-.647-.308-.98-.074-.26-.43-.126-.428.106.01.793.598 1.588 1.23 2.016.165.112.343-.103.196-.24zm-10.04 7.05l-1.886-.478c-.17-.04-.26.243-.1.3l1.9.596c.263.072.32-.343.065-.418z"/></svg>