<svg xmlns="http://www.w3.org/2000/svg" width="67.568" height="73.649" xmlns:v="https://vecta.io/nano"><path d="M55.296 28.342c-1.2-2.9-3.286-5.317-5.84-7.06l.584-.985.446-.62 1.496 1.116c.265.22.576-.084.5-.347.363-.373.705-.766 1.018-1.182.206-.042.34-.323.135-.5-9.204-8.3-24.224-5.624-30.842 4.453-5.694 8.67-3.94 20.86 3.93 27.333-.746.825-1.45 1.683-2.15 2.546-2.32-1.785-5.458-2.6-8.3-3.024-.436-.065-.54.613-.1.678.02.003.04.008.06.01.005.014.008.028.018.043 1.575 2.482 4.14 4.4 6.38 6.26 2.406 2 4.95 3.736 7.836 4.946.23.096.4-.06.456-.247.23.047.488-.22.317-.47-1.488-2.18-3.054-4.322-4.8-6.307l1.915-3.18c.01-.015.012-.03.017-.044a18.3 18.3 0 0 0 1.718 1.005c-.028.094-.06.187-.083.28-.08.322.4.423.535.153.052-.103.094-.212.14-.32a.26.26 0 0 0 .068-.156c.264-.652.45-1.352.655-2.013.055-.094.056-.214-.05-.287l-.53-.373c.064-.268.105-.526.224-.785a4.48 4.48 0 0 1 .374-.63c.397.24.807.46 1.23.658.026.012.05.014.077.018a.38.38 0 0 0 .209.226c6.05 2.786 13.577 1.752 18.483-2.842 4.86-4.55 6.413-12.212 3.875-18.347zm-29.67 27.464c.104.068.245.073.325-.053l.222-.355 4.296 5.852c-5.127-2.3-9.832-6.3-13.654-10.394 2.674.5 4.975 1.55 7.5 2.558l-.357.44c-.093.114-.077.24-.012.333-.064.018-.116.067-.12.15-.032.903.907 1.754 1.8 1.47zm-.023-.485c-.66.124-1.358-.243-1.408-.977a.35.35 0 0 0 .208-.123c.9-1.126 1.806-2.244 2.644-3.418a18.82 18.82 0 0 0 1.004.732c-.76.928-1.472 1.96-2.054 3.026-.165-.014-.327.157-.2.33l.016.022c-.07.137-.146.27-.2.408zm5.302-4.63c-.225.517-.465 1.043-.66 1.578-9.685-6.38-13.478-18.865-6.717-28.927 6.825-10.16 20.107-11.144 29.55-4.27-.298.354-.574.724-.83 1.1-.45-.38-.913-.73-1.387-1.06.025-.14-.112-.273-.253-.18-8.424-5.666-20.3-3.6-26.108 5.034-5.756 8.565-3.352 22.022 6.406 26.716zm-4.44-18.298c.592 1.122 1.68 1.898 2.35 2.973 1.498 2.408 1.2 6.2-2.234 6.6-.038.005-.07.016-.096.03-2.348-4.227-2.85-9.3-.467-14.08 3.458-6.925 11.266-10.268 18.435-8.174a.37.37 0 0 0-.027.137c-.02 5.17-4.548 7.4-9.143 6.434-2.797-.583-4.522-1.02-6.802 1.08-1.454 1.337-3.1 2.955-2.016 5zM39.47 18.286c-6.9.196-13.178 5.306-15.134 11.87-1.974 6.624.905 14.513 6.74 18.255-.2.142-.375.32-.52.572-.116.2-.2.438-.257.68-3.543-2.627-6.305-5.776-7.638-10.166-1.598-5.265-.606-10.92 2.53-15.42 5.736-8.237 16.745-9.847 24.87-4.673-.45.444-.837 1.002-1.066 1.566-2.82-1.792-6.16-2.776-9.522-2.68zm-6.213 30.5a.36.36 0 0 0-.267-.017c-.007-.005-.01-.012-.018-.017-2.58-1.598-4.728-3.778-6.22-6.282 2.474-.2 4.003-2.512 3.68-4.923-.202-1.5-1.012-2.778-1.978-3.915-.842-1-1.586-1.577-1.275-2.963.3-1.377 1.4-2.454 2.545-3.3 2.227-1.624 4.394-.308 6.77-.058 1.496.157 3.04.044 4.436-.545 2.724-1.15 4.312-3.9 4.204-6.808a15.68 15.68 0 0 1 1.964.821c4.408 2.213 7.273 6.208 8.222 10.666a2.21 2.21 0 0 0-1.074-.031c-.728.148-1.46.633-1.66 1.38-.05.183.15.32.314.3.02.225.156.428.376.588.14.102.375.115.496.2l.27.084-.27.756c-.337.17-1.374-.214-1.784-.233-1.324-.063-3.008.627-2.898 2.195a.27.27 0 0 0 .025.096c-.9-.015-1.97.222-2.42 1.07-.4.753-.2 1.892.7 2.123.042.01.08.005.115-.007.623.498 1.337.035 1.932-.3.624-.34 1.18-.47 1.888-.38.498.064.976.26 1.465.356-.036.043-.05.102-.015.168.25.467-.925.448-1.13.486-.337.062-.746.22-.86.58-.253.8.6.8 1.177.956-.946.553-5.153-.996-6.078-.976-1.142.026-2.423.416-3.152 1.356-1.822 2.346 1.004 5.174.393 7.697-3.263.63-6.74.3-9.873-1.14zm10.545.994c.473-3.12-3.47-8.636 2.685-8.2 1.05.074 5.3 2.27 5.9.43.184.036.367-.157.235-.345-.216-.308-.553-.346-.9-.397-.062-.01-.278-.02-.32-.07-.134-.15.033-.256.15-.302.23-.1.452-.073.7-.1.485-.057 1.27-.536.906-1.084.008 0 .015.003.023.003.182.01.324-.225.154-.35-.713-.527-1.894-.75-2.764-.677a2.89 2.89 0 0 0-1.188.38c-.492.276-1.073.875-1.668.548-.013-.007-.025-.008-.037-.012-.015-.026-.035-.05-.063-.07-.687-.458-.686-1.318-.038-1.838.5-.403 1.144-.48 1.754-.584.106-.018.157-.135.133-.222.075-.03.14-.093.16-.187.327-1.534 1.77-1.725 3.118-1.515.563.088 1.24.26 1.743-.113.28-.205.478-.568.418-.917-.08-.464-1.618-1.174-1.572-1.3.027-.073.01-.133-.026-.177.275-.34.587-.587 1.062-.702.34-.083.726-.078 1.082.015a15.89 15.89 0 0 1-1.471 9.94c-2.085 4.14-5.897 6.835-10.15 7.847z" opacity=".5" fill="none" stroke="#0371b8" stroke-linejoin="round" stroke-miterlimit="10"/></svg>