<svg xmlns="http://www.w3.org/2000/svg" width="320" height="160"><path fill="#fff" d="M-1-1h322v162H-1z"/><g stroke="null"><path fill="#f2f2f2" d="M113.115 9.374l-14.5 31.083h2.927v25.347H86.79l-8.5 18.218 105.304 59.336L218.42 68.7 113.115 9.374z"/><path fill="#3f3d56" d="M81.774 44.08h17.572V63.39H81.774z" stroke-width=".202"/><path fill="#2f2e41" d="M157.202 60.977h.077V59.77h-.13l-.076-1.717a.656.72 0 0 0-.686-.685l-5.854.31a.656.72 0 0 0-.623.754l.582 13.232a.656.72 0 0 0 .686.685l5.854-.31a.656.72 0 0 0 .623-.754l-.453-10.308z"/><g fill="#3f3d56"><ellipse transform="matrix(.192421 0 0 .211477 -2392.494209 -1281.322681)" ry="24.257" rx="265.402" cy="6735.363" cx="13392.29"/><path d="M140.37 134.407c1.3 5.243 5.7 8.5 5.7 8.5s2.328-5.253 1.037-10.496-5.7-8.5-5.7-8.5-2.328 5.253-1.037 10.496z"/></g><path fill="#4fc3f7" d="M142.266 133.28c3.54 3.788 3.973 9.612 3.973 9.612s-5.31-.32-8.85-4.107-3.973-9.612-3.973-9.612 5.31.32 8.85 4.107z"/><path fill="#2f2e41" d="M175.605 10.072s.38 1.392-1.774 2.646-2.787 5.987-.253 7.38 3.294 3.203 2.027 4.456-3.547 4.595-.507 5.43 3.42 2.506 2.534 3.203 2.027-1.253 2.027-1.253.507 3.342 3.167 2.506 10.135-16.71 6.335-18.937-13.556-5.43-13.556-5.43z"/><g fill="#9f616a"><path d="M185.422 128.118l-.824 8.45 3.57 2.414 3.295-.604-1.647-10.26h-4.393z"/><circle transform="matrix(.192421 0 0 .211477 -2392.494209 -1281.322681)" r="39.953" cy="6145.342" cx="13383.016"/><path d="M180.068 22.353s-.686 12.825-1.5 12.825 9.6-.604 9.6-.604-4.393-8.45-2.197-11.165-5.903-1.056-5.903-1.056z"/></g><path fill="#2f2e41" d="M191.462 90.097l-3.57 15.088 2.746 25.65-6.315-.604-2.47-40.134h9.6z"/><path opacity=".2" d="M191.462 90.097l-3.57 15.088 2.746 25.65-6.315-.604-2.47-40.134h9.6z"/><path fill="#2f2e41" d="M185.97 135.058s-.275-1.81-3.02 0-14.277 7.544-8.237 8.75 18.396-1.51 18.396-2.414.275-6.64-.824-6.035-4.668 4.526-6.315-.302z"/><path fill="#9f616a" d="M189.54 132.946s4.393 7.544 4.668 9.656 4.393-4.828 4.393-4.828l-3.844-7.846-5.217 3.018z"/><path d="M174.988 91.304l4.942 18.105s8.786 25.65 9.335 25.347 7.14-2.112 7.413-3.018-8.237-25.347-8.237-25.347l-1.098-15.7-12.355.604zm24.436 45.263a3.604 3.961 0 0 0-3.569 2.414c-1.098 2.716-2.47 3.018-2.746 3.32s.824 6.64 0 7.242-1.647 6.94 1.098 6.94 7.14-3.32 6.864-3.923-.275-4.828.55-6.64 2.197-4.828 0-6.64-2.197-2.716-2.197-2.716z" fill="#2f2e41"/><path fill="#4fc3f7" d="M173.34 63.24l-.55 5.432s-4.118 4.526-5.49 9.958-12.63 14.484-9.335 15.69 7.14 1.81 16.748 0 24.71 2.112 24.71-7.846c0 0 1.922-2.716 3.295 1.207a71.763 78.871 0 0 0 3.295 7.846s3.295-6.337 2.197-9.053 0-2.414-1.373-5.432-8.237-14.183-10.983-14.786-7.962-8.45-7.688-9.354-14.826 6.337-14.826 6.337z"/><path fill="#575a88" d="M188.167 29.444S176.9 32.16 176.36 33.97c-.31 1.018-1.747 2.896-2.946 4.344a15.432 16.96 0 0 0-3.875 8.642c-.286 1.925.917 3.656 1.468 5.873 1.647 6.64 2.883 4.98 1.236 9.807s8.237 6.64 12.08 4.526 8.1-14.635 8.1-16.144 3.707-18.558.686-19.765-4.942-1.81-4.942-1.81z"/><path fill="#9f616a" d="M172.517 43.928l-3.295 15.993-10.845 5.28s-8.237-2.112-8.51 1.207c-.18 2.167 9.335 3.018 9.335 3.018l15.787-6.8 3.57-14.786-6.04-3.923z"/><path fill="#575a88" d="M176.36 37.893s-6.864 4.526-5.217 6.94 5.766 6.337 6.864 6.337 1.922-7.242 1.922-9.354-3.57-3.923-3.57-3.923z"/><g fill="#2f2e41"><path d="M183.23 7.307s.42 1.543-1.965 2.93-3.088 6.633-.28 8.175 3.65 3.548 2.246 4.936-3.93 5.1-.56 6.016 3.79 2.777 2.807 3.548 2.246-1.388 2.246-1.388.56 3.702 3.51 2.777 5.888-17.75 2.603-22.082c-3.055-4.03-10.603-4.912-10.603-4.912z"/><path d="M182.333 5.72c.001-2.26 6.152-.636 8.8 2.52 1.826 2.185 4.6 5.472 2.276 7.79s3.985 5.355 5.677 6.276 5.033 3.737 2.016 5.627-2.968 3.797-1.833 4.248-2.503-.67-2.503-.67.368 3.73-2.698 3.713-11.86-18.532-9.758-23.678c1.953-4.785-1.967-5.823-1.967-5.823z"/><path d="M183.665 5.224c-8.226-.544-9.052 6.26-9.052 6.26.057 3.938 5.748 2.02 7.328 2.607l8.21-6.396a12.433 13.664 0 0 0-6.487-2.472z"/></g><path d="M148.073 43.742l-.8-.284c-2.82-1.045-4.673-1.712-5.333-3.347a2.315 2.545 0 0 1 1.185-3.41 2.519 2.768 0 0 1 2.116.05 2.518 2.768 0 0 1 1.386-1.758 2.315 2.545 0 0 1 3.096 1.323c.66 1.635-.133 3.593-1.32 6.592l-.338.835zm7.453 6.283l-.538-.194c-1.92-.7-3.18-1.166-3.63-2.28a1.576 1.732 0 0 1 .807-2.321 1.714 1.884 0 0 1 1.44.034 1.714 1.884 0 0 1 .944-1.196 1.576 1.732 0 0 1 2.107.901c.45 1.113-.1 2.445-.9 4.487l-.23.568zm-4.696-27.44l-.5-.52c-1.812-1.876-3.008-3.094-3-4.6a1.936 2.128 0 0 1 1.984-2.137 2.106 2.315 0 0 1 1.592.849 2.106 2.315 0 0 1 1.612-.804 1.936 2.128 0 0 1 1.933 2.193c-.018 1.496-1.242 2.68-3.097 4.504l-.522.505z" fill="#ff6584"/><path fill="#2f2e41" d="M206.69 130.908h10.12v12.422h-10.12z" stroke-width=".202"/><path fill="#3f3d56" d="M219.5 123.305l10.52 20.025h-21.04l10.52-20.025z"/></g></svg>