<svg xmlns="http://www.w3.org/2000/svg" xmlns:xlink="http://www.w3.org/1999/xlink" width="320" height="160"><style><![CDATA[.B{fill:#f39038}.C{stroke-width:.194}.D{fill:#3f3d56}.E{fill:#a0616a}]]></style><path fill="#fff" d="M-1-1h322v162H-1z"/><defs><linearGradient y2="0" x2=".5" y1="1" x1=".5" id="A"><stop stop-opacity=".25" stop-color="gray" offset="0"/><stop stop-opacity=".12" stop-color="gray" offset=".54"/><stop stop-opacity=".1" stop-color="gray" offset="1"/></linearGradient><linearGradient xlink:href="#A" y2="231.1" x2="372.74" y1="339.36" x1="372.74" id="B"/><linearGradient xlink:href="#A" y2="609.34" x2="573.53" y1="609.34" x1="416.98" id="C"/><path id="D" d="M153.612 25.51h35.125v1.844h-35.125z"/></defs><g stroke="null" transform="rotate(359.854 156.055 79.776)"><g transform="matrix(.199157 0 0 .189512 -6338.067668 -2924.709816)"><g opacity=".2"><g class="D"><path d="M32773.13 16170.734a23.27 23.27 0 0 1-2.11 3.25q-10.5-7.4-21.38-14.5l.47-.93a20.53 20.53 0 0 1 7.27-7.92c4-2.46 8.5-3 12.22-1s5.78 6 6 10.67a20.6 20.6 0 0 1-2.47 10.44z"/><ellipse transform="rotate(297.91 31757.91 16473.324)" ry="13.02" rx="17.05" cy="17215.854" cx="32521.261"/><ellipse transform="rotate(297.91 31779.369 16472.145)" ry="13.02" rx="17.05" cy="17196.264" cx="32552.471"/><ellipse transform="rotate(297.91 31800.83 16470.963)" ry="13.02" rx="17.05" cy="17176.674" cx="32583.681"/><ellipse transform="rotate(297.91 31822.279 16469.793)" ry="13.02" rx="17.05" cy="17157.094" cx="32614.881"/></g><path d="M32824.27 15942.234a61.7 61.7 0 0 1-1-8.58l32.92 11.08-32.83-17.08a62.45 62.45 0 0 1 22.08-44.23l31.8 46-24.7-51.16a62.37 62.37 0 1 1 58.36 109.89 62.4 62.4 0 0 1 1 13.39l-50-.4 49.28 8.12a62.37 62.37 0 0 1-36.29 47 62.37 62.37 0 1 1-86.65-45.89 62.39 62.39 0 0 1 36.1-68.15l-.08.01z" class="B"/><path opacity=".1" d="M32904.66 16028.444a62.14 62.14 0 0 1-29.84 27.83 62.37 62.37 0 1 1-86.65-45.89c-2.42-13.3 119.77 11.87 116.5 18.06z"/></g><g opacity=".2"><g class="D"><path d="M32485.02 16091.404a43.27 43.27 0 0 0 2.39 7.05q23.1-8.85 46.75-17l-.44-2a39.53 39.53 0 0 0-9.83-18.22c-6.3-6.48-14.45-9.64-22.3-7.72s-13.63 8.47-16.24 17.1a39.55 39.55 0 0 0-.33 20.8z"/><ellipse transform="rotate(346.28 31869.65 15538.675)" ry="32.81" rx="25.07" cy="16181.424" cx="32361.481"/><ellipse transform="rotate(346.28 31878.609 15535.314)" ry="32.81" rx="25.07" cy="16139.094" cx="32360.931"/><ellipse transform="rotate(346.28 31887.58 15531.944)" ry="32.81" rx="25.07" cy="16096.764" cx="32360.391"/><ellipse transform="rotate(346.28 31896.549 15528.585)" ry="32.81" rx="25.07" cy="16054.444" cx="32359.851"/></g><path d="M32497.4 15640.734a118.65 118.65 0 0 0 5.81-15.56l-66.55 5.1 69.36-16.4a120.32 120.32 0 0 0-20.33-93l-81.12 70.86 70.26-83.83a120.07 120.07 0 1 0-160.81 177.55 119.33 119.33 0 0 0-8.11 24.52l93.6 22.88-95.8-8.12a120.14 120.14 0 0 0 45.54 105 120.07 120.07 0 1 0 183.37-44.75 120.08 120.08 0 0 0-35.21-144.25z" class="B"/><path opacity=".1" d="M32306.68 15763.674a119.51 119.51 0 0 0 42.56 66 120.07 120.07 0 1 0 183.37-44.75c10.8-23.64-229.13-34.34-225.93-21.25z"/></g></g><path fill="url(#A)" d="M199.862 38.884h-.444v-22.79c0-5.026-4.348-9.097-9.71-9.097H135.31c-5.363 0-9.71 4.075-9.71 9.097v9.447h-.13a.568.54 0 0 0-.572.534v4.548a.568.54 0 0 0 .572.534h.14v4.645h-.175a.566.538 0 0 0-.57.534v8.697a.568.54 0 0 0 .57.536h.175v3.41h-.15a.566.538 0 0 0-.572.534v8.782a.566.538 0 0 0 .572.534h.15V138.5c0 5.026 4.348 9.097 9.71 9.097h54.384c5.363 0 9.71-4.075 9.71-9.097V55.93h.446a.568.54 0 0 0 .572-.534V39.42a.568.54 0 0 0-.572-.534z"/><g transform="matrix(.199157 0 0 .189512 -6338.067668 -2924.709816)" opacity=".9"><g fill="#e5e7eb"><rect rx="2.29" height="88.82" width="10.77" y="15640.944" x="32815.201"/><rect rx="2.29" height="29.24" width="6.05" y="15571.364" x="32457.071"/><rect rx="2.29" height="50.89" width="6.82" y="15624.894" x="32456.851"/><rect rx="2.29" height="51.33" width="6.49" y="15693.594" x="32456.961"/></g><rect fill="#fff" rx="38.99" height="732.71" width="360.52" y="15474.734" x="32460.491"/><g fill="#e5e7eb"><rect rx="3.87" height="10.22" width="50.35" y="15496.614" x="32605.981"/><circle r="5.8" cy="15501.724" cx="32669.731"/></g></g><path fill="#ececf3" d="M188.33 11.562h-8.22v.948a4.696 4.469 0 0 1-4.696 4.467H149.21a4.696 4.469 0 0 1-4.696-4.467v-.948h-7.71a5.702 5.426 0 0 0-5.702 5.426V137.76a5.702 5.426 0 0 0 5.702 5.426h51.528a5.702 5.426 0 0 0 5.702-5.426V16.988a5.702 5.426 0 0 0-5.702-5.426z"/><g class="B"><ellipse transform="matrix(.199157 0 0 .189512 -6338.067668 -2924.709816)" ry="9.67" rx="57.19" cy="16223.234" cx="32355.281"/><path d="M110.423 146.797c.488-.432.946-.948 1.085-1.56s-.135-1.363-.76-1.588c-.697-.254-1.442.205-2.006.67s-1.213.995-1.952.896a2.967 2.824 0 0 0 .918-2.653 1.149 1.093 0 0 0-.255-.536c-.386-.394-1.087-.226-1.55.085-1.472.985-1.884 2.9-1.892 4.605-.15-.62-.024-1.264-.028-1.895s-.185-1.338-.747-1.68a2.268 2.159 0 0 0-1.143-.254c-.66-.023-1.394.04-1.85.5-.564.57-.416 1.533.072 2.164s1.233 1.025 1.918 1.46c.52.332 1.048.718 1.368 1.243a1.177 1.12 0 0 1 .102.222h4.148a11.633 11.069 0 0 0 2.571-1.681z"/></g><g transform="matrix(.199157 0 0 .189512 -6338.067668 -2924.709816)" class="B"><g opacity=".4"><ellipse ry="5.52" rx="32.64" cy="16170.034" cx="32888.041"/><path d="M32901.53 16161.004a9.54 9.54 0 0 0 3.12-4.69c.4-1.87-.4-4.1-2.18-4.8-2-.76-4.13.62-5.75 2s-3.47 3-5.6 2.7a8.49 8.49 0 0 0 2.63-8 3.26 3.26 0 0 0-.73-1.61c-1.1-1.2-3.12-.68-4.44.25-4.22 3-5.4 8.7-5.43 13.87-.42-1.86-.06-3.8-.07-5.7s-.54-4-2.15-5.06a6.52 6.52 0 0 0-3.27-.76c-1.9-.07-4 .12-5.3 1.5-1.6 1.73-1.2 4.62.2 6.52s3.53 3.1 5.5 4.4a12.29 12.29 0 0 1 3.92 3.74 3.39 3.39 0 0 1 .29.67h11.9a33 33 0 0 0 7.35-5.03z"/></g><g opacity=".4"><ellipse ry="5.52" rx="32.64" cy="16108.004" cx="32388.121"/><path d="M32401.62 16098.974a9.43 9.43 0 0 0 3.11-4.7c.4-1.86-.4-4.1-2.18-4.78-2-.76-4.13.62-5.74 2s-3.48 3-5.6 2.7a8.54 8.54 0 0 0 2.63-8 3.38 3.38 0 0 0-.73-1.62c-1.1-1.18-3.12-.67-4.45.26-4.22 3-5.4 8.7-5.42 13.86-.43-1.86-.07-3.8-.08-5.7s-.53-4-2.14-5a6.46 6.46 0 0 0-3.28-.77c-1.9-.07-4 .12-5.3 1.5-1.6 1.73-1.2 4.62.2 6.52s3.53 3.08 5.5 4.4a12.09 12.09 0 0 1 3.92 3.74 4.11 4.11 0 0 1 .3.67h11.9a33.29 33.29 0 0 0 7.36-5.08z"/></g></g><g fill="#d6d8e0" class="C"><path d="M135.93 21.6h10.175v9.682H135.93zm17.682.68h21.318v1.844h-21.318z"/><use xlink:href="#D"/><use xlink:href="#D" y="3.226"/><path d="M136.007 39.34h10.175v9.682h-10.175zm17.693.7h21.318v1.844H153.7zm0 3.228h35.125v1.844H153.7zm0 3.226h35.125v1.844H153.7zM136.084 57.1h10.175v9.682h-10.175zm17.686.7h21.318v1.844H153.77zm0 3.226h35.125v1.844H153.77zm0 3.228h35.125v1.844H153.77zm-17.608 10.603h10.175v9.682h-10.175zm17.685.693h21.318v1.844h-21.318zm0 3.226h35.125V80.6h-35.125z"/><use xlink:href="#D" x="0.235" y="56.473"/><path d="M136.24 92.587h10.175v9.682H136.24zm17.685.69h21.318v1.844h-21.318z"/><use xlink:href="#D" x="0.313" y="70.996"/><use xlink:href="#D" x="0.313" y="74.223"/><path d="M136.32 110.336h10.175v9.682H136.32zm17.682.692h21.318v1.844h-21.318z"/><use xlink:href="#D" x="0.39" y="88.745"/><use xlink:href="#D" x="0.39" y="91.973"/><path d="M136.397 128.086h10.175v9.682h-10.175zm17.683.692h21.318v1.844H154.08zm0 3.227h35.125v1.844H154.08zm0 3.228h35.125v1.844H154.08z"/></g><path transform="matrix(.199157 0 0 .189512 -6338.067668 -2924.709816)" fill="url(#B)" d="M32423.03 15700.784h435.45v108.25h-435.45z"/><g class="C"><path fill="#fff" d="M119.7 51.246h85.996V70.84H119.7z"/><path d="M136.283 56.202h10.175v9.682h-10.175z" class="B"/></g><path d="M153.97 56.887h21.318v1.844H153.97zm0 3.228h35.125v1.844H153.97zm0 3.227h35.125v1.844H153.97z" opacity=".5" class="B C"/><path fill="url(#C)" d="M150.11 68.69c-.542-.5-1.442-.678-2.093-.303-.506.3-.785.83-1.04 1.34-.372.758-.918 1.467-1.085 2.286-.46 2.257-2.348 4-3.105 6.19-.27.78-.398 1.615-.827 2.325a7.777 7.4 0 0 1-.677.887 26.249 24.978 0 0 0-2.589 3.758c-.43.08-.813.426-1.18.697a4.069 3.872 0 0 1-1.593.718 1.504 1.431 0 0 0-.653.227c-.275.218-.313.6-.536.874a1.43 1.361 0 0 1-.597.379c0-.066-.01-.133-.012-.2l-.016-1.056a4.17 3.968 0 0 0-.012-5.151 8.165 7.77 0 0 1 .229-1.628c.07-.26.06-.578-.16-.747-.1-.08-.25-.112-.368-.2a1.605 1.527 0 0 1-.398-.481 2.151 2.047 0 0 0-2.705-.658c-.72.36-1.155 1.08-1.792 1.57-.327.25-.703.438-1.03.7a4.276 4.069 0 0 0-1.332 2.062 12.411 11.81 0 0 0-.362 2.433 2.308 2.196 0 0 0 .03.739 2.051 1.952 0 0 0 .293.569 6.696 6.371 0 0 0 2.476 2.246.968.921 0 0 1 0 .146c0 .076-.026.15-.044.226l-.116-.03c-.426-.09-.886-.08-1.27-.282-.653-.35-.85-1.2-1.476-1.6a1.129 1.075 0 0 0-.167-.085 11.177 10.635 0 0 0-.641-3.159c-.183-.485-.408-.98-.38-1.497.024-.48.265-.92.48-1.355.75-1.497 1.277-3.085 1.792-4.668q.496-1.49.996-2.985a4.945 4.706 0 0 0 .874-.792 4.439 4.224 0 0 0 1.014-2.071 3.083 2.934 0 0 0-.56-2.191 1.33 1.266 0 0 0-.936-.546 1.217 1.158 0 0 0-.874.379 3.888 3.699 0 0 0-.749 1.224c-.327.733-.657 1.495-.625 2.29.026.66.285 1.397-.12 1.933-1.324 1.757-2.324 3.777-3.374 5.7a10.713 10.194 0 0 0-.681 1.429 8.365 7.96 0 0 0-.356 2.464c-.01 1.563.215 3.12.438 4.67.102.7.23 1.442.58 2.047a9.02 8.583 0 0 0-.356 2.304 1.38 1.313 0 0 0 .088.529 2.294 2.183 0 0 0 .44.527 2.48 2.359 0 0 1 .597 1.865 5.558 5.289 0 0 0 .177 1.869l1.115 5.06a3.402 3.237 0 0 1 .076.963c-.062.46-.33.894-.27 1.355a5.389 5.128 0 0 1 .127.648 1.683 1.601 0 0 1-.119.485c-.454 1.256-1.675 4.137-1.66 5.467l.32-.072c-.32 1.726-1.07 3.377-1.466 5.098a17.924 17.056 0 0 0-.37 3.813 14.865 14.145 0 0 1-.032 1.725c-.062.5-.2 1.008-.275 1.516a14.435 13.736 0 0 0-.096 2.052 22.025 20.958 0 0 0 .199 3.222c.305 1.82-.23 3.627-.374 5.464a34.51 32.839 0 0 1-.458 3.832l-.323 1.605c-.223 1.603.102 3.256-.25 4.838-.165.74-.46 1.573-.026 2.206.137.2.335.354.484.546a.729.694 0 0 1 .139.669c-.086.174-.285.288-.335.474-.08.292.24.53.528.656l.082.03a.739.703 0 0 0 .155.569 1.267 1.205 0 0 0 .611.303l3.76 1.084c.838.243 1.75.48 2.59.284a.651.62 0 0 0 .149.307 1.267 1.205 0 0 0 .611.303l3.732 1.076c.96.277 2.013.55 2.936.174a1.667 1.586 0 0 0 .673-.483 1.776 1.69 0 0 0 .239-1.416 1.213 1.154 0 0 0-.362-.633 1.593 1.516 0 0 0-.868-.271 1.755 1.67 0 0 1-.761-.19.548.521 0 0 1-.173-.172q.323-.303.625-.63c-.163-.053-.22-.277-.237-.44-.237-2.414.72-4.774 1.08-7.173a16.132 15.351 0 0 0 .096-3.635l-.13-1.37c-.094-2.388 1.105-4.685 1.063-7.074-.02-1.118.597-2.22.898-3.303.263-.96.27-1.963.277-2.956l.048-7.82c0-1.057 0-2.14-.354-3.138a4.182 3.98 0 0 1-.143-1.717c1.014-.426 1.974-1.057 3.057-.948.29-.73-.054-3.16-.325-3.898a17.617 16.764 0 0 1-.597-9.028c.245-1.078-.092-2.225.18-3.3a2.097 1.996 0 0 1 .297-.709.797.758 0 0 1 .683-.343l-.06-1.994a4.979 4.738 0 0 0 1.109-1.215c.597-.948.938-2.015 1.35-3.045.73-1.82 1.73-3.527 2.567-5.306s.92-3.726 1.593-5.568a4.397 4.184 0 0 1 2.141-2.346c.398-.2.823-.326 1.11-.637a1.792 1.706 0 0 0 .386-.904 2.511 2.39 0 0 0-.641-2.016zm-23.3 78.293l.237-.263c-.25-.038-.558-.212-.564-.455a2.643 2.515 0 0 1 .163-.711 2.987 2.843 0 0 0 .056-1.262c-.056-.294-.16-.57-.223-.868a8.52 8.107 0 0 1-.119-.982 17.066 16.239 0 0 0-.725-3.479c-.36-1.097.133-2.208.26-3.35.062-.542.034-1.1.233-1.61.118-.303.31-.57.428-.876.273-.703.112-1.486-.056-2.22 1.18-2.033 1.57-4.46 2.013-6.75q.374-1.927.75-3.853c.1-.57.23-1.167.597-1.626a20.995 19.978 0 0 1 .454 5.181 8.084 7.692 0 0 0 .02 1.516c.092.55.333 1.073.472 1.615.31 1.196.13 2.452.2 3.682l.116 1.5c.098 2.196-.675 4.332-1.438 6.407-.468 1.272-.572 2.718-.797 4.05l-.528 3.84-.108 1.194a3.278 3.119 0 0 0-.388-.059 1.755 1.67 0 0 1-.761-.19.886.843 0 0 1-.293-.423z"/><g class="D"><path d="M134.97 149.584a1.615 1.537 0 0 1 .868.269 1.209 1.15 0 0 1 .362.629 1.761 1.675 0 0 1-.239 1.408 1.653 1.573 0 0 1-.673.478c-.922.38-1.976.104-2.936-.17l-3.76-1.078a1.263 1.202 0 0 1-.611-.301.828.788 0 0 1-.016-.919 1.886 1.795 0 0 1 .797-.605c1.17-.542 2.49-.667 3.784-.7.478-.01.948-.108 1.273.243.17.2.14.4.398.55a1.725 1.641 0 0 0 .753.186z"/><path d="M127.865 147.615a1.593 1.516 0 0 1 .868.267 1.229 1.169 0 0 1 .362.629 1.759 1.673 0 0 1-.239 1.408 1.657 1.577 0 0 1-.673.479c-.922.38-1.976.102-2.936-.172l-3.76-1.078a1.247 1.186 0 0 1-.611-.301.828.788 0 0 1-.016-.919 1.874 1.783 0 0 1 .797-.605c1.17-.542 2.487-.667 3.774-.7.476 0 .948-.108 1.273.243.17.2.14.392.398.55a1.755 1.67 0 0 0 .763.188z"/><path d="M131.13 108.786a46.302 44.06 0 0 0-6.668-.178 1.308 1.245 0 0 0-.432.064c-.5.2-.566.8-.613 1.3-.187 2.022-1.125 3.908-1.593 5.892a17.679 16.823 0 0 0-.37 3.79 14.636 13.927 0 0 1-.032 1.706c-.062.508-.2 1.003-.275 1.516a14.25 13.56 0 0 0-.096 2.039 21.74 20.687 0 0 0 .199 3.197c.305 1.808-.23 3.6-.374 5.428a34.122 32.469 0 0 1-.458 3.807l-.323 1.594c-.223 1.594.102 3.237-.25 4.808-.165.735-.46 1.562-.026 2.19.137.2.335.352.484.542a.723.688 0 0 1 .139.665c-.086.172-.285.286-.335.47-.08.3.24.53.528.652 2.16.927 4.947.273 6.405-1.507-.25-.038-.558-.2-.564-.45a2.615 2.488 0 0 1 .163-.707 2.948 2.805 0 0 0 .056-1.255c-.056-.3-.16-.57-.223-.862a8.39 7.984 0 0 1-.119-.974 16.853 16.037 0 0 0-.725-3.457c-.36-1.1.133-2.193.26-3.33.062-.536.034-1.093.233-1.6.118-.3.31-.57.428-.87.273-.7.112-1.474-.056-2.204 1.18-2.022 1.57-4.43 2.013-6.705q.374-1.914.75-3.828c.1-.57.23-1.158.597-1.615a20.73 19.726 0 0 1 .454 5.149 7.966 7.58 0 0 0 .02 1.495c.092.548.333 1.065.472 1.605.31 1.186.13 2.435.2 3.658l.116 1.48c.098 2.18-.675 4.304-1.438 6.364-.468 1.264-.572 2.7-.797 4.023l-.528 3.815c-.098 1.175-.14 2.447-.908 3.37.7.434 1.428.876 2.248 1.025a4.17 3.968 0 0 0 2.774-.51 8.763 8.339 0 0 0 2.191-1.774c-.163-.053-.22-.277-.237-.438-.237-2.397.72-4.738 1.08-7.126a15.933 15.161 0 0 0 .096-3.612l-.13-1.36c-.094-2.373 1.105-4.656 1.063-7.03-.02-1.11.597-2.208.898-3.282.263-.948.27-1.95.277-2.936l.048-7.77c0-1.052 0-2.126-.354-3.12-.438-1.192.062-2.564.137-3.824a16.574 15.771 0 0 1-6.409.675z"/></g><g class="E"><path d="M138.233 86.463a26.038 24.777 0 0 1 3.049-4.582 7.853 7.472 0 0 0 .677-.879c.428-.705.556-1.537.827-2.3.757-2.168 2.645-3.9 3.105-6.152.167-.813.713-1.516 1.085-2.274.255-.508.534-1.042 1.04-1.327.65-.38 1.55-.203 2.093.303a2.481 2.361 0 0 1 .639 1.999 1.755 1.67 0 0 1-.386.898c-.3.3-.72.45-1.1.635a4.362 4.15 0 0 0-2.141 2.329c-.665 1.83-.75 3.768-1.593 5.532l-2.567 5.267c-.412 1.025-.745 2.085-1.35 3.032s-1.557 1.742-2.7 1.884a6.783 6.455 0 0 0-.335-2.016c-.24-.752-.693-1.64-.33-2.34zM125.9 87.877a11.043 10.508 0 0 0-.645-3.938c-.183-.483-.408-.974-.38-1.488.024-.476.265-.915.48-1.346.75-1.488 1.277-3.066 1.792-4.64l.996-2.964a4.979 4.738 0 0 0 .874-.786 4.409 4.196 0 0 0 1.014-2.058 3.051 2.903 0 0 0-.56-2.177 1.322 1.258 0 0 0-.936-.54 1.205 1.147 0 0 0-.874.379 3.852 3.665 0 0 0-.749 1.217c-.327.728-.657 1.486-.625 2.274.026.656.285 1.387-.12 1.92-1.324 1.745-2.324 3.752-3.374 5.66a10.597 10.084 0 0 0-.681 1.419 8.269 7.869 0 0 0-.356 2.452c-.01 1.554.215 3.1.438 4.64.14.963.327 2.013 1.093 2.653.8-.965 1.6-1.916 2.613-2.678z"/><circle transform="matrix(.199157 0 0 .189512 -6338.067668 -2924.709816)" r="20.75" cy="15879.674" cx="32482.101"/><path d="M128.962 88.827c-.1.713-.5 1.347-.9 1.96-.237.38-.536.783-.996.824a19.916 18.951 0 0 0 3.752 1.437 4.266 4.059 0 0 0 1.372.21 3.352 3.189 0 0 0 1.141-.279 5.666 5.392 0 0 0 3.214-3.601 7.458 7.097 0 0 1-1.534-.112c-.283-.05-.588-.13-.753-.35a1.213 1.154 0 0 1-.155-.635q-.03-.984 0-1.967a8.165 7.77 0 0 0-3.003.351l-1.205.37c-.25.06-.942 0-1.127.138-.28.2.257 1.17.183 1.653z"/></g><path d="M130.785 91.216a2.599 2.473 0 0 0-1.976-2.195c-.426-.09-.886-.08-1.27-.28-.653-.347-.85-1.192-1.476-1.58s-1.518-.172-2.063.32-.823 1.2-1.046 1.872a9.908 9.428 0 0 0-.536 2.871 1.37 1.304 0 0 0 .088.527 2.324 2.212 0 0 0 .44.525 2.446 2.327 0 0 1 .597 1.85 5.505 5.238 0 0 0 .177 1.859l1.115 5.026a3.362 3.199 0 0 1 .076.948c-.062.455-.33.89-.27 1.344a5.359 5.1 0 0 1 .127.646 1.647 1.567 0 0 1-.119.479c-.454 1.25-1.675 4.112-1.66 5.433 2.12-.517 5.248-.633 7.437-.64a15.622 14.865 0 0 1 1.806.076c1.44.146 2.914.546 4.3.176 1.295-.343 2.444-1.327 3.784-1.202.29-.726-.054-3.142-.325-3.874a17.394 16.552 0 0 1-.597-8.97c.245-1.073-.092-2.2.18-3.277a2.063 1.963 0 0 1 .297-.705.797.758 0 0 1 .683-.341 25.371 24.142 0 0 0-.498-5.104c-.133-.597-.4-1.302-1.042-1.404-.57-.09-1.05.366-1.506.703a4.115 3.915 0 0 1-1.593.713 1.5 1.427 0 0 0-.653.226c-.275.216-.313.606-.536.87-.398.472-1.29.43-1.57.974a3.585 3.411 0 0 0-.151.498 1.916 1.823 0 0 1-.655.805 3.696 3.517 0 0 1-1.575.83z" class="B"/><path fill="#2d293d" d="M134.328 80.505c.07-.26.06-.57-.16-.743-.1-.08-.25-.112-.368-.2a1.593 1.516 0 0 1-.398-.479 2.163 2.058 0 0 0-2.711-.65c-.72.358-1.155 1.075-1.792 1.56-.327.25-.703.436-1.03.684a4.25 4.044 0 0 0-1.332 2.051 12.262 11.668 0 0 0-.36 2.42 2.284 2.174 0 0 0 .03.735 2.029 1.931 0 0 0 .293.559c.655.948 1.524 1.8 2.61 2.297s2.406.57 3.477.06a.619.589 0 0 0 .267-.205.749.713 0 0 0 .04-.438 3.157 3.004 0 0 1 .349-1.675c.2-.38.496-.705.657-1.1a4.103 3.904 0 0 0 .187-1.361c.016-1.188-.07-2.376.245-3.525z"/><path d="M136.24 56.318h10.175V66H136.24z" class="B C"/><path d="M142.704 64.565a1.336 1.272 0 0 1-.689.595 1.711 1.628 0 0 1-.548.099 1.545 1.471 0 0 1-.597-.07 1.372 1.306 0 0 1-.631-.479 3.187 3.032 0 0 1-.366-.697.813.773 0 0 1-.074-.394.597.569 0 0 0 .398-.214.504.479 0 0 0 .01-.379l-.038-.108c-.03-.083-.133-.24-.062-.31s.24-.068.305-.097a2.874 2.735 0 0 1 .619-.263 1.506 1.433 0 0 1 .588.036.199.19 0 0 1 .074.027.171.163 0 0 1 .054.076c.056.13.088.27.13.404a.874.832 0 0 0 .219.37 1.099 1.046 0 0 0 .305.174l.267.116a.38.362 0 0 1 .125.078.331.315 0 0 1 .06.155 1.528 1.454 0 0 1-.149.885z" class="E"/><path opacity=".1" d="M141.876 62.793a1.384 1.317 0 0 1-1.671.237l-.038-.108c-.03-.083-.133-.24-.062-.31s.24-.068.305-.097a2.874 2.735 0 0 1 .619-.263 1.506 1.433 0 0 1 .588.036.199.19 0 0 1 .074.027.171.163 0 0 1 .054.076c.056.135.088.27.13.404z"/><circle transform="matrix(.199157 0 0 .189512 -6338.067668 -2924.709816)" r="6.939" cy="15759.044" cx="32531.861" class="E"/><path fill="#f86d70" d="M145.072 65.998h-6.504l-.58-1.27a.926.881 0 0 1 .118-.284.325.309 0 0 1 .267-.142c.058 0 .123.02.165-.02s.028-.072.058-.1.102-.027.157-.023a.36.343 0 0 0 .307-.146.49.466 0 0 1 .078-.097.444.423 0 0 1 .167-.042c.16-.034.257-.2.378-.286a.227.216 0 0 1 .239-.063.147.14 0 0 1 .05.04.45.428 0 0 1 .066.157 1.478 1.406 0 0 0 .52.798 1.179 1.122 0 0 0 1.78-.423 2.318 2.206 0 0 0 .163-.718v-.032a.57.542 0 0 1 .474.089 2.675 2.545 0 0 0 .422.252c.177.066.398.066.52.2.052.05.088.117.153.148a.458.436 0 0 0 .127.028.755.718 0 0 1 .5.417 3.412 3.246 0 0 1 .279.959l.096.565z"/><path d="M139.926 59.69a1.046.995 0 0 0-.241.265 1.372 1.306 0 0 1-.482.451.597.569 0 0 0-.221.131.368.351 0 0 0-.058.148 2.914 2.773 0 0 0-.062.559.627.597 0 0 0 .048.277c.04.08.116.148.13.235a.721.686 0 0 1-.024.205.187.178 0 0 0 .074.19.506.481 0 0 0 .112.025c.2.042.267.265.297.45.068 0 .098-.078.114-.138l.2-.88c.024-.095.06-.207.16-.24a.504.479 0 0 1 .211 0c.275.023.506-.18.775-.237a1.056 1.004 0 0 1 .263-.015c.21 0 .458.093.504.28 0 .03.012.068.042.083a.167.159 0 0 0 .094 0c.133-.013.213.13.253.248l.14.43c.022.064.058.142.13.15a.139.133 0 0 0 .137-.116.552.525 0 0 0-.028-.19c-.066-.28.036-.57.098-.85s.072-.606-.135-.824c-.076-.078-.175-.136-.245-.22s-.102-.172-.17-.25a1.739 1.654 0 0 0-.966-.402 1.98 1.884 0 0 0-1.149.237z" class="D"/><path d="M142.392 62.095c-.074 0-.1-.085-.13-.15l-.14-.43c-.04-.117-.12-.262-.253-.25-.03.008-.063.008-.094 0-.03-.015-.034-.05-.042-.083-.046-.2-.293-.27-.504-.28a1.02 1.02 0 0 0-.263.017c-.27.055-.5.258-.775.235a.61.61 0 0 0-.211 0c-.102.034-.137.144-.16.24l-.2.88c-.016.06-.046.135-.114.138-.03-.2-.098-.407-.297-.45a.43.43 0 0 1-.112-.025c-.027-.014-.047-.036-.058-.063 0 .027-.012.055-.016.08-.02.072.01.147.074.2a.53.53 0 0 0 .112.025c.2.042.267.265.297.45.068 0 .098-.078.114-.138l.2-.88c.024-.095.06-.207.16-.24a.53.53 0 0 1 .211 0c.275.023.506-.18.775-.237a1.11 1.11 0 0 1 .263-.015c.2 0 .458.093.504.28 0 .03.012.068.042.083.03.008.063.008.094 0 .133-.013.213.13.253.248l.14.43c.022.064.058.142.13.15.07 0 .128-.05.137-.116.004-.05-.003-.103-.02-.152-.023.04-.07.064-.118.06zm-3.352-.545c-.014-.087-.1-.155-.13-.235a.47.47 0 0 1-.046-.17v.095a.57.57 0 0 0 .048.277c.032.064.088.12.116.2.014-.05.018-.103.012-.155zm3.56-.6a2.35 2.35 0 0 0-.114.758 4.41 4.41 0 0 1 .114-.553 1.38 1.38 0 0 0 .034-.425 1.64 1.64 0 0 1-.034.22z" opacity=".1" class="C"/><path fill="#f86d70" d="M139.088 65.998h-1.55a4.879 4.643 0 0 1 .364-1.152.277.263 0 0 1 .066-.1.096.091 0 0 1 .022-.017c.046-.034.1-.047.16-.08s.056-.066.102-.08a1.376 1.31 0 0 1 .506.08.506.481 0 0 1 .133.032.45.428 0 0 1 .211.246c.13.34.032.707-.012 1.07z"/></g></svg>