<?xml version="1.0" encoding="UTF-8"?>
<svg xmlns="http://www.w3.org/2000/svg" xmlns:xlink="http://www.w3.org/1999/xlink" width="320pt" height="160pt" viewBox="0 0 320 160" version="1.1">
<defs>
<filter id="alpha" filterUnits="objectBoundingBox" x="0%" y="0%" width="100%" height="100%">
  <feColorMatrix type="matrix" in="SourceGraphic" values="0 0 0 0 1 0 0 0 0 1 0 0 0 0 1 0 0 0 1 0"/>
</filter>
<mask id="mask0">
  <g filter="url(#alpha)">
<rect x="0" y="0" width="320" height="160" style="fill:rgb(0%,0%,0%);fill-opacity:0.101961;stroke:none;"/>
  </g>
</mask>
<clipPath id="clip1">
  <rect x="0" y="0" width="320" height="160"/>
</clipPath>
<g id="surface5" clip-path="url(#clip1)">
<path style=" stroke:none;fill-rule:nonzero;fill:rgb(0%,0%,0%);fill-opacity:1;" d="M 167.789062 91.871094 C 166.039062 92.332031 163.839844 92.554688 161.476562 92.625 C 157.347656 92.746094 152.703125 92.398438 148.992188 92.003906 C 144.984375 91.574219 142.066406 91.09375 142.066406 91.09375 C 143.421875 89.886719 145.503906 89.40625 147.953125 89.234375 C 150.988281 89.015625 154.589844 89.265625 158.066406 89.15625 C 159.347656 89.113281 160.632812 89.207031 161.890625 89.433594 C 165.726562 90.132812 167.789062 91.871094 167.789062 91.871094 Z M 167.789062 91.871094 "/>
</g>
<mask id="mask1">
  <g filter="url(#alpha)">
<rect x="0" y="0" width="320" height="160" style="fill:rgb(0%,0%,0%);fill-opacity:0.101961;stroke:none;"/>
  </g>
</mask>
<clipPath id="clip2">
  <rect x="0" y="0" width="320" height="160"/>
</clipPath>
<g id="surface8" clip-path="url(#clip2)">
<path style=" stroke:none;fill-rule:nonzero;fill:rgb(0%,0%,0%);fill-opacity:1;" d="M 87.230469 89.671875 L 87.023438 91.199219 C 86.957031 91.714844 86.886719 92.234375 86.847656 92.753906 C 86.722656 94.484375 86.957031 96.222656 86.894531 97.957031 C 86.847656 99.292969 86.625 100.628906 86.730469 101.960938 C 86.828125 103.140625 87.175781 104.285156 87.527344 105.417969 L 88.023438 107.039062 C 88.03125 107.136719 88.089844 107.226562 88.175781 107.277344 C 88.261719 107.332031 88.371094 107.34375 88.464844 107.308594 L 90.671875 107.117188 C 90.53125 106.5 90.375 105.851562 90.296875 105.222656 C 90.238281 104.726562 90.203125 104.226562 90.164062 103.726562 C 90.046875 102.167969 89.914062 100.609375 89.78125 99.050781 L 89.546875 96.316406 C 89.445312 95.128906 89.34375 93.933594 89.03125 92.78125 C 88.71875 91.613281 88.101562 90.542969 87.230469 89.671875 Z M 87.230469 89.671875 "/>
</g>
<mask id="mask2">
  <g filter="url(#alpha)">
<rect x="0" y="0" width="320" height="160" style="fill:rgb(0%,0%,0%);fill-opacity:0.101961;stroke:none;"/>
  </g>
</mask>
<clipPath id="clip3">
  <rect x="0" y="0" width="320" height="160"/>
</clipPath>
<g id="surface11" clip-path="url(#clip3)">
<path style=" stroke:none;fill-rule:nonzero;fill:rgb(0%,0%,0%);fill-opacity:1;" d="M 91.160156 142.082031 C 91.03125 142.328125 90.917969 142.578125 90.824219 142.835938 C 90.570312 143.546875 90.53125 144.308594 90.496094 145.058594 C 90.476562 145.203125 90.492188 145.351562 90.535156 145.488281 C 90.644531 145.757812 90.957031 145.894531 91.25 145.972656 C 92.46875 146.285156 93.757812 145.988281 95.019531 145.882812 C 96.253906 145.777344 97.515625 145.851562 98.726562 145.589844 C 98.90625 145.558594 99.078125 145.5 99.242188 145.421875 C 99.546875 145.230469 99.777344 144.945312 99.890625 144.609375 C 99.925781 144.527344 99.949219 144.4375 99.960938 144.34375 C 100.003906 143.949219 99.644531 143.605469 99.25 143.476562 C 98.859375 143.347656 98.433594 143.367188 98.019531 143.328125 C 96.277344 143.15625 94.867188 141.886719 94.585938 140.230469 C 94.574219 140.144531 92.546875 140.195312 92.335938 140.308594 C 92.085938 140.4375 91.933594 140.765625 91.792969 140.984375 C 91.566406 141.34375 91.355469 141.707031 91.160156 142.082031 Z M 91.160156 142.082031 "/>
</g>
<mask id="mask3">
  <g filter="url(#alpha)">
<rect x="0" y="0" width="320" height="160" style="fill:rgb(0%,0%,0%);fill-opacity:0.101961;stroke:none;"/>
  </g>
</mask>
<clipPath id="clip4">
  <rect x="0" y="0" width="320" height="160"/>
</clipPath>
<g id="surface14" clip-path="url(#clip4)">
<path style=" stroke:none;fill-rule:nonzero;fill:rgb(0%,0%,0%);fill-opacity:1;" d="M 95.832031 118.769531 C 95.757812 119.351562 95.65625 119.925781 95.523438 120.492188 C 94.734375 119.1875 93.886719 117.917969 93.160156 116.578125 C 92.972656 116.234375 92.792969 115.886719 92.617188 115.535156 C 92.4375 115.1875 92.257812 114.839844 92.082031 114.492188 C 91.980469 114.296875 91.878906 114.101562 91.789062 113.898438 C 91.640625 113.609375 91.527344 113.308594 91.453125 112.996094 C 91.714844 112.949219 92.367188 113.628906 92.5625 113.804688 C 92.964844 114.183594 93.34375 114.582031 93.695312 115.003906 C 94.125 115.464844 94.519531 115.960938 94.875 116.476562 C 95.328125 117.183594 95.652344 117.960938 95.832031 118.769531 Z M 95.832031 118.769531 "/>
</g>
<mask id="mask4">
  <g filter="url(#alpha)">
<rect x="0" y="0" width="320" height="160" style="fill:rgb(0%,0%,0%);fill-opacity:0.101961;stroke:none;"/>
  </g>
</mask>
<clipPath id="clip5">
  <rect x="0" y="0" width="320" height="160"/>
</clipPath>
<g id="surface17" clip-path="url(#clip5)">
<path style=" stroke:none;fill-rule:nonzero;fill:rgb(0%,0%,0%);fill-opacity:1;" d="M 100.851562 88.070312 C 100.949219 88.164062 101.03125 88.273438 101.09375 88.390625 C 101.738281 89.515625 101.75 90.859375 101.777344 92.144531 C 101.8125 93.585938 101.894531 95.027344 101.976562 96.472656 L 102.226562 100.785156 C 102.25 101.195312 102.273438 101.609375 102.332031 102.019531 C 102.625 102.085938 102.636719 102.445312 102.601562 102.730469 C 102.394531 104.492188 101.875 106.304688 102.417969 107.996094 C 102.4375 108.085938 102.484375 108.164062 102.546875 108.230469 C 102.273438 108.148438 101.980469 108.144531 101.703125 108.222656 C 101.433594 108.277344 101.171875 108.371094 100.902344 108.429688 C 100.5625 108.503906 100.171875 108.535156 99.9375 108.785156 C 99.675781 108.027344 99.464844 107.25 99.308594 106.460938 C 99.179688 105.742188 99.144531 105 98.839844 104.332031 C 98.71875 104.066406 98.554688 103.816406 98.402344 103.558594 C 97.613281 102.214844 97.226562 100.691406 96.847656 99.191406 C 96.679688 98.480469 96.636719 97.746094 96.726562 97.019531 C 96.78125 96.6875 96.8125 96.355469 96.820312 96.019531 C 96.796875 95.667969 96.75 95.316406 96.675781 94.96875 C 96.515625 93.953125 96.59375 92.914062 96.894531 91.925781 C 97.179688 91.011719 97.425781 90.046875 98.019531 89.277344 C 98.613281 88.507812 99.851562 88.082031 100.851562 88.070312 Z M 100.851562 88.070312 "/>
</g>
<mask id="mask5">
  <g filter="url(#alpha)">
<rect x="0" y="0" width="320" height="160" style="fill:rgb(0%,0%,0%);fill-opacity:0.101961;stroke:none;"/>
  </g>
</mask>
<clipPath id="clip6">
  <rect x="0" y="0" width="320" height="160"/>
</clipPath>
<g id="surface20" clip-path="url(#clip6)">
<path style=" stroke:none;fill-rule:nonzero;fill:rgb(0%,0%,0%);fill-opacity:1;" d="M 100.421875 75.03125 C 99.863281 74.359375 99.140625 73.75 98.257812 73.578125 C 97.539062 73.441406 96.796875 73.609375 96.066406 73.554688 C 95.417969 73.503906 94.800781 73.28125 94.15625 73.203125 C 93.574219 73.144531 92.988281 73.164062 92.410156 73.265625 C 91.863281 73.34375 91.328125 73.484375 90.820312 73.691406 C 90.546875 73.808594 90.28125 73.949219 90.035156 74.117188 C 90.488281 73.953125 90.960938 73.835938 91.441406 73.765625 C 92.015625 73.664062 92.605469 73.640625 93.1875 73.703125 C 93.828125 73.78125 94.449219 74.003906 95.097656 74.050781 C 95.824219 74.109375 96.570312 73.941406 97.285156 74.078125 C 98.167969 74.25 98.890625 74.859375 99.453125 75.53125 C 99.972656 76.160156 100.40625 76.964844 100.1875 77.738281 C 100.070312 78.144531 99.800781 78.5 99.726562 78.917969 C 99.648438 79.351562 99.632812 79.511719 99.332031 79.882812 C 98.949219 80.363281 98.480469 80.78125 97.953125 81.117188 C 98.097656 81.050781 98.246094 80.984375 98.386719 80.914062 C 99.136719 80.546875 99.789062 80.023438 100.304688 79.386719 C 100.605469 79.011719 100.621094 78.851562 100.695312 78.421875 C 100.769531 78 101.039062 77.644531 101.15625 77.238281 C 101.378906 76.464844 100.941406 75.660156 100.421875 75.03125 Z M 100.421875 75.03125 "/>
<path style=" stroke:none;fill-rule:nonzero;fill:rgb(0%,0%,0%);fill-opacity:1;" d="M 97.015625 81.691406 C 97.09375 81.617188 97.179688 81.546875 97.269531 81.480469 C 96.835938 81.683594 96.378906 81.859375 96.046875 82.191406 C 95.628906 82.609375 95.476562 83.210938 95.460938 83.785156 C 95.441406 84.359375 95.542969 84.933594 95.554688 85.507812 C 95.574219 86.273438 95.441406 87.035156 95.160156 87.753906 C 94.910156 88.390625 94.550781 88.980469 94.269531 89.601562 C 93.945312 90.324219 93.726562 91.089844 93.433594 91.824219 C 92.492188 94.148438 90.820312 96.136719 88.652344 97.515625 C 88.640625 97.539062 88.628906 97.566406 88.617188 97.589844 C 91.265625 96.230469 93.316406 94.007812 94.402344 91.328125 C 94.695312 90.589844 94.914062 89.828125 95.242188 89.101562 C 95.523438 88.480469 95.878906 87.890625 96.128906 87.253906 C 96.410156 86.539062 96.542969 85.773438 96.527344 85.007812 C 96.511719 84.433594 96.410156 83.859375 96.429688 83.285156 C 96.445312 82.710938 96.601562 82.109375 97.015625 81.691406 Z M 97.015625 81.691406 "/>
</g>
<mask id="mask6">
  <g filter="url(#alpha)">
<rect x="0" y="0" width="320" height="160" style="fill:rgb(0%,0%,0%);fill-opacity:0.101961;stroke:none;"/>
  </g>
</mask>
<clipPath id="clip7">
  <rect x="0" y="0" width="320" height="160"/>
</clipPath>
<g id="surface23" clip-path="url(#clip7)">
<path style=" stroke:none;fill-rule:nonzero;fill:rgb(0%,0%,0%);fill-opacity:1;" d="M 203.1875 99.511719 C 203.191406 99.597656 203.195312 99.683594 203.195312 99.773438 C 203.191406 99.6875 203.1875 99.597656 203.1875 99.511719 Z M 203.1875 99.511719 "/>
<path style=" stroke:none;fill-rule:nonzero;fill:rgb(0%,0%,0%);fill-opacity:1;" d="M 188.496094 102.773438 C 188.722656 103.332031 188.710938 103.949219 188.699219 104.546875 C 188.699219 104.703125 188.695312 104.859375 188.691406 105.015625 C 188.675781 104.691406 188.613281 104.375 188.496094 104.070312 C 188.40625 103.835938 188.273438 103.621094 188.191406 103.386719 C 188.046875 102.976562 188.054688 102.53125 188.207031 102.125 C 188.289062 102.347656 188.410156 102.550781 188.496094 102.773438 Z M 188.496094 102.773438 "/>
</g>
<mask id="mask7">
  <g filter="url(#alpha)">
<rect x="0" y="0" width="320" height="160" style="fill:rgb(0%,0%,0%);fill-opacity:0.101961;stroke:none;"/>
  </g>
</mask>
<clipPath id="clip8">
  <rect x="0" y="0" width="320" height="160"/>
</clipPath>
<g id="surface26" clip-path="url(#clip8)">
<path style=" stroke:none;fill-rule:nonzero;fill:rgb(0%,0%,0%);fill-opacity:1;" d="M 188.335938 71.707031 C 188.304688 71.539062 188.238281 71.378906 188.148438 71.234375 C 188.203125 71.210938 188.261719 71.1875 188.316406 71.160156 C 188.363281 71.339844 188.367188 71.523438 188.335938 71.707031 Z M 188.335938 71.707031 "/>
</g>
</defs>
<g id="surface1">
<rect x="0" y="0" width="320" height="160" style="fill:rgb(100%,100%,100%);fill-opacity:1;stroke:none;"/>
<path style=" stroke:none;fill-rule:nonzero;fill:rgb(24.705882%,23.921569%,33.72549%);fill-opacity:1;" d="M 188.113281 40.9375 L 189.273438 40.9375 C 189.53125 40.9375 189.738281 41.136719 189.738281 41.382812 L 189.738281 56.960938 C 189.738281 57.207031 189.53125 57.40625 189.273438 57.40625 L 188.113281 57.40625 C 187.859375 57.40625 187.652344 57.207031 187.652344 56.960938 L 187.652344 41.382812 C 187.652344 41.136719 187.859375 40.9375 188.113281 40.9375 Z M 188.113281 40.9375 "/>
<path style=" stroke:none;fill-rule:nonzero;fill:rgb(24.705882%,23.921569%,33.72549%);fill-opacity:1;" d="M 118.527344 28.039062 L 119.089844 28.039062 C 119.257812 28.039062 119.394531 28.167969 119.394531 28.332031 L 119.394531 33.167969 C 119.394531 33.328125 119.257812 33.460938 119.089844 33.460938 L 118.527344 33.460938 C 118.359375 33.460938 118.222656 33.328125 118.222656 33.167969 L 118.222656 28.332031 C 118.222656 28.167969 118.359375 28.039062 118.527344 28.039062 Z M 118.527344 28.039062 "/>
<path style=" stroke:none;fill-rule:nonzero;fill:rgb(24.705882%,23.921569%,33.72549%);fill-opacity:1;" d="M 118.523438 37.964844 L 119.160156 37.964844 C 119.347656 37.964844 119.503906 38.109375 119.503906 38.292969 L 119.503906 47.070312 C 119.503906 47.253906 119.347656 47.398438 119.160156 47.398438 L 118.523438 47.398438 C 118.335938 47.398438 118.179688 47.253906 118.179688 47.070312 L 118.179688 38.292969 C 118.179688 38.109375 118.335938 37.964844 118.523438 37.964844 Z M 118.523438 37.964844 "/>
<path style=" stroke:none;fill-rule:nonzero;fill:rgb(24.705882%,23.921569%,33.72549%);fill-opacity:1;" d="M 118.527344 50.703125 L 119.132812 50.703125 C 119.3125 50.703125 119.457031 50.84375 119.457031 51.015625 L 119.457031 59.90625 C 119.457031 60.078125 119.3125 60.21875 119.132812 60.21875 L 118.527344 60.21875 C 118.347656 60.21875 118.203125 60.078125 118.203125 59.90625 L 118.203125 51.015625 C 118.203125 50.84375 118.347656 50.703125 118.527344 50.703125 Z M 118.527344 50.703125 "/>
<path style=" stroke:none;fill-rule:nonzero;fill:rgb(24.705882%,23.921569%,33.72549%);fill-opacity:1;" d="M 126.117188 10.125 L 181.546875 10.125 C 185.539062 10.125 188.777344 13.21875 188.777344 17.039062 L 188.777344 139.054688 C 188.777344 142.871094 185.539062 145.96875 181.546875 145.96875 L 126.117188 145.96875 C 122.125 145.96875 118.886719 142.871094 118.886719 139.054688 L 118.886719 17.039062 C 118.886719 13.21875 122.125 10.125 126.117188 10.125 Z M 126.117188 10.125 "/>
<path style=" stroke:none;fill-rule:nonzero;fill:rgb(90.196078%,90.980392%,92.54902%);fill-opacity:1;" d="M 147.605469 14.179688 L 156.335938 14.179688 C 156.621094 14.179688 156.851562 14.402344 156.851562 14.671875 L 156.851562 15.582031 C 156.851562 15.855469 156.621094 16.074219 156.335938 16.074219 L 147.605469 16.074219 C 147.320312 16.074219 147.089844 15.855469 147.089844 15.582031 L 147.089844 14.671875 C 147.089844 14.402344 147.320312 14.179688 147.605469 14.179688 Z M 147.605469 14.179688 "/>
<path style=" stroke:none;fill-rule:nonzero;fill:rgb(90.196078%,90.980392%,92.54902%);fill-opacity:1;" d="M 160.574219 15.128906 C 160.574219 15.722656 160.070312 16.203125 159.449219 16.203125 C 158.828125 16.203125 158.324219 15.722656 158.324219 15.128906 C 158.324219 14.535156 158.828125 14.054688 159.449219 14.054688 C 160.070312 14.054688 160.574219 14.535156 160.574219 15.128906 Z M 160.574219 15.128906 "/>
<path style=" stroke:none;fill-rule:nonzero;fill:rgb(100%,100%,100%);fill-opacity:1;" d="M 184.457031 18.972656 L 184.457031 137.121094 C 184.457031 140.050781 181.972656 142.425781 178.90625 142.425781 L 128.75 142.425781 C 125.6875 142.425781 123.203125 140.050781 123.199219 137.121094 L 123.199219 18.972656 C 123.199219 16.039062 125.6875 13.664062 128.75 13.664062 L 136.257812 13.664062 L 136.257812 14.585938 C 136.257812 17 138.304688 18.957031 140.828125 18.957031 L 166.335938 18.957031 C 168.859375 18.957031 170.90625 17 170.90625 14.585938 L 170.90625 13.664062 L 178.90625 13.664062 C 181.972656 13.664062 184.457031 16.039062 184.457031 18.972656 Z M 184.457031 18.972656 "/>
<path style=" stroke:none;fill-rule:nonzero;fill:rgb(94.901961%,94.901961%,94.901961%);fill-opacity:1;" d="M 123.132812 41.054688 L 184.496094 41.054688 L 184.496094 108.453125 L 123.132812 108.453125 Z M 123.132812 41.054688 "/>
<path style=" stroke:none;fill-rule:nonzero;fill:rgb(100%,39.607843%,51.764706%);fill-opacity:1;" d="M 127.585938 117.777344 L 127.261719 117.5 C 126.117188 116.492188 125.359375 115.839844 125.359375 115.023438 C 125.351562 114.710938 125.480469 114.410156 125.710938 114.1875 C 125.941406 113.964844 126.257812 113.839844 126.582031 113.84375 C 126.96875 113.847656 127.335938 114.011719 127.585938 114.296875 C 127.835938 114.011719 128.199219 113.847656 128.589844 113.84375 C 128.914062 113.839844 129.230469 113.964844 129.460938 114.1875 C 129.691406 114.410156 129.820312 114.710938 129.8125 115.023438 C 129.8125 115.839844 129.054688 116.492188 127.910156 117.5 Z M 127.585938 117.777344 "/>
<path style=" stroke:none;fill-rule:nonzero;fill:rgb(94.901961%,94.901961%,94.901961%);fill-opacity:1;" d="M 139.300781 116.75 L 139.925781 116.917969 C 140.152344 116.292969 140.6875 115.8125 141.355469 115.632812 C 142.027344 115.457031 142.742188 115.605469 143.273438 116.035156 L 142.320312 116.917969 L 144.703125 116.917969 L 144.703125 114.707031 L 143.742188 115.585938 C 143.046875 115 142.089844 114.789062 141.195312 115.023438 C 140.300781 115.257812 139.589844 115.90625 139.300781 116.75 Z M 139.300781 116.75 "/>
<path style=" stroke:none;fill-rule:nonzero;fill:rgb(100%,75.686275%,2.745098%);fill-opacity:1;" d="M 130.019531 33.304688 C 130.019531 34.804688 128.75 36.015625 127.183594 36.015625 C 125.617188 36.015625 124.347656 34.804688 124.347656 33.304688 C 124.347656 31.808594 125.617188 30.59375 127.183594 30.59375 C 128.75 30.59375 130.019531 31.808594 130.019531 33.304688 Z M 130.019531 33.304688 "/>
<path style=" stroke:none;fill-rule:nonzero;fill:rgb(100%,75.686275%,2.745098%);fill-opacity:1;" d="M 132.246094 31.757812 L 158.574219 31.757812 L 158.574219 34.855469 L 132.246094 34.855469 Z M 132.246094 31.757812 "/>
<path style=" stroke:none;fill-rule:nonzero;fill:rgb(94.901961%,94.901961%,94.901961%);fill-opacity:1;" d="M 125.359375 122.398438 L 151.6875 122.398438 L 151.6875 125.5 L 125.359375 125.5 Z M 125.359375 122.398438 "/>
<path style=" stroke:none;fill-rule:nonzero;fill:rgb(94.901961%,94.901961%,94.901961%);fill-opacity:1;" d="M 125.359375 129.15625 L 181.054688 129.15625 L 181.054688 132.253906 L 125.359375 132.253906 Z M 125.359375 129.15625 "/>
<path style=" stroke:none;fill-rule:nonzero;fill:rgb(94.901961%,94.901961%,94.901961%);fill-opacity:1;" d="M 136.695312 117.582031 L 135.996094 116.414062 C 136.34375 115.621094 136.027344 114.707031 135.253906 114.269531 C 134.480469 113.832031 133.492188 114.007812 132.929688 114.675781 C 132.367188 115.34375 132.410156 116.308594 133.023438 116.933594 C 133.636719 117.558594 134.640625 117.65625 135.371094 117.160156 Z M 136.695312 117.582031 "/>
<path style=" stroke:none;fill-rule:nonzero;fill:rgb(18.431373%,18.039216%,25.490196%);fill-opacity:1;" d="M 148.621094 56.859375 C 144.234375 57.71875 141.410156 61.808594 142.308594 66.003906 L 143.980469 73.816406 L 145.851562 73.449219 L 145.984375 72.621094 L 146.375 73.347656 L 157.753906 71.121094 L 157.886719 70.292969 L 158.277344 71.015625 L 159.851562 70.707031 L 158.179688 62.894531 C 157.28125 58.703125 153.003906 56 148.621094 56.859375 Z M 148.621094 56.859375 "/>
<path style=" stroke:none;fill-rule:nonzero;fill:rgb(62.352941%,38.039216%,41.568627%);fill-opacity:1;" d="M 162.722656 80.828125 L 172.441406 86.445312 L 171.230469 89.15625 L 162.113281 85.089844 Z M 162.722656 80.828125 "/>
<path style=" stroke:none;fill-rule:nonzero;fill:rgb(100%,75.686275%,2.745098%);fill-opacity:1;" d="M 150.375 87.222656 C 150.375 87.222656 130.730469 87.222656 127.488281 92.0625 C 124.25 96.90625 126.882812 103.683594 137.007812 105.234375 C 147.132812 106.785156 177.917969 107.558594 180.347656 101.746094 C 182.777344 95.9375 180.953125 92.644531 180.953125 92.644531 C 180.953125 92.644531 170.421875 85.671875 150.375 87.222656 Z M 150.375 87.222656 "/>
<path style=" stroke:none;fill-rule:nonzero;fill:rgb(100%,75.686275%,2.745098%);fill-opacity:1;" d="M 167.789062 91.871094 L 178.519531 95.742188 C 178.519531 95.742188 182.976562 92.644531 180.75 89.15625 C 178.519531 85.671875 168.394531 65.53125 168.394531 65.53125 C 168.394531 65.53125 165.558594 61.65625 169.207031 59.527344 C 172.851562 57.394531 174.269531 60.882812 174.269531 60.882812 C 174.269531 60.882812 174.066406 61.65625 175.484375 61.074219 C 176.902344 60.492188 179.535156 62.429688 178.117188 65.53125 C 176.699219 68.628906 175.6875 69.402344 178.722656 69.210938 C 179.820312 69.140625 180.785156 68.386719 181.570312 67.457031 C 183.074219 65.667969 182.402344 64.230469 182.289062 61.9375 C 182.09375 58.011719 181.777344 55.453125 180.75 53.910156 C 179.332031 51.777344 177.304688 50.035156 172.039062 51.003906 C 166.773438 51.972656 159.078125 56.8125 160.902344 63.785156 C 162.726562 70.757812 166.773438 78.503906 166.773438 78.503906 C 166.773438 78.503906 169.609375 89.351562 167.789062 91.871094 Z M 167.789062 91.871094 "/>
<use xlink:href="#surface5" mask="url(#mask0)"/>
<path style=" stroke:none;fill-rule:nonzero;fill:rgb(62.352941%,38.039216%,41.568627%);fill-opacity:1;" d="M 155.941406 65.628906 C 155.941406 68.621094 153.402344 71.050781 150.269531 71.050781 C 147.136719 71.050781 144.597656 68.621094 144.597656 65.628906 C 144.597656 62.632812 147.136719 60.203125 150.269531 60.203125 C 153.402344 60.203125 155.941406 62.632812 155.941406 65.628906 Z M 155.941406 65.628906 "/>
<path style=" stroke:none;fill-rule:nonzero;fill:rgb(62.352941%,38.039216%,41.568627%);fill-opacity:1;" d="M 149.5625 69.984375 C 149.5625 69.984375 150.574219 73.664062 149.5625 73.859375 C 148.550781 74.050781 146.121094 75.019531 146.121094 75.019531 L 149.15625 76.183594 L 154.828125 81.21875 L 159.6875 83.542969 L 162.117188 82.765625 L 162.117188 78.507812 L 158.472656 73.082031 C 158.472656 73.082031 156.042969 73.859375 155.4375 71.339844 C 154.828125 68.820312 153.613281 67.855469 153.613281 67.855469 Z M 149.5625 69.984375 "/>
<path style=" stroke:none;fill-rule:nonzero;fill:rgb(62.352941%,38.039216%,41.568627%);fill-opacity:1;" d="M 148.140625 75.210938 L 145.710938 75.210938 C 145.710938 75.210938 141.457031 76.570312 139.027344 79.667969 C 136.597656 82.765625 132.75 85.863281 132.75 85.863281 C 132.75 85.863281 130.117188 89.351562 131.535156 94.195312 C 132.953125 99.035156 134.976562 102.523438 136.800781 101.554688 C 138.621094 100.585938 134.167969 93.613281 134.167969 93.613281 L 135.382812 89.351562 C 135.382812 89.351562 141.660156 82.378906 144.292969 82.574219 C 146.925781 82.765625 147.128906 84.898438 147.128906 84.898438 L 152.796875 86.445312 L 154.621094 82.765625 L 153.609375 78.894531 Z M 148.140625 75.210938 "/>
<path style=" stroke:none;fill-rule:nonzero;fill:rgb(24.705882%,23.921569%,33.72549%);fill-opacity:1;" d="M 162.722656 87.414062 C 162.339844 88.042969 162.058594 88.722656 161.890625 89.433594 C 161.636719 90.480469 161.5 91.550781 161.472656 92.625 C 157.347656 92.746094 152.699219 92.398438 148.992188 92.003906 C 148.664062 91.167969 148.300781 90.203125 147.949219 89.234375 C 147 86.609375 146.117188 83.933594 146.117188 83.542969 C 146.117188 82.765625 150.371094 84.121094 151.382812 83.929688 C 152.394531 83.734375 152.800781 80.636719 151.382812 79.085938 C 149.964844 77.539062 145.8125 74.921875 145.8125 74.921875 L 147.230469 74.535156 C 147.230469 74.535156 150.371094 76.761719 156.851562 80.441406 C 163.332031 84.121094 160.699219 78.3125 160.699219 78.3125 L 156.953125 72.792969 L 158.570312 72.792969 C 158.570312 72.792969 161.710938 77.925781 163.332031 80.25 C 164.949219 82.574219 164.34375 84.898438 162.722656 87.414062 Z M 162.722656 87.414062 "/>
<path style=" stroke:none;fill-rule:nonzero;fill:rgb(24.705882%,23.921569%,33.72549%);fill-opacity:1;" d="M 179.433594 56.136719 C 179.433594 57.742188 178.074219 59.042969 176.394531 59.042969 C 174.71875 59.042969 173.355469 57.742188 173.355469 56.136719 C 173.355469 54.53125 174.71875 53.230469 176.394531 53.230469 C 178.074219 53.230469 179.433594 54.53125 179.433594 56.136719 Z M 179.433594 56.136719 "/>
<path style=" stroke:none;fill-rule:nonzero;fill:rgb(100%,100%,100%);fill-opacity:1;" d="M 178.015625 56.136719 C 178.015625 56.992188 177.289062 57.6875 176.394531 57.6875 C 175.5 57.6875 174.773438 56.992188 174.773438 56.136719 C 174.773438 55.28125 175.5 54.585938 176.394531 54.585938 C 177.289062 54.585938 178.015625 55.28125 178.015625 56.136719 Z M 178.015625 56.136719 "/>
<path style=" stroke:none;fill-rule:nonzero;fill:rgb(100%,75.686275%,2.745098%);fill-opacity:1;" d="M 87.230469 89.671875 L 87.023438 91.199219 C 86.957031 91.714844 86.886719 92.234375 86.847656 92.753906 C 86.722656 94.484375 86.957031 96.222656 86.894531 97.957031 C 86.847656 99.292969 86.625 100.628906 86.730469 101.960938 C 86.828125 103.140625 87.175781 104.285156 87.527344 105.417969 L 88.023438 107.039062 C 88.03125 107.136719 88.089844 107.226562 88.175781 107.277344 C 88.261719 107.332031 88.371094 107.34375 88.464844 107.308594 L 90.671875 107.117188 C 90.53125 106.5 90.375 105.851562 90.296875 105.222656 C 90.238281 104.726562 90.203125 104.226562 90.164062 103.726562 C 90.046875 102.167969 89.914062 100.609375 89.78125 99.050781 L 89.546875 96.316406 C 89.445312 95.128906 89.34375 93.933594 89.03125 92.78125 C 88.71875 91.613281 88.101562 90.542969 87.230469 89.671875 Z M 87.230469 89.671875 "/>
<use xlink:href="#surface8" mask="url(#mask1)"/>
<path style=" stroke:none;fill-rule:nonzero;fill:rgb(24.705882%,23.921569%,33.72549%);fill-opacity:1;" d="M 91.160156 142.082031 C 91.03125 142.328125 90.917969 142.578125 90.824219 142.835938 C 90.570312 143.546875 90.53125 144.308594 90.496094 145.058594 C 90.476562 145.203125 90.492188 145.351562 90.535156 145.488281 C 90.644531 145.757812 90.957031 145.894531 91.25 145.972656 C 92.46875 146.285156 93.757812 145.988281 95.019531 145.882812 C 96.253906 145.777344 97.515625 145.851562 98.726562 145.589844 C 98.90625 145.558594 99.078125 145.5 99.242188 145.421875 C 99.546875 145.230469 99.777344 144.945312 99.890625 144.609375 C 99.925781 144.527344 99.949219 144.4375 99.960938 144.34375 C 100.003906 143.949219 99.644531 143.605469 99.25 143.476562 C 98.859375 143.347656 98.433594 143.367188 98.019531 143.328125 C 96.277344 143.15625 94.867188 141.886719 94.585938 140.230469 C 94.574219 140.144531 92.546875 140.195312 92.335938 140.308594 C 92.085938 140.4375 91.933594 140.765625 91.792969 140.984375 C 91.566406 141.34375 91.355469 141.707031 91.160156 142.082031 Z M 91.160156 142.082031 "/>
<use xlink:href="#surface11" mask="url(#mask2)"/>
<path style=" stroke:none;fill-rule:nonzero;fill:rgb(24.705882%,23.921569%,33.72549%);fill-opacity:1;" d="M 94.519531 142.261719 C 94.390625 142.503906 94.277344 142.757812 94.179688 143.011719 C 93.929688 143.722656 93.890625 144.488281 93.851562 145.238281 C 93.835938 145.382812 93.851562 145.527344 93.894531 145.667969 C 94.003906 145.9375 94.316406 146.074219 94.605469 146.148438 C 95.828125 146.464844 97.117188 146.167969 98.375 146.058594 C 99.613281 145.953125 100.875 146.03125 102.085938 145.769531 C 102.261719 145.738281 102.4375 145.679688 102.597656 145.597656 C 102.90625 145.40625 103.132812 145.121094 103.246094 144.789062 C 103.285156 144.703125 103.308594 144.613281 103.320312 144.523438 C 103.359375 144.128906 103 143.785156 102.609375 143.65625 C 102.21875 143.523438 101.789062 143.546875 101.378906 143.507812 C 99.632812 143.335938 98.226562 142.066406 97.945312 140.410156 C 97.929688 140.324219 95.90625 140.375 95.691406 140.484375 C 95.441406 140.617188 95.292969 140.941406 95.152344 141.164062 C 94.925781 141.519531 94.714844 141.886719 94.519531 142.261719 Z M 94.519531 142.261719 "/>
<path style=" stroke:none;fill-rule:nonzero;fill:rgb(18.431373%,18.039216%,25.490196%);fill-opacity:1;" d="M 103.277344 123.140625 C 103.304688 127.03125 102.121094 130.832031 100.734375 134.488281 C 100.183594 135.9375 99.601562 137.371094 98.984375 138.792969 C 98.621094 139.636719 98.210938 140.570312 98.601562 141.402344 C 97.476562 140.992188 96.324219 140.75 95.136719 140.941406 C 95.585938 140.058594 95.546875 139.035156 95.566406 138.050781 C 95.605469 136.71875 95.753906 135.390625 96.011719 134.082031 C 96.410156 132.089844 97.09375 130.160156 98.042969 128.34375 C 98.234375 127.960938 98.367188 127.554688 98.4375 127.132812 C 98.558594 126.203125 98.503906 125.253906 98.269531 124.34375 C 97.835938 122.320312 97.011719 120.390625 95.84375 118.65625 C 95.839844 118.691406 95.835938 118.734375 95.832031 118.769531 C 95.757812 119.347656 95.65625 119.925781 95.523438 120.492188 C 95.257812 121.695312 94.949219 122.902344 94.996094 124.113281 C 95.046875 125.398438 94.960938 126.683594 94.746094 127.953125 C 94.679688 128.453125 94.542969 128.941406 94.34375 129.40625 C 94.214844 129.683594 94.042969 129.945312 93.941406 130.234375 C 93.839844 130.566406 93.789062 130.910156 93.785156 131.257812 C 93.632812 134.1875 93.78125 137.9375 94.410156 140.808594 C 93.351562 140.761719 92.304688 140.988281 91.375 141.46875 C 90.617188 139.425781 90.136719 136.527344 89.777344 134.375 C 89.367188 131.835938 89.449219 129.246094 90.019531 126.734375 C 90.199219 125.894531 90.265625 125.039062 90.21875 124.1875 C 90.136719 122.484375 89.699219 120.820312 89.265625 119.171875 C 89.046875 118.332031 88.824219 117.496094 88.605469 116.65625 C 88.289062 115.460938 87.976562 114.269531 87.660156 113.074219 C 87.449219 112.28125 87.238281 111.46875 87.304688 110.652344 C 87.351562 110.203125 87.449219 109.761719 87.597656 109.335938 C 88.070312 107.882812 88.769531 106.507812 89.683594 105.257812 C 93.308594 105.453125 96.976562 105.128906 100.597656 104.863281 C 100.773438 104.828125 100.957031 104.859375 101.113281 104.945312 C 101.234375 105.066406 101.308594 105.222656 101.316406 105.390625 C 101.773438 107.847656 102.226562 110.304688 102.679688 112.761719 C 102.898438 113.789062 103.027344 114.832031 103.066406 115.878906 C 103.070312 116.921875 102.894531 117.960938 102.9375 119.003906 C 102.992188 120.410156 103.269531 121.738281 103.277344 123.140625 Z M 103.277344 123.140625 "/>
<use xlink:href="#surface14" mask="url(#mask3)"/>
<path style=" stroke:none;fill-rule:nonzero;fill:rgb(93.72549%,71.764706%,72.54902%);fill-opacity:1;" d="M 98.851562 82.96875 C 98.851562 82.96875 96.835938 86.039062 97.210938 86.679688 C 97.582031 87.324219 90.867188 86.109375 90.867188 86.109375 C 90.867188 86.109375 94.523438 83.039062 94.152344 81.757812 C 93.777344 80.472656 98.851562 82.96875 98.851562 82.96875 Z M 98.851562 82.96875 "/>
<path style=" stroke:none;fill-rule:nonzero;fill:rgb(93.72549%,71.764706%,72.54902%);fill-opacity:1;" d="M 101.613281 79.546875 C 101.613281 81.949219 99.578125 83.898438 97.0625 83.898438 C 94.546875 83.898438 92.511719 81.949219 92.511719 79.546875 C 92.511719 77.140625 94.546875 75.191406 97.0625 75.191406 C 99.578125 75.191406 101.613281 77.140625 101.613281 79.546875 Z M 101.613281 79.546875 "/>
<path style=" stroke:none;fill-rule:nonzero;fill:rgb(100%,75.686275%,2.745098%);fill-opacity:1;" d="M 98.917969 86.1875 C 98.433594 85.539062 97.769531 85.027344 97.003906 84.710938 C 96.5625 84.558594 96.109375 84.453125 95.644531 84.386719 L 93.828125 84.082031 C 93.382812 84.007812 92.90625 83.9375 92.496094 84.113281 C 92.285156 84.214844 92.089844 84.347656 91.925781 84.511719 C 91.292969 85.070312 90.683594 85.683594 89.890625 86.007812 C 89.675781 86.09375 89.449219 86.160156 89.230469 86.25 C 88.347656 86.613281 87.683594 87.375 87.308594 88.222656 C 86.914062 89.113281 86.902344 90.078125 86.933594 91.046875 C 86.933594 91.378906 86.964844 91.714844 87.035156 92.039062 C 87.128906 92.351562 87.242188 92.65625 87.378906 92.949219 C 87.632812 93.582031 87.839844 94.226562 88.007812 94.882812 C 88.480469 96.605469 88.871094 98.34375 89.183594 100.101562 C 89.210938 100.355469 89.289062 100.597656 89.410156 100.824219 C 89.585938 101.046875 89.796875 101.242188 90.039062 101.402344 C 90.230469 101.550781 90.40625 101.71875 90.566406 101.898438 C 90.644531 101.976562 90.699219 102.070312 90.730469 102.171875 C 90.789062 102.433594 90.550781 102.65625 90.355469 102.84375 C 89.949219 103.242188 89.660156 103.726562 89.503906 104.261719 C 89.410156 104.371094 89.363281 104.511719 89.371094 104.652344 C 89.410156 104.75 89.425781 104.855469 89.414062 104.960938 C 89.375 105.058594 89.316406 105.144531 89.242188 105.214844 C 89.066406 105.433594 88.996094 105.714844 89.054688 105.984375 C 90.464844 106.570312 91.972656 106.910156 93.511719 106.984375 C 93.886719 107 94.265625 107 94.636719 107.042969 C 94.90625 107.074219 95.167969 107.128906 95.433594 107.160156 C 95.824219 107.195312 96.214844 107.203125 96.601562 107.1875 C 98.628906 107.148438 100.714844 107.097656 102.574219 106.332031 C 102.75 105.417969 102.371094 104.488281 102.136719 103.589844 C 101.757812 102.15625 101.664062 100.671875 101.382812 99.222656 C 101.191406 98.230469 100.914062 97.25 100.753906 96.253906 C 100.59375 95.253906 100.554688 94.21875 100.84375 93.25 C 101.097656 92.386719 101.175781 91.511719 101.4375 90.652344 C 101.703125 89.792969 101.886719 88.863281 101.589844 88.011719 C 101.21875 86.960938 100.078125 86.128906 98.917969 86.1875 Z M 98.917969 86.1875 "/>
<path style=" stroke:none;fill-rule:nonzero;fill:rgb(18.431373%,18.039216%,25.490196%);fill-opacity:1;" d="M 101.152344 77.238281 C 101.375 76.464844 100.941406 75.660156 100.417969 75.03125 C 99.859375 74.355469 99.136719 73.746094 98.253906 73.578125 C 97.535156 73.441406 96.792969 73.605469 96.0625 73.550781 C 95.417969 73.503906 94.796875 73.28125 94.152344 73.199219 C 93.570312 73.140625 92.984375 73.164062 92.410156 73.265625 C 91.863281 73.339844 91.328125 73.484375 90.816406 73.6875 C 88.878906 74.511719 87.746094 76.539062 87.480469 78.550781 C 87.21875 80.5625 87.679688 82.585938 88.140625 84.566406 L 88.554688 86.355469 C 88.984375 88.214844 89.417969 90.085938 89.535156 91.992188 C 89.652344 93.894531 89.433594 95.851562 88.617188 97.589844 C 91.265625 96.226562 93.316406 94.007812 94.398438 91.328125 C 94.695312 90.589844 94.910156 89.828125 95.238281 89.101562 C 95.519531 88.480469 95.878906 87.890625 96.125 87.253906 C 96.40625 86.535156 96.542969 85.773438 96.523438 85.007812 C 96.507812 84.433594 96.410156 83.859375 96.425781 83.285156 C 96.445312 82.710938 96.597656 82.109375 97.011719 81.691406 C 97.382812 81.324219 97.90625 81.144531 98.382812 80.914062 C 99.132812 80.542969 99.789062 80.023438 100.300781 79.382812 C 100.601562 79.007812 100.617188 78.851562 100.691406 78.417969 C 100.765625 78 101.039062 77.644531 101.152344 77.238281 Z M 101.152344 77.238281 "/>
<path style=" stroke:none;fill-rule:nonzero;fill:rgb(93.72549%,71.764706%,72.54902%);fill-opacity:1;" d="M 101.160156 109.941406 C 101.207031 110.386719 101.121094 110.847656 101.222656 111.285156 C 101.300781 111.617188 101.480469 111.914062 101.585938 112.238281 C 101.6875 112.613281 101.742188 112.996094 101.746094 113.386719 C 101.757812 113.710938 101.734375 114.105469 101.433594 114.257812 C 101.300781 114.324219 101.144531 114.324219 101.007812 114.378906 C 100.867188 114.4375 100.75 114.59375 100.828125 114.71875 C 100.894531 114.820312 101.046875 114.820312 101.167969 114.84375 C 101.292969 114.867188 101.425781 114.988281 101.355469 115.089844 C 101.328125 115.121094 101.289062 115.144531 101.246094 115.15625 C 101.121094 115.191406 101 115.246094 100.894531 115.316406 C 100.785156 115.390625 100.726562 115.519531 100.75 115.644531 C 100.761719 115.707031 100.804688 115.757812 100.867188 115.78125 C 100.925781 115.808594 100.992188 115.808594 101.050781 115.777344 C 100.996094 115.890625 100.964844 116.015625 100.960938 116.136719 C 101.441406 116.335938 101.984375 116.078125 102.4375 115.824219 C 102.632812 115.722656 102.820312 115.605469 103.003906 115.480469 C 103.742188 114.933594 104.152344 114.074219 104.09375 113.183594 C 104.074219 112.960938 104.039062 112.742188 103.988281 112.527344 C 103.917969 112.148438 103.828125 111.777344 103.710938 111.410156 C 103.582031 111.023438 103.40625 110.652344 103.253906 110.273438 C 102.929688 109.464844 102.71875 108.621094 102.425781 107.800781 C 102.417969 107.722656 102.375 107.648438 102.308594 107.601562 C 102.242188 107.554688 102.160156 107.535156 102.078125 107.546875 C 101.746094 107.53125 101.417969 107.5625 101.097656 107.636719 C 100.902344 107.6875 100.585938 107.808594 100.5 108.003906 C 100.417969 108.175781 100.550781 108.332031 100.632812 108.484375 C 100.90625 108.933594 101.085938 109.425781 101.160156 109.941406 Z M 101.160156 109.941406 "/>
<use xlink:href="#surface17" mask="url(#mask4)"/>
<path style=" stroke:none;fill-rule:nonzero;fill:rgb(100%,75.686275%,2.745098%);fill-opacity:1;" d="M 101.078125 87.925781 C 101.175781 88.023438 101.253906 88.128906 101.316406 88.246094 C 101.964844 89.371094 101.972656 90.71875 102.003906 92 C 102.039062 93.445312 102.121094 94.886719 102.203125 96.328125 L 102.449219 100.640625 C 102.472656 101.054688 102.496094 101.464844 102.558594 101.875 C 102.847656 101.945312 102.859375 102.304688 102.828125 102.589844 C 102.617188 104.347656 102.101562 106.160156 102.644531 107.855469 C 102.664062 107.941406 102.707031 108.023438 102.769531 108.089844 C 102.496094 108.007812 102.203125 108.003906 101.929688 108.078125 C 101.65625 108.132812 101.398438 108.226562 101.128906 108.285156 C 100.785156 108.359375 100.398438 108.394531 100.164062 108.644531 C 99.898438 107.882812 99.6875 107.105469 99.535156 106.316406 C 99.40625 105.601562 99.371094 104.855469 99.066406 104.191406 C 98.941406 103.921875 98.777344 103.671875 98.628906 103.417969 C 97.835938 102.070312 97.449219 100.550781 97.074219 99.046875 C 96.902344 98.335938 96.863281 97.601562 96.953125 96.878906 C 97.007812 96.546875 97.039062 96.214844 97.046875 95.878906 C 97.023438 95.527344 96.972656 95.175781 96.902344 94.828125 C 96.742188 93.808594 96.816406 92.773438 97.121094 91.785156 C 97.402344 90.867188 97.652344 89.902344 98.246094 89.132812 C 98.835938 88.363281 100.078125 87.941406 101.078125 87.925781 Z M 101.078125 87.925781 "/>
<use xlink:href="#surface20" mask="url(#mask5)"/>
<path style=" stroke:none;fill-rule:nonzero;fill:rgb(18.431373%,18.039216%,25.490196%);fill-opacity:1;" d="M 196.980469 145.679688 C 196.761719 145.929688 196.390625 145.980469 196.054688 146.015625 C 195.621094 146.074219 195.183594 146.082031 194.746094 146.039062 C 194.230469 145.964844 193.917969 146.246094 193.445312 146.03125 C 193.160156 145.898438 192.71875 146.160156 192.433594 146.03125 C 192.039062 145.851562 190.6875 145.8125 190.449219 145.460938 C 190.210938 145.113281 190.234375 144.558594 190.609375 144.351562 C 190.71875 144.304688 190.828125 144.261719 190.941406 144.226562 C 191.574219 143.988281 192.855469 142.171875 193.527344 142.082031 C 193.859375 142.066406 194.191406 142.140625 194.484375 142.296875 C 195.144531 142.578125 196.316406 142.800781 196.605469 143.515625 C 196.832031 144.070312 197.449219 145.136719 196.980469 145.679688 Z M 196.980469 145.679688 "/>
<path style=" stroke:none;fill-rule:nonzero;fill:rgb(18.431373%,18.039216%,25.490196%);fill-opacity:1;" d="M 201.738281 145.527344 C 201.953125 145.777344 202.324219 145.828125 202.660156 145.863281 C 203.09375 145.921875 203.535156 145.929688 203.972656 145.886719 C 204.488281 145.8125 205.121094 146.238281 205.59375 146.019531 C 205.878906 145.890625 206.320312 145.957031 206.605469 145.828125 C 206.996094 145.648438 208.839844 146.046875 209.078125 145.699219 C 209.316406 145.347656 209.292969 144.792969 208.917969 144.585938 C 208.808594 144.539062 208.699219 144.496094 208.585938 144.464844 C 207.953125 144.222656 205.863281 142.019531 205.191406 141.925781 C 204.855469 141.914062 204.527344 141.988281 204.234375 142.144531 C 203.570312 142.425781 202.402344 142.648438 202.109375 143.363281 C 201.886719 143.917969 201.269531 144.984375 201.738281 145.527344 Z M 201.738281 145.527344 "/>
<path style=" stroke:none;fill-rule:nonzero;fill:rgb(18.431373%,18.039216%,25.490196%);fill-opacity:1;" d="M 203.839844 105.984375 C 204.046875 106.367188 204.226562 106.761719 204.378906 107.164062 C 206.21875 111.816406 206.371094 116.898438 206.449219 121.871094 C 206.441406 122.679688 206.492188 123.484375 206.59375 124.289062 C 206.671875 124.796875 206.792969 125.3125 206.714844 125.820312 C 206.644531 126.261719 206.429688 126.695312 206.515625 127.128906 C 206.554688 127.328125 206.652344 127.507812 206.691406 127.703125 C 206.71875 127.917969 206.714844 128.136719 206.671875 128.351562 L 206.425781 130.105469 C 206.285156 131.101562 205.960938 132.066406 205.980469 133.074219 C 205.992188 133.761719 206.003906 134.449219 206.082031 135.132812 C 206.164062 135.828125 206.316406 136.515625 206.324219 137.214844 C 206.328125 137.734375 206.253906 138.257812 206.207031 138.777344 C 206.136719 139.511719 206.121094 140.25 206.160156 140.988281 C 206.1875 141.558594 206.257812 142.148438 206.570312 142.628906 C 206.21875 143.113281 205.871094 143.546875 205.304688 143.785156 C 204.15625 144.265625 202.835938 144.105469 201.597656 143.929688 C 201.664062 143.710938 201.773438 143.464844 201.671875 143.253906 C 201.613281 143.15625 201.542969 143.0625 201.460938 142.976562 C 201.1875 142.609375 201 142.191406 200.90625 141.75 C 200.757812 141.226562 200.605469 140.664062 200.914062 140.160156 C 201.019531 139.980469 201.066406 139.777344 201.050781 139.570312 C 200.792969 136.273438 200.027344 132.863281 200.730469 129.625 C 200.808594 129.28125 200.898438 128.9375 200.9375 128.585938 C 200.976562 128.082031 200.984375 127.578125 200.957031 127.070312 L 200.941406 126.367188 C 200.90625 125.617188 200.9375 124.851562 200.78125 124.109375 C 200.667969 123.578125 200.457031 123.042969 200.71875 122.5 C 200.832031 122.25 200.816406 121.960938 200.679688 121.722656 C 200.132812 120.808594 199.695312 119.839844 199.371094 118.835938 C 199.304688 118.554688 199.210938 118.277344 199.097656 118.011719 C 198.9375 117.730469 198.757812 117.464844 198.550781 117.210938 C 197.9375 116.359375 197.570312 115.371094 197.207031 114.394531 C 197.246094 114.304688 197.21875 114.179688 197.117188 114.191406 C 197.019531 114.214844 196.933594 114.277344 196.878906 114.359375 C 196.386719 114.996094 196.34375 115.84375 196.320312 116.636719 C 196.285156 117.375 196.296875 118.109375 196.359375 118.84375 C 196.402344 119.230469 196.472656 119.613281 196.507812 119.996094 C 196.558594 120.714844 196.542969 121.4375 196.472656 122.15625 L 196.222656 125.683594 C 196.1875 125.976562 196.207031 126.273438 196.277344 126.558594 C 196.4375 127.050781 196.515625 127.570312 196.507812 128.085938 C 196.441406 130.21875 196.636719 132.351562 197.082031 134.441406 C 197.207031 135.019531 197.351562 135.589844 197.453125 136.171875 C 197.703125 137.539062 197.734375 138.933594 197.769531 140.320312 C 197.789062 141.171875 197.804688 142.054688 197.453125 142.839844 C 197.316406 143.082031 197.214844 143.339844 197.152344 143.609375 C 197.152344 143.75 197.132812 143.886719 197.09375 144.019531 C 196.992188 144.273438 196.683594 144.382812 196.402344 144.441406 C 195.882812 144.550781 195.34375 144.585938 194.8125 144.550781 C 194.6875 144.546875 194.5625 144.519531 194.449219 144.472656 C 194.25 144.375 194.144531 144.164062 193.992188 144.007812 C 193.664062 143.664062 193.121094 143.5625 192.824219 143.195312 C 192.453125 142.742188 192.609375 142.078125 192.832031 141.542969 C 193.050781 141.003906 193.328125 140.417969 193.136719 139.871094 C 192.910156 139.222656 192.113281 138.875 191.902344 138.226562 C 192.511719 135.605469 191.011719 132.890625 191.140625 130.207031 C 191.171875 129.582031 191.285156 128.964844 191.289062 128.335938 C 191.292969 126.726562 190.5625 125.15625 190.683594 123.550781 C 190.988281 119.464844 189.535156 115.386719 188.917969 111.332031 C 188.800781 110.730469 188.757812 110.113281 188.789062 109.5 C 188.878906 108.484375 189.371094 107.539062 189.964844 106.695312 C 190.386719 106.085938 190.898438 105.492188 191.601562 105.210938 C 192.179688 104.976562 192.828125 104.976562 193.457031 104.984375 C 195.023438 104.992188 196.589844 105.003906 198.15625 105.03125 C 199.226562 105.019531 200.289062 105.109375 201.335938 105.304688 C 202.183594 105.488281 202.976562 105.867188 203.839844 105.984375 Z M 203.839844 105.984375 "/>
<path style=" stroke:none;fill-rule:nonzero;fill:rgb(63.137255%,38.039216%,41.568627%);fill-opacity:1;" d="M 178.515625 87.363281 C 178.363281 86.652344 178.648438 85.890625 178.425781 85.199219 C 178.34375 84.949219 178.144531 84.6875 177.871094 84.695312 C 177.605469 84.703125 177.425781 84.953125 177.191406 85.070312 C 176.8125 85.257812 176.351562 85.085938 175.972656 84.894531 C 175.59375 84.707031 175.171875 84.492188 174.757812 84.605469 C 174.710938 84.851562 174.882812 85.085938 175.074219 85.257812 C 175.285156 85.410156 175.457031 85.605469 175.582031 85.824219 C 175.644531 86.0625 175.667969 86.308594 175.652344 86.554688 C 175.695312 87.117188 176.066406 87.601562 176.441406 88.039062 C 177.039062 88.746094 177.679688 89.421875 178.351562 90.0625 C 178.347656 90.0625 179.367188 88.855469 179.347656 88.644531 C 179.332031 88.445312 178.988281 88.257812 178.863281 88.097656 C 178.691406 87.878906 178.574219 87.628906 178.515625 87.363281 Z M 178.515625 87.363281 "/>
<path style=" stroke:none;fill-rule:nonzero;fill:rgb(63.137255%,38.039216%,41.568627%);fill-opacity:1;" d="M 208.902344 102.238281 C 208.992188 102.460938 209.0625 102.695312 209.105469 102.933594 C 209.371094 104.15625 209.535156 105.390625 209.699219 106.628906 C 209.742188 106.957031 209.785156 107.289062 209.800781 107.621094 C 209.847656 108.410156 209.675781 109.195312 209.308594 109.902344 C 208.933594 110.613281 208.292969 111.164062 207.519531 111.445312 C 207.28125 111.527344 206.945312 111.542969 206.839844 111.320312 C 206.804688 111.21875 206.804688 111.105469 206.84375 111.003906 C 206.9375 110.675781 207.128906 110.378906 207.253906 110.0625 C 207.4375 109.582031 207.46875 109.0625 207.34375 108.566406 C 207.292969 108.378906 207.191406 108.167969 206.988281 108.128906 C 207.089844 108.566406 207.007812 109.023438 206.757812 109.398438 C 206.699219 109.503906 206.601562 109.585938 206.484375 109.621094 C 206.3125 109.636719 206.152344 109.539062 206.097656 109.382812 C 206.050781 109.230469 206.039062 109.070312 206.070312 108.914062 C 206.132812 108.121094 206.257812 107.335938 206.445312 106.558594 C 206.667969 105.707031 207.023438 104.871094 207 103.992188 C 206.980469 103.199219 206.648438 102.417969 206.742188 101.628906 C 206.742188 101.582031 206.757812 101.53125 206.789062 101.492188 C 206.816406 101.464844 206.851562 101.445312 206.890625 101.433594 C 207.125 101.339844 207.363281 101.265625 207.605469 101.207031 C 207.75 101.171875 208.238281 101.007812 208.378906 101.082031 C 208.488281 101.140625 208.523438 101.492188 208.578125 101.613281 C 208.679688 101.824219 208.808594 102.023438 208.902344 102.238281 Z M 208.902344 102.238281 "/>
<path style=" stroke:none;fill-rule:nonzero;fill:rgb(63.137255%,38.039216%,41.568627%);fill-opacity:1;" d="M 195.910156 75.460938 C 195.910156 77.253906 194.390625 78.707031 192.515625 78.707031 C 190.644531 78.707031 189.125 77.253906 189.125 75.460938 C 189.125 73.671875 190.644531 72.21875 192.515625 72.21875 C 194.390625 72.21875 195.910156 73.671875 195.910156 75.460938 Z M 195.910156 75.460938 "/>
<path style=" stroke:none;fill-rule:nonzero;fill:rgb(63.137255%,38.039216%,41.568627%);fill-opacity:1;" d="M 195.558594 77.808594 C 195.554688 78.015625 195.574219 78.222656 195.609375 78.425781 C 195.65625 78.632812 195.722656 78.835938 195.804688 79.03125 C 195.917969 79.347656 196.078125 79.648438 196.28125 79.921875 C 196.484375 80.195312 196.792969 80.386719 197.140625 80.457031 C 194.820312 81.496094 192.347656 82.179688 189.804688 82.480469 C 190.207031 82.226562 190.539062 81.886719 190.777344 81.488281 C 190.90625 81.234375 190.992188 80.960938 191.035156 80.679688 C 191.253906 79.507812 191.144531 78.300781 190.71875 77.183594 C 190.675781 77.070312 190.632812 76.9375 190.714844 76.847656 C 190.75 76.8125 190.789062 76.789062 190.835938 76.773438 C 191.84375 76.363281 192.929688 76.171875 194.023438 76.203125 C 194.300781 76.207031 194.582031 76.21875 194.859375 76.238281 C 195.011719 76.246094 195.339844 76.214844 195.460938 76.320312 C 195.601562 76.445312 195.53125 76.835938 195.535156 77.003906 Z M 195.558594 77.808594 "/>
<path style=" stroke:none;fill-rule:nonzero;fill:rgb(81.568627%,80.392157%,88.235294%);fill-opacity:1;" d="M 197.351562 80.167969 C 196.324219 78.910156 194.535156 78.484375 193.011719 79.132812 C 191.394531 79.871094 190.601562 81.640625 189.179688 82.679688 C 188.859375 82.914062 188.515625 83.113281 188.152344 83.285156 C 187.941406 83.398438 187.710938 83.484375 187.476562 83.542969 C 187.210938 83.597656 186.933594 83.589844 186.667969 83.652344 C 186.167969 83.792969 185.738281 84.113281 185.46875 84.542969 C 185.335938 84.769531 185.1875 84.984375 185.027344 85.195312 C 184.878906 85.363281 184.695312 85.5 184.539062 85.660156 C 183.972656 86.238281 183.820312 87.074219 183.691406 87.855469 C 183.25 88.300781 182.769531 88.707031 182.25 89.070312 C 182.089844 89.191406 181.910156 89.285156 181.714844 89.355469 C 181.21875 89.507812 180.671875 89.3125 180.25 89.019531 C 179.824219 88.726562 179.480469 88.34375 179.0625 88.042969 C 178.679688 88.566406 178.277344 89.09375 177.871094 89.597656 C 177.808594 89.695312 177.714844 89.769531 177.601562 89.808594 C 177.527344 90.054688 177.710938 90.3125 177.847656 90.53125 L 178.585938 91.722656 C 178.832031 92.152344 179.132812 92.554688 179.480469 92.917969 C 179.832031 93.28125 180.316406 93.503906 180.832031 93.546875 C 181.160156 93.542969 181.484375 93.484375 181.789062 93.371094 C 183.199219 92.917969 184.492188 92.195312 185.832031 91.578125 C 186.074219 91.449219 186.347656 91.371094 186.625 91.355469 C 186.914062 91.351562 187.171875 91.527344 187.253906 91.789062 C 187.40625 92.53125 187.558594 93.273438 187.773438 94 C 187.972656 94.6875 188.15625 95.378906 188.328125 96.074219 C 188.441406 96.5 188.523438 96.933594 188.570312 97.371094 C 188.59375 97.617188 188.597656 97.867188 188.597656 98.117188 L 188.625 101.121094 C 188.628906 101.445312 188.4375 101.648438 188.289062 101.9375 C 188.0625 102.390625 188.027344 102.910156 188.191406 103.382812 C 188.277344 103.617188 188.40625 103.835938 188.5 104.066406 C 188.722656 104.625 188.714844 105.242188 188.703125 105.839844 L 188.675781 107.214844 C 188.667969 107.269531 188.679688 107.328125 188.707031 107.378906 C 188.792969 107.511719 189.003906 107.433594 189.140625 107.34375 L 189.808594 106.898438 C 190.707031 107.019531 191.613281 107.058594 192.519531 107.027344 C 195.09375 106.988281 197.667969 107.085938 200.238281 107.257812 C 201.09375 107.316406 201.980469 107.378906 202.792969 107.105469 C 203.203125 106.96875 203.582031 106.746094 204 106.632812 C 204.175781 106.609375 204.339844 106.542969 204.480469 106.445312 C 204.71875 106.238281 204.65625 105.871094 204.558594 105.578125 C 204.476562 105.324219 204.378906 105.070312 204.273438 104.824219 C 204.164062 104.59375 204.074219 104.359375 204.003906 104.117188 C 203.875 103.570312 204.003906 102.9375 203.644531 102.492188 C 202.847656 101.492188 203.414062 99.957031 203.078125 98.742188 C 202.96875 98.351562 202.808594 97.972656 202.707031 97.578125 C 202.644531 97.332031 202.605469 97.078125 202.5625 96.824219 C 202.457031 96.28125 202.40625 95.726562 202.410156 95.171875 C 202.417969 94.894531 202.453125 94.617188 202.492188 94.34375 L 202.746094 92.429688 C 203.0625 92.996094 203.28125 93.605469 203.398438 94.238281 C 203.628906 95.183594 203.910156 96.113281 204.246094 97.027344 C 204.4375 97.582031 204.628906 98.132812 204.835938 98.679688 C 204.964844 98.988281 205.066406 99.3125 205.136719 99.640625 C 205.183594 99.90625 205.183594 100.175781 205.214844 100.441406 C 205.285156 101.015625 205.492188 101.5625 205.828125 102.042969 C 205.886719 102.15625 205.988281 102.242188 206.113281 102.285156 C 206.195312 102.300781 206.28125 102.296875 206.363281 102.277344 C 207.257812 102.109375 208.125 101.820312 208.9375 101.425781 C 209.109375 101.355469 209.261719 101.246094 209.371094 101.101562 C 209.589844 100.761719 209.347656 100.335938 209.238281 99.949219 C 209.125 99.535156 209.152344 99.035156 208.8125 98.757812 C 207.625 97.792969 208.214844 95.828125 207.617188 94.449219 C 207.515625 94.207031 207.394531 93.972656 207.304688 93.726562 C 207.234375 93.535156 207.183594 93.34375 207.132812 93.148438 C 206.71875 91.542969 206.273438 89.941406 205.800781 88.351562 C 205.3125 86.699219 205.363281 84.980469 204.746094 83.371094 C 204.628906 83.035156 204.476562 82.707031 204.292969 82.398438 C 204.085938 82.078125 203.804688 81.800781 203.472656 81.59375 C 202.578125 81.027344 201.671875 80.542969 200.621094 80.335938 C 199.566406 80.132812 198.425781 80.164062 197.351562 80.167969 Z M 197.351562 80.167969 "/>
<path style=" stroke:none;fill-rule:nonzero;fill:rgb(18.431373%,18.039216%,25.490196%);fill-opacity:1;" d="M 189.429688 76.253906 C 188.972656 76.019531 189.09375 75.382812 189.015625 74.894531 C 188.855469 73.886719 187.664062 73.289062 187.386719 72.304688 C 187.707031 72.34375 188.03125 72.296875 188.332031 72.175781 C 188.386719 71.851562 188.320312 71.515625 188.140625 71.234375 C 189.121094 70.851562 189.910156 70.105469 190.90625 69.761719 C 192.15625 69.332031 193.546875 69.597656 194.808594 69.996094 C 195.4375 70.195312 196.09375 70.457031 196.472656 70.976562 C 196.890625 71.546875 196.886719 72.296875 196.863281 72.992188 C 196.828125 74.085938 196.78125 75.214844 196.273438 76.195312 C 195.628906 77.441406 193.792969 78.59375 192.28125 78.257812 C 191.652344 78.117188 191.464844 77.738281 191.199219 77.214844 C 191.035156 76.890625 190.972656 76.511719 190.601562 76.339844 C 190.238281 76.175781 189.796875 76.445312 189.429688 76.253906 Z M 189.429688 76.253906 "/>
<use xlink:href="#surface23" mask="url(#mask6)"/>
<use xlink:href="#surface26" mask="url(#mask7)"/>
<path style=" stroke:none;fill-rule:nonzero;fill:rgb(100%,39.607843%,51.764706%);fill-opacity:1;" d="M 81.457031 65.09375 L 80.65625 64.402344 C 77.816406 61.910156 75.945312 60.292969 75.945312 58.277344 C 75.929688 57.503906 76.246094 56.753906 76.816406 56.207031 C 77.386719 55.65625 78.164062 55.351562 78.976562 55.359375 C 79.933594 55.363281 80.839844 55.773438 81.457031 56.472656 C 82.070312 55.773438 82.980469 55.363281 83.9375 55.359375 C 84.746094 55.351562 85.527344 55.65625 86.097656 56.207031 C 86.667969 56.753906 86.984375 57.503906 86.96875 58.277344 C 86.96875 60.292969 85.09375 61.910156 82.257812 64.402344 Z M 81.457031 65.09375 "/>
<path style="fill:none;stroke-width:2;stroke-linecap:butt;stroke-linejoin:miter;stroke:rgb(24.705882%,23.921569%,33.72549%);stroke-opacity:1;stroke-miterlimit:10;" d="M 60.73219 48.326875 L 60.129782 47.78609 C 57.996375 45.825744 56.585858 44.55367 56.585858 42.968187 C 56.574104 42.356731 56.812129 41.769857 57.241161 41.336614 C 57.670193 40.906444 58.257908 40.666778 58.866194 40.672923 C 59.586145 40.675996 60.267895 40.995551 60.73219 41.548626 C 61.196485 40.995551 61.878235 40.675996 62.598186 40.672923 C 63.206471 40.666778 63.794187 40.906444 64.223219 41.336614 C 64.652251 41.769857 64.890276 42.356731 64.878522 42.968187 C 64.878522 44.55367 63.468005 45.825744 61.334598 47.78609 Z M 60.73219 48.326875 " transform="matrix(1.3293,0,0,1.2713,2.1437,1.9097)"/>
</g>
</svg>
