<?xml version="1.0" encoding="UTF-8"?>
<svg xmlns="http://www.w3.org/2000/svg" xmlns:xlink="http://www.w3.org/1999/xlink" width="320pt" height="160pt" viewBox="0 0 320 160" version="1.1">
<defs>
<linearGradient id="linear0" gradientUnits="userSpaceOnUse" x1="0.5" y1="1.0001" x2="0.5" y2="-0.000087" gradientTransform="matrix(171,0,0,149.464844,76.390625,4.25)">
<stop offset="0" style="stop-color:rgb(50.196078%,50.196078%,50.196078%);stop-opacity:0.25098;"/>
<stop offset="0.54" style="stop-color:rgb(50.196078%,50.196078%,50.196078%);stop-opacity:0.121569;"/>
<stop offset="1" style="stop-color:rgb(50.196078%,50.196078%,50.196078%);stop-opacity:0.101961;"/>
</linearGradient>
<filter id="alpha" filterUnits="objectBoundingBox" x="0%" y="0%" width="100%" height="100%">
  <feColorMatrix type="matrix" in="SourceGraphic" values="0 0 0 0 1 0 0 0 0 1 0 0 0 0 1 0 0 0 1 0"/>
</filter>
<mask id="mask0">
  <g filter="url(#alpha)">
<rect x="0" y="0" width="320" height="160" style="fill:rgb(0%,0%,0%);fill-opacity:0.101961;stroke:none;"/>
  </g>
</mask>
<clipPath id="clip1">
  <rect width="320" height="160"/>
</clipPath>
<g id="surface6" clip-path="url(#clip1)">
<path style=" stroke:none;fill-rule:nonzero;fill:rgb(0%,0%,0%);fill-opacity:1;" d="M 164 62.128906 C 162.847656 65.277344 161.859375 68.136719 161.011719 70.726562 C 154.195312 75.9375 144.835938 75.332031 138.675781 69.28125 C 138.097656 63.472656 137.347656 59.179688 137.347656 59.179688 Z M 164 62.128906 "/>
</g>
<mask id="mask1">
  <g filter="url(#alpha)">
<rect x="0" y="0" width="320" height="160" style="fill:rgb(0%,0%,0%);fill-opacity:0.0509804;stroke:none;"/>
  </g>
</mask>
<clipPath id="clip2">
  <rect width="320" height="160"/>
</clipPath>
<g id="surface9" clip-path="url(#clip2)">
<path style=" stroke:none;fill-rule:nonzero;fill:rgb(0%,0%,0%);fill-opacity:1;" d="M 168.941406 96.253906 L 167.546875 98.453125 L 161.972656 98.847656 L 161.972656 94.898438 C 161.972656 94.898438 160.636719 90.304688 160.636719 89.957031 C 160.636719 89.609375 158.410156 85.492188 158.410156 85.492188 L 157.511719 84.753906 L 158.429688 85.011719 C 162.421875 86.375 167.816406 89.453125 168.941406 96.25 Z M 168.941406 96.253906 "/>
</g>
<mask id="mask2">
  <g filter="url(#alpha)">
<rect x="0" y="0" width="320" height="160" style="fill:rgb(0%,0%,0%);fill-opacity:0.101961;stroke:none;"/>
  </g>
</mask>
<clipPath id="clip3">
  <rect width="320" height="160"/>
</clipPath>
<g id="surface12" clip-path="url(#clip3)">
<path style=" stroke:none;fill-rule:nonzero;fill:rgb(0%,0%,0%);fill-opacity:1;" d="M 176.378906 116.679688 L 177.089844 121.691406 L 163.929688 97.9375 L 169.195312 95.507812 L 169.242188 95.613281 L 169.277344 95.683594 C 169.320312 96.914062 170.21875 99.347656 171.464844 102.15625 C 173.53125 106.824219 175.175781 111.6875 176.378906 116.679688 Z M 176.378906 116.679688 "/>
</g>
<mask id="mask3">
  <g filter="url(#alpha)">
<rect x="0" y="0" width="320" height="160" style="fill:rgb(0%,0%,0%);fill-opacity:0.101961;stroke:none;"/>
  </g>
</mask>
<clipPath id="clip4">
  <rect width="320" height="160"/>
</clipPath>
<g id="surface15" clip-path="url(#clip4)">
<path style=" stroke:none;fill-rule:nonzero;fill:rgb(0%,0%,0%);fill-opacity:1;" d="M 142.550781 29.691406 C 135.613281 28.867188 128.273438 30.660156 122.875 35.324219 C 117.476562 39.984375 114.320312 47.65625 115.53125 54.898438 C 116.546875 60.925781 120.382812 66.710938 119.015625 72.660156 C 117.714844 78.308594 112.285156 81.597656 107.367188 84.230469 L 90.195312 93.433594 C 88.339844 94.425781 86.339844 95.585938 85.589844 97.628906 C 84.804688 99.746094 85.628906 102.136719 86.730469 104.09375 C 87.832031 106.050781 89.238281 107.875 89.753906 110.082031 C 90.410156 112.898438 89.480469 115.882812 88.042969 118.355469 C 86.609375 120.824219 84.679688 122.929688 83.054688 125.269531 C 80.796875 128.511719 79.113281 132.304688 78.863281 136.3125 C 78.613281 140.320312 79.976562 144.550781 82.917969 147.105469 C 85.621094 149.445312 89.277344 150.140625 92.773438 150.320312 C 99.785156 150.6875 106.757812 149.324219 113.667969 147.96875 L 120.308594 146.660156 C 126.421875 145.460938 133.050781 143.953125 137.03125 138.910156 C 141.636719 133.078125 141.105469 124.605469 140.199219 117.085938 C 139.296875 109.5625 138.4375 101.21875 142.617188 95.042969 C 145.351562 90.996094 149.925781 88.488281 152.097656 84.082031 C 156.078125 76.023438 150.289062 66.097656 152.15625 57.234375 C 152.6875 54.722656 153.816406 52.398438 154.523438 49.9375 C 155.777344 45.554688 155.910156 39.238281 153.761719 35.066406 C 151.78125 31.242188 146.28125 30.136719 142.550781 29.695312 Z M 142.550781 29.691406 "/>
</g>
<mask id="mask4">
  <g filter="url(#alpha)">
<rect x="0" y="0" width="320" height="160" style="fill:rgb(0%,0%,0%);fill-opacity:0.101961;stroke:none;"/>
  </g>
</mask>
<clipPath id="clip5">
  <rect width="320" height="160"/>
</clipPath>
<g id="surface18" clip-path="url(#clip5)">
<path style=" stroke:none;fill-rule:nonzero;fill:rgb(0%,0%,0%);fill-opacity:1;" d="M 142.21875 29.691406 C 135.285156 28.867188 127.945312 30.660156 122.546875 35.324219 C 117.144531 39.984375 113.988281 47.65625 115.203125 54.898438 C 116.21875 60.925781 120.050781 66.710938 118.683594 72.660156 C 117.386719 78.308594 111.953125 81.597656 107.039062 84.230469 L 89.863281 93.433594 C 88.011719 94.425781 86.007812 95.585938 85.257812 97.628906 C 84.476562 99.746094 85.296875 102.136719 86.398438 104.09375 C 87.503906 106.050781 88.910156 107.875 89.425781 110.082031 C 90.082031 112.898438 89.152344 115.882812 87.714844 118.355469 C 86.277344 120.824219 84.347656 122.929688 82.726562 125.269531 C 80.464844 128.511719 78.78125 132.304688 78.53125 136.3125 C 78.28125 140.320312 79.644531 144.550781 82.589844 147.105469 C 85.292969 149.445312 88.945312 150.140625 92.441406 150.320312 C 99.453125 150.6875 106.425781 149.324219 113.335938 147.96875 L 119.976562 146.660156 C 126.09375 145.460938 132.722656 143.953125 136.699219 138.910156 C 141.308594 133.078125 140.777344 124.605469 139.871094 117.085938 C 138.964844 109.5625 138.105469 101.21875 142.289062 95.042969 C 145.019531 90.996094 149.59375 88.488281 151.769531 84.082031 C 155.746094 76.023438 149.957031 66.097656 151.824219 57.234375 C 152.355469 54.722656 153.488281 52.398438 154.195312 49.9375 C 155.449219 45.554688 155.582031 39.238281 153.429688 35.066406 C 151.449219 31.242188 145.949219 30.136719 142.21875 29.695312 Z M 142.21875 29.691406 "/>
</g>
<mask id="mask5">
  <g filter="url(#alpha)">
<rect x="0" y="0" width="320" height="160" style="fill:rgb(0%,0%,0%);fill-opacity:0.101961;stroke:none;"/>
  </g>
</mask>
<clipPath id="clip6">
  <rect width="320" height="160"/>
</clipPath>
<g id="surface21" clip-path="url(#clip6)">
<path style=" stroke:none;fill-rule:nonzero;fill:rgb(0%,0%,0%);fill-opacity:1;" d="M 140.820312 117.730469 L 160.054688 142.238281 C 160.054688 142.238281 178.480469 156.109375 183.578125 145.878906 C 183.578125 145.878906 185.71875 117.960938 183.25 111.375 C 180.785156 104.785156 179.960938 100.621094 179.960938 100.621094 C 179.960938 100.621094 169.761719 104.785156 169.101562 101.835938 L 169.347656 130.011719 C 169.347656 130.011719 157.75 85.015625 146.5625 90.566406 C 146.40625 90.644531 146.253906 90.71875 146.101562 90.800781 C 136.527344 95.816406 133.996094 109.039062 140.820312 117.730469 Z M 140.820312 117.730469 "/>
</g>
<mask id="mask6">
  <g filter="url(#alpha)">
<rect x="0" y="0" width="320" height="160" style="fill:rgb(0%,0%,0%);fill-opacity:0.2;stroke:none;"/>
  </g>
</mask>
<clipPath id="clip7">
  <rect width="320" height="160"/>
</clipPath>
<g id="surface24" clip-path="url(#clip7)">
<path style=" stroke:none;fill-rule:nonzero;fill:rgb(0%,0%,0%);fill-opacity:1;" d="M 179.679688 28.453125 C 177.566406 28.457031 175.855469 30.175781 175.859375 32.292969 C 175.863281 34.410156 177.578125 36.121094 179.695312 36.121094 C 181.808594 36.117188 183.523438 34.398438 183.519531 32.285156 C 183.523438 31.265625 183.117188 30.289062 182.394531 29.570312 C 181.675781 28.847656 180.699219 28.449219 179.679688 28.453125 Z M 179.679688 34.78125 C 178.304688 34.78125 177.191406 33.664062 177.191406 32.289062 C 177.191406 30.914062 178.304688 29.796875 179.679688 29.796875 C 181.054688 29.796875 182.167969 30.914062 182.167969 32.289062 C 182.167969 33.664062 181.054688 34.777344 179.679688 34.78125 Z M 184.558594 28.296875 C 184.558594 28.792969 184.160156 29.191406 183.664062 29.191406 C 183.171875 29.191406 182.769531 28.792969 182.769531 28.296875 C 182.769531 27.804688 183.171875 27.402344 183.664062 27.402344 C 183.902344 27.402344 184.128906 27.496094 184.296875 27.664062 C 184.464844 27.832031 184.558594 28.058594 184.558594 28.296875 Z M 187.097656 29.203125 C 187.039062 28.007812 186.765625 26.945312 185.890625 26.070312 C 185.015625 25.195312 183.957031 24.921875 182.757812 24.863281 C 181.523438 24.792969 177.828125 24.792969 176.597656 24.863281 C 175.402344 24.921875 174.34375 25.195312 173.464844 26.070312 C 172.585938 26.941406 172.316406 28.003906 172.257812 29.203125 C 172.1875 30.4375 172.1875 34.136719 172.257812 35.371094 C 172.316406 36.566406 172.589844 37.628906 173.464844 38.503906 C 174.339844 39.378906 175.398438 39.652344 176.597656 39.710938 C 177.832031 39.78125 181.527344 39.78125 182.757812 39.710938 C 183.957031 39.652344 185.015625 39.378906 185.890625 38.503906 C 186.761719 37.628906 187.039062 36.566406 187.097656 35.371094 C 187.167969 34.136719 187.167969 30.449219 187.097656 29.203125 Z M 185.503906 36.703125 C 185.246094 37.351562 184.734375 37.867188 184.085938 38.125 C 183.101562 38.515625 180.765625 38.421875 179.679688 38.421875 C 178.59375 38.421875 176.257812 38.511719 175.273438 38.125 C 174.625 37.867188 174.113281 37.351562 173.855469 36.703125 C 173.464844 35.71875 173.554688 33.382812 173.554688 32.296875 C 173.554688 31.207031 173.46875 28.867188 173.855469 27.886719 C 174.113281 27.238281 174.625 26.722656 175.273438 26.46875 C 176.257812 26.074219 178.59375 26.167969 179.679688 26.167969 C 180.765625 26.167969 183.101562 26.082031 184.085938 26.46875 C 184.734375 26.722656 185.246094 27.238281 185.503906 27.886719 C 185.894531 28.871094 185.804688 31.207031 185.804688 32.296875 C 185.804688 33.382812 185.890625 35.710938 185.503906 36.6875 Z M 185.503906 36.703125 "/>
</g>
</defs>
<g id="surface1">
<rect x="0" y="0" width="320" height="160" style="fill:rgb(100%,100%,100%);fill-opacity:1;stroke:none;"/>
<path style="fill:none;stroke-width:2;stroke-linecap:butt;stroke-linejoin:miter;stroke:rgb(32.54902%,32.941176%,38.039216%);stroke-opacity:1;stroke-miterlimit:10;" d="M 99.367188 96.394531 C 99.367188 96.394531 89.710938 76.453125 93.949219 59.535156 C 95.726562 52.425781 95.402344 44.925781 92.785156 38.117188 C 91.535156 34.894531 90.007812 31.796875 88.226562 28.867188 "/>
<path style=" stroke:none;fill-rule:nonzero;fill:rgb(100%,75.686275%,2.745098%);fill-opacity:1;" d="M 90.835938 18.179688 C 91.296875 20.769531 88.1875 29.148438 88.1875 29.148438 C 88.1875 29.148438 82.410156 22.523438 81.949219 19.941406 C 81.554688 17.386719 83.164062 14.96875 85.578125 14.488281 C 87.992188 14.011719 90.324219 15.652344 90.835938 18.179688 Z M 90.835938 18.179688 "/>
<path style=" stroke:none;fill-rule:nonzero;fill:rgb(100%,75.686275%,2.745098%);fill-opacity:1;" d="M 100.730469 31.054688 C 99.78125 33.484375 92.851562 38.746094 92.851562 38.746094 C 92.851562 38.746094 91.417969 29.875 92.359375 27.441406 C 92.964844 25.855469 94.332031 24.734375 95.9375 24.5 C 97.542969 24.269531 99.144531 24.960938 100.136719 26.316406 C 101.125 27.667969 101.347656 29.476562 100.726562 31.054688 Z M 100.730469 31.054688 "/>
<path style=" stroke:none;fill-rule:nonzero;fill:rgb(100%,75.686275%,2.745098%);fill-opacity:1;" d="M 104.78125 55.601562 C 102.796875 57.199219 94.300781 58.046875 94.300781 58.046875 C 94.300781 58.046875 97.304688 49.625 99.289062 48.027344 C 101.273438 46.429688 104.113281 46.832031 105.628906 48.921875 C 107.144531 51.011719 106.765625 54.003906 104.78125 55.601562 Z M 104.78125 55.601562 "/>
<path style=" stroke:none;fill-rule:nonzero;fill:rgb(100%,75.686275%,2.745098%);fill-opacity:1;" d="M 103.859375 74.898438 C 102.160156 76.828125 93.917969 79.175781 93.917969 79.175781 C 93.917969 79.175781 95.535156 70.339844 97.234375 68.410156 C 98.9375 66.503906 101.78125 66.40625 103.601562 68.1875 C 105.421875 69.96875 105.535156 72.964844 103.859375 74.894531 Z M 103.859375 74.898438 "/>
<path style=" stroke:none;fill-rule:nonzero;fill:rgb(100%,75.686275%,2.745098%);fill-opacity:1;" d="M 83.613281 41.089844 C 85.695312 42.542969 94.226562 42.789062 94.226562 42.789062 C 94.226562 42.789062 90.691406 34.601562 88.609375 33.144531 C 86.527344 31.691406 83.722656 32.289062 82.34375 34.484375 C 80.960938 36.675781 81.53125 39.636719 83.613281 41.089844 Z M 83.613281 41.089844 "/>
<path style=" stroke:none;fill-rule:nonzero;fill:rgb(100%,75.686275%,2.745098%);fill-opacity:1;" d="M 82.820312 63.671875 C 85.21875 64.402344 93.429688 61.9375 93.429688 61.9375 C 93.429688 61.9375 87.730469 55.242188 85.332031 54.507812 C 82.949219 53.824219 80.484375 55.28125 79.796875 57.78125 C 79.109375 60.285156 80.457031 62.902344 82.820312 63.664062 Z M 82.820312 63.671875 "/>
<path style=" stroke:none;fill-rule:nonzero;fill:rgb(100%,75.686275%,2.745098%);fill-opacity:1;" d="M 84.902344 85.730469 C 87.152344 86.878906 95.636719 85.921875 95.636719 85.921875 C 95.636719 85.921875 91.09375 78.304688 88.847656 77.15625 C 86.601562 76.007812 83.894531 76.996094 82.804688 79.363281 C 81.714844 81.730469 82.652344 84.582031 84.898438 85.730469 Z M 84.902344 85.730469 "/>
<path style=" stroke:none;fill-rule:nonzero;fill:rgb(98.823529%,40%,50.588235%);fill-opacity:1;" d="M 90.835938 18.179688 C 91.296875 20.769531 88.1875 29.148438 88.1875 29.148438 C 88.1875 29.148438 82.410156 22.523438 81.949219 19.941406 C 81.554688 17.386719 83.164062 14.96875 85.578125 14.488281 C 87.992188 14.011719 90.324219 15.652344 90.835938 18.179688 Z M 90.835938 18.179688 "/>
<path style=" stroke:none;fill-rule:nonzero;fill:rgb(98.823529%,40%,50.588235%);fill-opacity:1;" d="M 100.730469 31.054688 C 99.78125 33.484375 92.851562 38.746094 92.851562 38.746094 C 92.851562 38.746094 91.417969 29.875 92.359375 27.441406 C 92.964844 25.855469 94.332031 24.734375 95.9375 24.5 C 97.542969 24.269531 99.144531 24.960938 100.136719 26.316406 C 101.125 27.667969 101.347656 29.476562 100.726562 31.054688 Z M 100.730469 31.054688 "/>
<path style=" stroke:none;fill-rule:nonzero;fill:rgb(98.823529%,40%,50.588235%);fill-opacity:1;" d="M 104.78125 55.601562 C 102.796875 57.199219 94.300781 58.046875 94.300781 58.046875 C 94.300781 58.046875 97.304688 49.625 99.289062 48.027344 C 101.273438 46.429688 104.113281 46.832031 105.628906 48.921875 C 107.144531 51.011719 106.765625 54.003906 104.78125 55.601562 Z M 104.78125 55.601562 "/>
<path style=" stroke:none;fill-rule:nonzero;fill:rgb(98.823529%,40%,50.588235%);fill-opacity:1;" d="M 103.859375 74.898438 C 102.160156 76.828125 93.917969 79.175781 93.917969 79.175781 C 93.917969 79.175781 95.535156 70.339844 97.234375 68.410156 C 98.9375 66.503906 101.78125 66.40625 103.601562 68.1875 C 105.421875 69.96875 105.535156 72.964844 103.859375 74.894531 Z M 103.859375 74.898438 "/>
<path style=" stroke:none;fill-rule:nonzero;fill:rgb(98.823529%,40%,50.588235%);fill-opacity:1;" d="M 83.613281 41.089844 C 85.695312 42.542969 94.226562 42.789062 94.226562 42.789062 C 94.226562 42.789062 90.691406 34.601562 88.609375 33.144531 C 86.527344 31.691406 83.722656 32.289062 82.34375 34.484375 C 80.960938 36.675781 81.53125 39.636719 83.613281 41.089844 Z M 83.613281 41.089844 "/>
<path style=" stroke:none;fill-rule:nonzero;fill:rgb(98.823529%,40%,50.588235%);fill-opacity:1;" d="M 82.820312 63.671875 C 85.21875 64.402344 93.429688 61.9375 93.429688 61.9375 C 93.429688 61.9375 87.730469 55.242188 85.332031 54.507812 C 82.949219 53.824219 80.484375 55.28125 79.796875 57.78125 C 79.109375 60.285156 80.457031 62.902344 82.820312 63.664062 Z M 82.820312 63.671875 "/>
<path style=" stroke:none;fill-rule:nonzero;fill:rgb(98.823529%,40%,50.588235%);fill-opacity:1;" d="M 84.902344 85.730469 C 87.152344 86.878906 95.636719 85.921875 95.636719 85.921875 C 95.636719 85.921875 91.09375 78.304688 88.847656 77.15625 C 86.601562 76.007812 83.894531 76.996094 82.804688 79.363281 C 81.714844 81.730469 82.652344 84.582031 84.898438 85.730469 Z M 84.902344 85.730469 "/>
<path style="fill:none;stroke-width:2;stroke-linecap:butt;stroke-linejoin:miter;stroke:rgb(32.54902%,32.941176%,38.039216%);stroke-opacity:1;stroke-miterlimit:10;" d="M 227.5 59.226562 C 227.5 59.226562 239.753906 38.925781 241.234375 30.257812 C 242.71875 21.585938 245.511719 13.609375 245.511719 13.609375 "/>
<path style=" stroke:none;fill-rule:nonzero;fill:rgb(100%,75.686275%,2.745098%);fill-opacity:1;" d="M 248.308594 30.949219 L 240.578125 31.644531 C 240.578125 31.644531 244.691406 39.097656 248.308594 30.949219 Z M 248.308594 30.949219 "/>
<path style=" stroke:none;fill-rule:nonzero;fill:rgb(100%,75.686275%,2.745098%);fill-opacity:1;" d="M 234.820312 26.441406 L 240.941406 31.609375 C 240.941406 31.609375 233.011719 34.9375 234.820312 26.441406 Z M 234.820312 26.441406 "/>
<path style=" stroke:none;fill-rule:nonzero;fill:rgb(100%,75.686275%,2.745098%);fill-opacity:1;" d="M 249.289062 23.839844 L 242.328125 24.820312 C 242.328125 24.820312 248.46875 30.082031 249.289062 23.839844 Z M 249.289062 23.839844 "/>
<path style=" stroke:none;fill-rule:nonzero;fill:rgb(100%,75.686275%,2.745098%);fill-opacity:1;" d="M 237.78125 21.238281 L 242.375 24.636719 C 242.375 24.636719 236.792969 27.132812 237.78125 21.238281 Z M 237.78125 21.238281 "/>
<path style=" stroke:none;fill-rule:nonzero;fill:rgb(100%,75.686275%,2.745098%);fill-opacity:1;" d="M 244.078125 18.148438 C 244.078125 18.148438 249.785156 16.554688 250.609375 16.902344 C 251.433594 17.25 250.9375 21.066406 248.636719 21.238281 C 246.332031 21.410156 244.078125 18.148438 244.078125 18.148438 Z M 244.078125 18.148438 "/>
<path style=" stroke:none;fill-rule:nonzero;fill:rgb(100%,75.686275%,2.745098%);fill-opacity:1;" d="M 240.238281 13.609375 C 240.238281 13.609375 243.859375 17.25 244.023438 18.117188 C 244.1875 18.984375 241.0625 21.066406 239.417969 18.117188 C 237.773438 15.167969 240.238281 13.609375 240.238281 13.609375 Z M 240.238281 13.609375 "/>
<path style=" stroke:none;fill-rule:nonzero;fill:rgb(100%,81.568627%,21.568627%);fill-opacity:1;" d="M 248.726562 13.90625 C 248.726562 14.863281 247.992188 15.640625 247.082031 15.640625 C 246.171875 15.640625 245.4375 14.863281 245.4375 13.90625 C 245.4375 12.949219 246.171875 12.171875 247.082031 12.171875 C 247.992188 12.171875 248.726562 12.949219 248.726562 13.90625 Z M 248.726562 13.90625 "/>
<path style=" stroke:none;fill-rule:nonzero;fill:rgb(100%,81.568627%,21.568627%);fill-opacity:1;" d="M 245.765625 13.039062 C 245.765625 14 245.03125 14.773438 244.121094 14.773438 C 243.210938 14.773438 242.476562 14 242.476562 13.039062 C 242.476562 12.082031 243.210938 11.304688 244.121094 11.304688 C 245.03125 11.304688 245.765625 12.082031 245.765625 13.039062 Z M 245.765625 13.039062 "/>
<path style=" stroke:none;fill-rule:nonzero;fill:url(#linear0);" d="M 247.390625 50.15625 C 246.75 41.800781 243.144531 33.746094 237.484375 29.03125 C 231.425781 23.980469 223.777344 23.039062 216.882812 20.015625 C 209.761719 16.882812 203.429688 11.5 196.378906 8.140625 C 184.824219 2.652344 171.53125 2.972656 160.222656 9.007812 C 152.550781 13.089844 144.777344 22.632812 136.230469 23.351562 C 130.144531 23.863281 117.949219 17.433594 113.199219 23.515625 C 112.332031 24.625 111.996094 26.183594 111.625 27.652344 C 108.613281 39.476562 101.199219 48.980469 92.753906 55.785156 C 89.179688 58.664062 84.824219 62.523438 85.605469 67.683594 C 86.027344 70.457031 87.878906 72.492188 89.253906 74.75 C 92.132812 79.476562 93.066406 85.902344 91.695312 91.558594 C 91.667969 91.667969 91.636719 91.78125 91.605469 91.902344 L 88.015625 93.828125 C 86.113281 94.847656 84.066406 96.039062 83.285156 98.128906 C 82.480469 100.300781 83.324219 102.757812 84.457031 104.761719 C 85.265625 106.195312 86.230469 107.566406 86.910156 109.058594 C 86.953125 109.550781 87.019531 110.035156 87.117188 110.515625 C 87.273438 111.238281 87.492188 111.945312 87.777344 112.621094 C 87.835938 114.972656 86.992188 117.351562 85.800781 119.382812 C 84.320312 121.917969 82.347656 124.078125 80.683594 126.476562 C 78.375 129.785156 76.640625 133.667969 76.390625 137.78125 C 76.144531 141.894531 77.53125 146.234375 80.554688 148.847656 C 83.328125 151.25 87.074219 151.96875 90.660156 152.144531 C 91.566406 152.191406 92.476562 152.210938 93.382812 152.203125 C 99.773438 152.203125 106.128906 150.964844 112.425781 149.726562 L 119.238281 148.390625 C 122.363281 147.773438 125.628906 147.078125 128.617188 145.894531 C 128.535156 146.554688 128.414062 147.210938 128.253906 147.855469 C 127.753906 149.730469 127.539062 151.679688 127.609375 153.628906 L 161.144531 153.628906 C 161.144531 153.65625 161.15625 153.6875 161.164062 153.714844 L 181.945312 153.714844 L 181.910156 153.628906 L 181.945312 153.628906 C 181.945312 153.628906 181.628906 152.574219 181.203125 150.652344 C 181.691406 150.40625 182.144531 150.089844 182.554688 149.71875 C 183.515625 149.050781 184.296875 148.128906 184.816406 147.046875 C 184.816406 147.046875 185.816406 128.175781 184.835938 117.457031 C 195.609375 109.902344 204.855469 98.835938 216.167969 92.382812 C 222.046875 89.039062 228.445312 86.957031 233.894531 82.632812 C 236.960938 80.167969 239.597656 77.160156 241.683594 73.742188 C 245.808594 67.046875 248.03125 58.519531 247.390625 50.15625 Z M 247.390625 50.15625 "/>
<path style=" stroke:none;fill-rule:nonzero;fill:rgb(100%,75.686275%,2.745098%);fill-opacity:1;" d="M 114.699219 24.878906 C 113.855469 25.960938 113.527344 27.480469 113.164062 28.914062 C 110.226562 40.445312 103 49.722656 94.765625 56.34375 C 91.28125 59.148438 87.03125 62.914062 87.796875 67.941406 C 88.207031 70.644531 90.007812 72.625 91.351562 74.832031 C 94.160156 79.441406 95.070312 85.703125 93.730469 91.21875 C 92.207031 97.492188 87.953125 103.355469 89.273438 109.695312 C 90.085938 113.609375 92.84375 116.382812 95.492188 118.773438 C 99.628906 122.496094 103.898438 125.988281 108.296875 129.238281 C 111.246094 131.421875 114.386719 133.542969 117.820312 133.820312 C 120.847656 134.0625 123.8125 132.851562 126.6875 131.652344 C 129.195312 130.613281 131.769531 129.519531 133.796875 127.421875 C 135.113281 126.054688 136.175781 124.289062 137.644531 123.167969 C 141.101562 120.539062 145.535156 122.207031 149.492188 123.328125 C 158.910156 125.960938 168.914062 124.996094 177.722656 120.601562 C 191.359375 113.839844 201.753906 99.664062 215.085938 92.054688 C 220.824219 88.78125 227.0625 86.75 232.371094 82.535156 C 235.363281 80.132812 237.933594 77.199219 239.96875 73.863281 C 243.988281 67.335938 246.15625 59.011719 245.53125 50.867188 C 244.910156 42.722656 241.390625 34.867188 235.875 30.269531 C 229.96875 25.347656 222.511719 24.425781 215.789062 21.472656 C 208.847656 18.417969 202.671875 13.167969 195.800781 9.894531 C 184.535156 4.542969 171.574219 4.851562 160.546875 10.734375 C 153.066406 14.714844 145.484375 24.019531 137.152344 24.71875 C 131.214844 25.226562 119.335938 18.957031 114.699219 24.878906 Z M 114.699219 24.878906 "/>
<path style=" stroke:none;fill-rule:nonzero;fill:rgb(100%,83.529412%,84.705882%);fill-opacity:1;" d="M 161.019531 70.726562 C 155.660156 87.246094 156.269531 92.820312 156.269531 92.820312 L 157.421875 102.183594 C 157.421875 102.183594 134.222656 105.652344 137.84375 94.207031 C 139.917969 87.644531 139.453125 77.09375 138.675781 69.28125 C 138.097656 63.472656 137.347656 59.179688 137.347656 59.179688 L 164 62.128906 C 162.847656 65.28125 161.863281 68.136719 161.019531 70.726562 Z M 161.019531 70.726562 "/>
<use xlink:href="#surface6" mask="url(#mask0)"/>
<path style=" stroke:none;fill-rule:nonzero;fill:rgb(100%,83.529412%,84.705882%);fill-opacity:1;" d="M 168.277344 55.351562 C 168.277344 65.597656 160.394531 73.902344 150.671875 73.902344 C 140.953125 73.902344 133.070312 65.597656 133.070312 55.351562 C 133.070312 45.101562 140.953125 36.796875 150.671875 36.796875 C 160.394531 36.796875 168.277344 45.101562 168.277344 55.351562 Z M 168.277344 55.351562 "/>
<path style=" stroke:none;fill-rule:nonzero;fill:rgb(100%,83.529412%,84.705882%);fill-opacity:1;" d="M 162.519531 103.21875 L 152.15625 98.539062 L 153.964844 83.972656 C 155.480469 84.160156 156.972656 84.507812 158.417969 85.011719 C 162.410156 86.375 167.796875 89.453125 168.929688 96.253906 C 168.929688 96.265625 168.929688 96.277344 168.929688 96.289062 C 170.746094 107.382812 162.519531 103.21875 162.519531 103.21875 Z M 162.519531 103.21875 "/>
<use xlink:href="#surface9" mask="url(#mask1)"/>
<path style=" stroke:none;fill-rule:nonzero;fill:rgb(100%,75.686275%,2.745098%);fill-opacity:1;" d="M 157.511719 84.757812 L 160.71875 91.085938 L 160.71875 98.886719 L 165.160156 100.101562 L 162.363281 91.953125 C 162.363281 91.953125 159.15625 85.449219 157.511719 84.757812 Z M 157.511719 84.757812 "/>
<path style=" stroke:none;fill-rule:nonzero;fill:rgb(100%,75.686275%,2.745098%);fill-opacity:1;" d="M 128.46875 151.769531 C 128.398438 149.871094 128.609375 147.972656 129.09375 146.140625 C 131.195312 138.011719 127.648438 111.546875 127.648438 111.546875 C 127.648438 111.546875 128.632812 89.007812 141.796875 85.191406 C 154.363281 81.550781 163.183594 96.5625 163.949219 97.925781 C 163.988281 97.988281 164.003906 98.023438 164.003906 98.023438 L 169.238281 95.613281 L 169.269531 95.597656 L 169.269531 95.683594 C 169.3125 96.914062 170.210938 99.347656 171.457031 102.15625 C 173.523438 106.824219 175.167969 111.6875 176.371094 116.679688 C 177.695312 122.160156 178.488281 127.765625 178.742188 133.414062 C 179.253906 144.484375 181.445312 151.769531 181.445312 151.769531 Z M 128.46875 151.769531 "/>
<use xlink:href="#surface12" mask="url(#mask2)"/>
<use xlink:href="#surface15" mask="url(#mask3)"/>
<path style=" stroke:none;fill-rule:nonzero;fill:rgb(100%,75.686275%,2.745098%);fill-opacity:1;" d="M 142.21875 29.691406 C 135.285156 28.867188 127.945312 30.660156 122.546875 35.324219 C 117.144531 39.984375 113.988281 47.65625 115.203125 54.898438 C 116.21875 60.925781 120.050781 66.710938 118.683594 72.660156 C 117.386719 78.308594 111.953125 81.597656 107.039062 84.230469 L 89.863281 93.433594 C 88.011719 94.425781 86.007812 95.585938 85.257812 97.628906 C 84.476562 99.746094 85.296875 102.136719 86.398438 104.09375 C 87.503906 106.050781 88.910156 107.875 89.425781 110.082031 C 90.082031 112.898438 89.152344 115.882812 87.714844 118.355469 C 86.277344 120.824219 84.347656 122.929688 82.726562 125.269531 C 80.464844 128.511719 78.78125 132.304688 78.53125 136.3125 C 78.28125 140.320312 79.644531 144.550781 82.589844 147.105469 C 85.292969 149.445312 88.945312 150.140625 92.441406 150.320312 C 99.453125 150.6875 106.425781 149.324219 113.335938 147.96875 L 119.976562 146.660156 C 126.09375 145.460938 132.722656 143.953125 136.699219 138.910156 C 141.308594 133.078125 140.777344 124.605469 139.871094 117.085938 C 138.964844 109.5625 138.105469 101.21875 142.289062 95.042969 C 145.019531 90.996094 149.59375 88.488281 151.769531 84.082031 C 155.746094 76.023438 149.957031 66.097656 151.824219 57.234375 C 152.355469 54.722656 153.488281 52.398438 154.195312 49.9375 C 155.449219 45.554688 155.582031 39.238281 153.429688 35.066406 C 151.449219 31.242188 145.949219 30.136719 142.21875 29.695312 Z M 142.21875 29.691406 "/>
<use xlink:href="#surface18" mask="url(#mask4)"/>
<path style=" stroke:none;fill-rule:nonzero;fill:rgb(100%,75.686275%,2.745098%);fill-opacity:1;" d="M 157.511719 84.757812 L 169.847656 108.632812 L 178.402344 104.003906 C 178.402344 104.003906 163.105469 82.15625 161.128906 82.503906 C 159.15625 82.847656 157.511719 84.757812 157.511719 84.757812 Z M 157.511719 84.757812 "/>
<path style=" stroke:none;fill-rule:nonzero;fill:rgb(100%,83.529412%,84.705882%);fill-opacity:1;" d="M 180.289062 101.488281 L 177.492188 92.820312 C 177.492188 92.820312 175.519531 71.492188 167.785156 70.796875 C 160.054688 70.105469 169.761719 93.511719 169.761719 93.511719 C 169.761719 93.511719 173.214844 100.277344 171.898438 105.304688 C 170.582031 110.332031 180.289062 101.488281 180.289062 101.488281 Z M 180.289062 101.488281 "/>
<use xlink:href="#surface21" mask="url(#mask5)"/>
<path style=" stroke:none;fill-rule:nonzero;fill:rgb(100%,75.686275%,2.745098%);fill-opacity:1;" d="M 141.480469 117.210938 L 160.714844 141.71875 C 160.714844 141.71875 179.140625 155.589844 184.238281 145.359375 C 184.238281 145.359375 185.71875 117.441406 183.253906 110.851562 C 180.785156 104.265625 180.621094 100.101562 180.621094 100.101562 C 180.621094 100.101562 170.421875 104.265625 169.761719 101.316406 L 170.175781 136.257812 C 170.175781 136.257812 158.410156 84.496094 147.222656 90.046875 C 147.066406 90.121094 146.914062 90.199219 146.761719 90.277344 C 137.1875 95.296875 134.660156 108.519531 141.480469 117.210938 Z M 141.480469 117.210938 "/>
<path style=" stroke:none;fill-rule:nonzero;fill:rgb(100%,100%,100%);fill-opacity:1;" d="M 191.640625 24.3125 C 191.640625 25.078125 191.050781 25.699219 190.324219 25.699219 C 189.597656 25.699219 189.007812 25.078125 189.007812 24.3125 C 189.007812 23.546875 189.597656 22.925781 190.324219 22.925781 C 191.050781 22.925781 191.640625 23.546875 191.640625 24.3125 Z M 191.640625 24.3125 "/>
<path style=" stroke:none;fill-rule:nonzero;fill:rgb(100%,100%,100%);fill-opacity:1;" d="M 186.703125 43.558594 C 186.703125 43.941406 186.410156 44.253906 186.046875 44.253906 C 185.683594 44.253906 185.386719 43.941406 185.386719 43.558594 C 185.386719 43.175781 185.683594 42.863281 186.046875 42.863281 C 186.410156 42.863281 186.703125 43.175781 186.703125 43.558594 Z M 186.703125 43.558594 "/>
<path style=" stroke:none;fill-rule:nonzero;fill:rgb(100%,100%,100%);fill-opacity:1;" d="M 162.023438 24.3125 C 162.023438 24.695312 161.730469 25.003906 161.367188 25.003906 C 161.003906 25.003906 160.710938 24.695312 160.710938 24.3125 C 160.710938 23.929688 161.003906 23.617188 161.367188 23.617188 C 161.730469 23.617188 162.023438 23.929688 162.023438 24.3125 Z M 162.023438 24.3125 "/>
<path style=" stroke:none;fill-rule:nonzero;fill:rgb(100%,100%,100%);fill-opacity:1;" d="M 107.238281 52.402344 C 107.238281 52.785156 106.945312 53.097656 106.582031 53.097656 C 106.21875 53.097656 105.925781 52.785156 105.925781 52.402344 C 105.925781 52.019531 106.21875 51.707031 106.582031 51.707031 C 106.945312 51.707031 107.238281 52.019531 107.238281 52.402344 Z M 107.238281 52.402344 "/>
<path style=" stroke:none;fill-rule:nonzero;fill:rgb(100%,100%,100%);fill-opacity:1;" d="M 145.410156 102.6875 C 145.410156 103.070312 145.113281 103.382812 144.75 103.382812 C 144.386719 103.382812 144.09375 103.070312 144.09375 102.6875 C 144.09375 102.304688 144.386719 101.996094 144.75 101.996094 C 145.113281 101.996094 145.410156 102.304688 145.410156 102.6875 Z M 145.410156 102.6875 "/>
<path style=" stroke:none;fill-rule:nonzero;fill:rgb(100%,100%,100%);fill-opacity:1;" d="M 100.824219 70.78125 C 100.824219 71.164062 100.527344 71.476562 100.164062 71.476562 C 99.800781 71.476562 99.507812 71.164062 99.507812 70.78125 C 99.507812 70.398438 99.800781 70.089844 100.164062 70.089844 C 100.527344 70.089844 100.824219 70.398438 100.824219 70.78125 Z M 100.824219 70.78125 "/>
<path style=" stroke:none;fill-rule:nonzero;fill:rgb(100%,100%,100%);fill-opacity:1;" d="M 215.164062 29.511719 C 215.164062 29.894531 214.871094 30.207031 214.507812 30.207031 C 214.144531 30.207031 213.847656 29.894531 213.847656 29.511719 C 213.847656 29.128906 214.144531 28.820312 214.507812 28.820312 C 214.871094 28.820312 215.164062 29.128906 215.164062 29.511719 Z M 215.164062 29.511719 "/>
<path style=" stroke:none;fill-rule:nonzero;fill:rgb(100%,100%,100%);fill-opacity:1;" d="M 177.820312 57.605469 C 177.820312 57.988281 177.523438 58.296875 177.160156 58.296875 C 176.796875 58.296875 176.503906 57.988281 176.503906 57.605469 C 176.503906 57.222656 176.796875 56.910156 177.160156 56.910156 C 177.523438 56.910156 177.820312 57.222656 177.820312 57.605469 Z M 177.820312 57.605469 "/>
<path style=" stroke:none;fill-rule:nonzero;fill:rgb(100%,100%,100%);fill-opacity:1;" d="M 234.085938 48.585938 C 234.085938 48.96875 233.789062 49.28125 233.425781 49.28125 C 233.0625 49.28125 232.769531 48.96875 232.769531 48.585938 C 232.769531 48.203125 233.0625 47.894531 233.425781 47.894531 C 233.789062 47.894531 234.085938 48.203125 234.085938 48.585938 Z M 234.085938 48.585938 "/>
<path style=" stroke:none;fill-rule:nonzero;fill:rgb(100%,100%,100%);fill-opacity:1;" d="M 190.980469 100.085938 C 190.980469 100.46875 190.6875 100.78125 190.324219 100.78125 C 189.960938 100.78125 189.664062 100.46875 189.664062 100.085938 C 189.664062 99.703125 189.960938 99.394531 190.324219 99.394531 C 190.6875 99.394531 190.980469 99.703125 190.980469 100.085938 Z M 190.980469 100.085938 "/>
<path style=" stroke:none;fill-rule:nonzero;fill:rgb(100%,100%,100%);fill-opacity:1;" d="M 214.429688 50.042969 L 213.070312 50.042969 L 213.070312 48.601562 L 212.839844 48.601562 L 212.839844 50.042969 L 211.46875 50.042969 L 211.46875 50.285156 L 212.839844 50.285156 L 212.839844 51.722656 L 213.070312 51.722656 L 213.070312 50.285156 L 214.429688 50.285156 Z M 214.429688 50.042969 "/>
<path style=" stroke:none;fill-rule:nonzero;fill:rgb(100%,100%,100%);fill-opacity:1;" d="M 145.988281 136.121094 L 145.390625 136.121094 L 145.390625 135.480469 L 145.28125 135.480469 L 145.28125 136.121094 L 144.679688 136.121094 L 144.679688 136.21875 L 145.28125 136.21875 L 145.28125 136.859375 L 145.390625 136.859375 L 145.390625 136.21875 L 145.988281 136.21875 Z M 145.988281 136.121094 "/>
<path style=" stroke:none;fill-rule:nonzero;fill:rgb(100%,100%,100%);fill-opacity:1;" d="M 173.140625 116.519531 L 172.53125 116.519531 L 172.53125 115.878906 L 172.429688 115.878906 L 172.429688 116.519531 L 171.820312 116.519531 L 171.820312 116.628906 L 172.429688 116.628906 L 172.429688 117.269531 L 172.53125 117.269531 L 172.53125 116.628906 L 173.140625 116.628906 Z M 173.140625 116.519531 "/>
<path style=" stroke:none;fill-rule:nonzero;fill:rgb(100%,100%,100%);fill-opacity:1;" d="M 213.609375 76.640625 L 213 76.640625 L 213 76 L 212.898438 76 L 212.898438 76.640625 L 212.289062 76.640625 L 212.289062 76.746094 L 212.898438 76.746094 L 212.898438 77.386719 L 213 77.386719 L 213 76.746094 L 213.609375 76.746094 Z M 213.609375 76.640625 "/>
<path style=" stroke:none;fill-rule:nonzero;fill:rgb(100%,100%,100%);fill-opacity:1;" d="M 185.96875 86.699219 L 185.359375 86.699219 L 185.359375 86.054688 L 185.261719 86.054688 L 185.261719 86.699219 L 184.660156 86.699219 L 184.660156 86.804688 L 185.261719 86.804688 L 185.261719 87.445312 L 185.359375 87.445312 L 185.359375 86.804688 L 185.96875 86.804688 Z M 185.96875 86.699219 "/>
<path style=" stroke:none;fill-rule:nonzero;fill:rgb(100%,100%,100%);fill-opacity:1;" d="M 107.828125 75.949219 L 107.21875 75.949219 L 107.21875 75.304688 L 107.121094 75.304688 L 107.121094 75.949219 L 106.511719 75.949219 L 106.511719 76.054688 L 107.121094 76.054688 L 107.121094 76.691406 L 107.21875 76.691406 L 107.21875 76.054688 L 107.828125 76.054688 Z M 107.828125 75.949219 "/>
<path style=" stroke:none;fill-rule:nonzero;fill:rgb(100%,100%,100%);fill-opacity:1;" d="M 173.800781 35.199219 L 173.191406 35.199219 L 173.191406 34.558594 L 173.089844 34.558594 L 173.089844 35.199219 L 172.480469 35.199219 L 172.480469 35.304688 L 173.089844 35.304688 L 173.089844 35.945312 L 173.191406 35.945312 L 173.191406 35.304688 L 173.800781 35.304688 Z M 173.800781 35.199219 "/>
<path style=" stroke:none;fill-rule:nonzero;fill:rgb(100%,100%,100%);fill-opacity:1;" d="M 120.660156 29.128906 L 120.050781 29.128906 L 120.050781 28.488281 L 119.949219 28.488281 L 119.949219 29.128906 L 119.339844 29.128906 L 119.339844 29.234375 L 119.949219 29.234375 L 119.949219 29.875 L 120.050781 29.875 L 120.050781 29.234375 L 120.660156 29.234375 Z M 120.660156 29.128906 "/>
<use xlink:href="#surface24" mask="url(#mask6)"/>
</g>
</svg>
